<svg id="Сгруппировать_25" data-name="Сгруппировать 25" xmlns="http://www.w3.org/2000/svg" xmlns:xlink="http://www.w3.org/1999/xlink" width="121.6" height="15.652" viewBox="0 0 121.6 15.652">
  <defs>
    <clipPath id="clip-path">
      <rect id="Прямоугольник_5" data-name="Прямоугольник 5" width="121.6" height="15.652" transform="translate(0 0)" fill="#171d1a"/>
    </clipPath>
  </defs>
  <g id="Сгруппировать_2" data-name="Сгруппировать 2" transform="translate(0 0)" clip-path="url(#clip-path)">
    <path id="Контур_1" data-name="Контур 1" d="M22.682,9.655H3.168V4.608A1.551,1.551,0,0,1,4.717,3.059H21.13a1.552,1.552,0,0,1,1.553,1.549ZM22.807.016c-.043,0-.086,0-.124,0V0H3.168V.019c-.043,0-.085,0-.128,0A3.042,3.042,0,0,0,0,3.059V15.652H3.168V12.71H22.682v2.943H25.85V3.059A3.043,3.043,0,0,0,22.807.016" transform="translate(0 0)" fill="#171d1a"/>
    <path id="Контур_2" data-name="Контур 2" d="M557.483,9.655H537.964V4.608a1.551,1.551,0,0,1,1.553-1.549H555.93a1.552,1.552,0,0,1,1.553,1.549Zm.124-9.639c-.043,0-.085,0-.124,0V0H537.964V.019c-.039,0-.082,0-.124,0a3.04,3.04,0,0,0-3.04,3.043V15.652h3.164V12.71h19.519v2.943h3.164V3.059a3.043,3.043,0,0,0-3.04-3.043" transform="translate(-439.047 0)" fill="#171d1a"/>
    <path id="Контур_3" data-name="Контур 3" d="M198.163,0V15.652H195V3.257l-8.964,11.906-.369.489H182.24l-.369-.493L173,3.377V15.652h-3.164V0h4.79l9.328,12.4L193.284,0Z" transform="translate(-139.425 0)" fill="#171d1a"/>
    <path id="Контур_4" data-name="Контур 4" d="M380.9,0V15.652h-3.164V3.261l-8.96,11.9-.373.493h-3.428l-.369-.493-8.87-11.778V15.652h-3.167V0h4.79l9.332,12.391L376.017,0Z" transform="translate(-289.44 0)" fill="#171d1a"/>
  </g>
</svg>
