<svg id="Сгруппировать_32" data-name="Сгруппировать 32" xmlns="http://www.w3.org/2000/svg" xmlns:xlink="http://www.w3.org/1999/xlink" width="140" height="18.021" viewBox="0 0 140 18.021">
  <defs>
    <clipPath id="clip-path">
      <rect id="Прямоугольник_5" data-name="Прямоугольник 5" width="140" height="18.021" transform="translate(0 0)" fill="#1a0029"/>
    </clipPath>
  </defs>
  <g id="Сгруппировать_2" data-name="Сгруппировать 2" transform="translate(0 0)" clip-path="url(#clip-path)">
    <path id="Контур_1" data-name="Контур 1" d="M26.115,11.116H3.647V5.305A1.785,1.785,0,0,1,5.43,3.522h18.9a1.786,1.786,0,0,1,1.788,1.783Zm.143-11.1c-.049,0-.1,0-.143,0V0H3.647V.022c-.049,0-.1,0-.147,0A3.5,3.5,0,0,0,0,3.522v14.5H3.647V14.633H26.115v3.388h3.647V3.522a3.5,3.5,0,0,0-3.5-3.5" transform="translate(0 0)" fill="#1a0029"/>
    <path id="Контур_2" data-name="Контур 2" d="M560.915,11.116H538.443V5.305a1.786,1.786,0,0,1,1.788-1.783h18.9a1.786,1.786,0,0,1,1.788,1.783Zm.143-11.1c-.049,0-.1,0-.143,0V0H538.443V.022c-.044,0-.094,0-.143,0a3.5,3.5,0,0,0-3.5,3.5v14.5h3.643V14.633h22.472v3.388h3.642V3.522a3.5,3.5,0,0,0-3.5-3.5" transform="translate(-424.557 0)" fill="#1a0029"/>
    <path id="Контур_3" data-name="Контур 3" d="M202.45,0V18.021h-3.642V3.75l-10.32,13.708-.425.563h-3.946l-.425-.568L173.475,3.888V18.021h-3.642V0h5.515l10.74,14.271L196.832,0Z" transform="translate(-134.824 0)" fill="#1a0029"/>
    <path id="Контур_4" data-name="Контур 4" d="M385.183,0V18.021h-3.642V3.754l-10.316,13.7-.429.568H366.85l-.425-.568L356.212,3.893V18.021h-3.647V0h5.515l10.745,14.266L379.565,0Z" transform="translate(-279.888 0)" fill="#1a0029"/>
  </g>
</svg>
