<svg xmlns="http://www.w3.org/2000/svg" xmlns:xlink="http://www.w3.org/1999/xlink" width="410" height="52.775" viewBox="0 0 410 52.775">
  <defs>
    <clipPath id="clip-path">
      <rect id="Прямоугольник_5" data-name="Прямоугольник 5" width="410" height="52.775" transform="translate(0 0)" fill="#fff"/>
    </clipPath>
  </defs>
  <g id="Сгруппировать_2" data-name="Сгруппировать 2" clip-path="url(#clip-path)">
    <path id="Контур_1" data-name="Контур 1" d="M76.478,32.553H10.68V15.537A5.228,5.228,0,0,1,15.9,10.314h55.34a5.231,5.231,0,0,1,5.235,5.223ZM76.9.053c-.144,0-.289,0-.42.013V0H10.68V.065c-.144-.013-.288-.013-.432-.013A10.258,10.258,0,0,0,0,10.314V52.775H10.68V42.854h65.8v9.922H87.16V10.314A10.261,10.261,0,0,0,76.9.053" transform="translate(0 0)" fill="#fff"/>
    <path id="Контур_2" data-name="Контур 2" d="M611.28,32.553H545.468V15.537a5.231,5.231,0,0,1,5.235-5.223h55.341a5.232,5.232,0,0,1,5.236,5.223ZM611.7.053c-.144,0-.288,0-.418.013V0H545.468V.065c-.13-.013-.275-.013-.419-.013A10.25,10.25,0,0,0,534.8,10.314V52.775h10.668V42.854H611.28v9.922h10.667V10.314A10.259,10.259,0,0,0,611.7.053" transform="translate(-211.947 0)" fill="#fff"/>
    <path id="Контур_3" data-name="Контур 3" d="M265.356,0V52.775H254.688V10.982L224.466,51.126l-1.244,1.649H211.665l-1.244-1.663L180.5,11.388V52.775H169.833V0h16.152l31.453,41.793L248.9,0Z" transform="translate(-67.306 0)" fill="#fff"/>
    <path id="Контур_4" data-name="Контур 4" d="M448.089,0V52.775H437.422V10.994l-30.21,40.118-1.256,1.663H394.4l-1.244-1.663L363.245,11.4V52.775h-10.68V0h16.152l31.466,41.78L431.636,0Z" transform="translate(-139.725 0)" fill="#fff"/>
  </g>
</svg>
