<svg xmlns="http://www.w3.org/2000/svg" xmlns:xlink="http://www.w3.org/1999/xlink" width="140" height="140" viewBox="0 0 140 140">
  <defs>
    <clipPath id="clip-path">
      <rect id="Прямоугольник_11" data-name="Прямоугольник 11" width="140" height="140" rx="40" transform="translate(774 1880)" fill="#f1f1f1"/>
    </clipPath>
    <clipPath id="clip-path-2">
      <rect id="Прямоугольник_7" data-name="Прямоугольник 7" width="133" height="140.263" fill="#1a0029"/>
    </clipPath>
  </defs>
  <g id="Группа_масок_1" data-name="Группа масок 1" transform="translate(-774 -1880)" clip-path="url(#clip-path)">
    <g id="Сгруппировать_17" data-name="Сгруппировать 17" transform="translate(785 1886.502)">
      <g id="Сгруппировать_10" data-name="Сгруппировать 10" transform="translate(0 0)" clip-path="url(#clip-path-2)">
        <path id="Контур_6" data-name="Контур 6" d="M19.8,9.384c.106-.168.2-.34.321-.5.008-.011.019-.021.027-.034-.15.134-.3.268-.45.4l.1.135" transform="translate(12.051 5.415)" fill="#1a0029"/>
        <path id="Контур_7" data-name="Контур 7" d="M50.377,6.355c-.06-.056-.119-.113-.179-.171.032.064.068.129.1.2.008.021-.018.058.082-.024" transform="translate(30.713 3.784)" fill="#1a0029"/>
        <path id="Контур_8" data-name="Контур 8" d="M131.25,108.45a6.838,6.838,0,0,0-2.158-3.338,17.96,17.96,0,0,0-7.862-3.988,19.5,19.5,0,0,0-8.831.013,8.493,8.493,0,0,1-2.26.258c-1.243-.034-2.481-.185-3.72-.3q-5.058-.481-10.113-.983a.937.937,0,0,1-.583-.213,8.789,8.789,0,0,0-5-2.756c-2.029-.5-4.041-1.069-6.064-1.591a.6.6,0,0,1-.482-.537,38.931,38.931,0,0,1-.822-7.813,1.5,1.5,0,0,1,.111-.575c.6-1.347,1.289-2.661,1.8-4.041a25.364,25.364,0,0,0,1.588-6.608.56.56,0,0,1,.287-.39,2.967,2.967,0,0,0,1.675-1.992,14.87,14.87,0,0,0,.508-2.178c.179-1.146.192-2.327.451-3.453.582-2.519,1.285-5.011,1.916-7.519a22.39,22.39,0,0,0,1.03-6.114,4.8,4.8,0,0,0-.994-3.021,1.935,1.935,0,0,0-2.111-.774.914.914,0,0,1-.234-.021,7.767,7.767,0,0,1,.006-1.044c.318-2.35.658-4.7.983-7.045a19.552,19.552,0,0,0,.047-5.654,21.262,21.262,0,0,0-.593-2.263,2.378,2.378,0,0,1,.972,1.783,4.9,4.9,0,0,0,.255-1.144c.032-.372.006-.751.006-1.2a3.061,3.061,0,0,1,.079,2.523,1.724,1.724,0,0,0,.229-.192c.061-.1.118-.2.169-.3a5.073,5.073,0,0,0-.069-4.874,1.265,1.265,0,0,1-.219-.54c.045-2.052-.866-3.838-1.472-5.667a5.13,5.13,0,0,1,1.359,1.873,4.712,4.712,0,0,0-2.479-3.756c1.752-.1,2.236,1.339,3.067,2.4a4.789,4.789,0,0,0-.308-1.309,4.534,4.534,0,0,0-3.224-2.656,4.194,4.194,0,0,0,.161-3.738,3.772,3.772,0,0,1-.935,3.133c.627-1.617.574-2.934-.176-3.6.153,1.368-.01,1.981-.619,2.332a.135.135,0,0,1-.016-.047q0-.1.01-.2a6.31,6.31,0,0,0-2.226-5.6,1.152,1.152,0,0,1-.242-.467c-.379-.97-.732-1.95-1.135-2.911a4.886,4.886,0,0,0-.593-.849c.26.679.587,1.3.833,1.962a2.323,2.323,0,0,1,0,2.015c-.092-2.582-1.314-4.652-3.019-5.114,1.984,2.358,2.5,3.914,1.758,5.361-.037-.127-.073-.245-.14-.472a7,7,0,0,1-4.981,6.038,8.748,8.748,0,0,0,3.5-4.1,5.707,5.707,0,0,0-.493-5.284,5.17,5.17,0,0,1,1.228,3.042A7.124,7.124,0,0,1,78.765,18.1a6.887,6.887,0,0,0,2.582-3.635c.645-2.416-.355-4.262-2.11-5.838l.147-.111q.764.725,1.526,1.452c-.019-.039-.034-.079-.056-.116a6.616,6.616,0,0,0-2.613-2.61A4.688,4.688,0,0,1,76.3,5.369a6.31,6.31,0,0,0-5.089-2.993,7.016,7.016,0,0,1,3.137,1.957,4.5,4.5,0,0,1-.469-.227,17.6,17.6,0,0,0-2.661-1.08,14.288,14.288,0,0,1-3.274-.9,8,8,0,0,0-1.828-.446,3.454,3.454,0,0,1-.859-.208A13.014,13.014,0,0,0,60.685.032a11.924,11.924,0,0,0-1.518-.01,3.957,3.957,0,0,0,.872.263,8.319,8.319,0,0,1,.812.229c.264.09.517.211.777.318a13.046,13.046,0,0,0-4.76-.239,2.7,2.7,0,0,1-.874-.052,5.568,5.568,0,0,0-4.821,1.127A1.373,1.373,0,0,1,50.183,2a8.261,8.261,0,0,0-5.8,1.846,4.792,4.792,0,0,1-1.987.924c-.21.052-.417.106-.621.177a10.017,10.017,0,0,0-4.76,3.63,2.44,2.44,0,0,0-.181.34,11.425,11.425,0,0,1,6.3-3.878c-.395.2-.808.364-1.206.561A9,9,0,0,0,37.6,9.766a1.04,1.04,0,0,1-.469.4,13.264,13.264,0,0,0-4.939,4.1c.583-.519,1.161-1.044,1.779-1.515.751-.574,1.57-1.057,2.36-1.581.034.048.068.1.1.143a14.6,14.6,0,0,0-4.491,4.6,2.453,2.453,0,0,1-.685.761,11.464,11.464,0,0,0-3.269,3.106,21.254,21.254,0,0,0-1.246,2.3l1.642-.25-2.36.94c.948-.029,1.768-.061,2.589-.079a6.607,6.607,0,0,0,1.128.01,20.806,20.806,0,0,1,5.591-.495c1.043.077,2.074.316,3.109.482-.006.052-.015.1-.023.155a16.849,16.849,0,0,0-5.7.124l4.449.416-.01.15a19.125,19.125,0,0,0-10.047,1.1l1.678-.808-.026-.081-.7.087c-.006-.031-.011-.06-.016-.09l4.565-1.152c-2.147-.093-3.984.764-5.849,1.518l-.068-.15,2.189-1.069a10.122,10.122,0,0,0-4.806,1.368l1.85-.39a6.476,6.476,0,0,0-2.416,2.9c.255-.221.461-.482.706-.7a9.663,9.663,0,0,1,.783-.582,4.057,4.057,0,0,0-.922,2.56,3.683,3.683,0,0,1,1.739-1.884,3.025,3.025,0,0,0-.883,2.6.76.76,0,0,1-.395.814c-.572.384-1.091.845-1.633,1.277.016.031.032.06.047.093.385-.108.769-.216,1.188-.332a3.365,3.365,0,0,0-.459,2.872c.284-.637.566-1.269.846-1.9l.137.064c-.682,1.641-.837,2.676-.54,3.228.14-.434.3-.93.459-1.43l.139.04a3.351,3.351,0,0,0,.2,2.9,3.065,3.065,0,0,1,.675-2.321,4.549,4.549,0,0,0-.347,2.974,5.46,5.46,0,0,1,1.974-2.26l-2.111,3.609c.045.031.092.056.137.087.495-.593.988-1.185,1.539-1.844-.332.9-.627,1.7-.922,2.5l.1.031c.408-.754.814-1.509,1.238-2.294a15.8,15.8,0,0,0-.142,2.44c.182,1.9.461,3.789.722,5.68a15.238,15.238,0,0,1,.139,4.608c-.058.355-.134.706-.2,1.061l.092.018q.232-.517.463-1.035l.069.023-.377,1.5a.627.627,0,0,0,.071.026l.33-.475c-.05.58-.1,1.135-.147,1.728-.2.053-.445.108-.679.182a1.962,1.962,0,0,0-1.544,2.569c.034.179.077.358.111.537a43.4,43.4,0,0,1,.819,4.5,50.643,50.643,0,0,0,1.4,9.334q.612,2.227,1.27,4.444a30.153,30.153,0,0,0,.938,2.879,5.579,5.579,0,0,0,2.094,2.719.889.889,0,0,1,.276.393c.525,1.164,1.028,2.339,1.562,3.5a38.252,38.252,0,0,0,4.157,6.9,3.1,3.1,0,0,1,.574,1.135c.688,3.193,1.328,6.4,2.018,9.589a.729.729,0,0,1-.343.917,27.974,27.974,0,0,1-3.038,1.68,14.206,14.206,0,0,0-5.35,3.628,6.411,6.411,0,0,1-1.472,1.327c-2.1,1.233-4.247,2.4-6.383,3.578a9.765,9.765,0,0,1-2.044,1.012,29.81,29.81,0,0,1-7.626,1.04c-1.976.011-3.954.077-5.923.21A13.537,13.537,0,0,0,3.43,116.23a9.283,9.283,0,0,0-3.195,3.295,1.526,1.526,0,0,0-.226.783q-.019,9.7-.008,19.4c0,.174.018.35.029.556H132.354c.214,0,.43-.018.646-.026V112.112a11.1,11.1,0,0,1-1.75-3.662M5.656,128.93a55.32,55.32,0,0,1,3.072,9.226,47.839,47.839,0,0,1-3.072-9.226M85.57,48.3c.055.121.111.242.166.359l.082-.011c-.114-2.294-.23-4.587-.347-6.931.14.795.332,1.549.4,2.316.166,1.863.206,3.739.434,5.6a14.549,14.549,0,0,0,.746,2.577c-.056-.058-.111-.118-.166-.181a1.14,1.14,0,0,1-.1.045c.134.384.266.769.4,1.152A10.758,10.758,0,0,1,85.57,48.3m.751-8.988a6.255,6.255,0,0,0-.727-2.26A9.42,9.42,0,0,1,87,40.058a13.511,13.511,0,0,1,.056,6.162c-.145.825-.193,1.668-.279,2.45-.047-.554-.1-1.164-.15-1.771l-.181.01c.055,1.028.111,2.053.168,3.082l-.047.016c-.106-.658-.266-1.315-.306-1.976-.071-1.209-.11-2.421-.1-3.631a10.427,10.427,0,0,0-1.336-5.393c-.027-.052-.048-.106-.073-.158l.119-.063c.324.624.7,1.228.959,1.876s.417,1.351.741,2.023c-.092-1.123-.245-2.245-.256-3.372m.49-3.789a2.549,2.549,0,0,0,.2.484,12.441,12.441,0,0,1,1.942,6.138,9.65,9.65,0,0,1-.068,1.193c-.127-.854-.211-1.763-.408-2.645a22.708,22.708,0,0,0-.8-2.711c-.311-.866-.712-1.7-1.073-2.545l.21.087m2.24,12.787H88.9V45.743h.148ZM87.411,38.245c1.433,2.684.907,5.567.837,8.407-.274-2.8.164-5.682-.837-8.407M87.9,50.369l-.135-2.956a4.154,4.154,0,0,1,.135,2.956M89.93,52a1.136,1.136,0,0,1,1.3.687,4.375,4.375,0,0,1,.409,2.9c-.308,1.747-.6,3.5-1.007,5.227-.664,2.856-1.414,5.7-2.116,8.541a3.264,3.264,0,0,0-.093.882,4.482,4.482,0,0,1-.864,3.238,3.674,3.674,0,0,1-.309.324,2.482,2.482,0,0,1-.272.19c.213-3.548.419-7,.625-10.446l.2,0c.031.239.077.482.084.72s-.026.49-.044.759a3.113,3.113,0,0,0,.719-2.278,3.111,3.111,0,0,1-.082,2.2,2.725,2.725,0,0,0-.485-3.983.643.643,0,0,1-.326-.727c.23-2.16.438-4.323.662-6.484A2.566,2.566,0,0,1,89.93,52M88.82,39.3c-.5-1.132-1.075-2.234-1.633-3.34a2.441,2.441,0,0,0-.374-.44c-.279-.4-.551-.8-.837-1.19-.123-.168-.272-.316-.377-.493a10.691,10.691,0,0,1,3.77,7.256,14.621,14.621,0,0,0-.55-1.794m-2.937-6.362c.037-.031.076-.063.114-.092l1.47,1.555c.024-.013.048-.027.073-.039-.318-.556-.637-1.111-.951-1.657,2.111,1.986,2.7,4.636,3.159,7.343a16.662,16.662,0,0,0-3.865-7.111m4.2,6.159a16.567,16.567,0,0,0-4.5-8.066,11.6,11.6,0,0,1,4.5,8.066m-2.424-7.527q.921,1.023,1.842,2.052l-.068.056c-.759-.664-1.484-1.372-2.289-1.978s-1.681-1.1-2.46-1.6l.785.235.039-.089c-.408-.2-.817-.413-1.225-.616,2.514.772,4.755,1.926,6.054,4.37a10.126,10.126,0,0,0-2.679-2.427m2.008.268L84.16,29.108a13.466,13.466,0,0,1,5.508,2.729m-6.9-3.369a9.578,9.578,0,0,1,7.337,3.34,14.278,14.278,0,0,0-7.337-3.34m.035-.766c3.731.048,7.376,2.458,8.025,4.7-1.894-2.882-4.8-4.068-8.025-4.7m-.242-1a8.059,8.059,0,0,1,6.539,2.819A12.134,12.134,0,0,0,82.566,26.7m7.825,1.386a8.7,8.7,0,0,0-4.018-1.71A8.437,8.437,0,0,1,90.2,28.988a11.049,11.049,0,0,0-7.684-2.816c.185-.031.371-.068.556-.09a1.075,1.075,0,0,0,.538-.156H81.46c2.611-.653,7.263.119,8.931,2.158m-3.786-7.737a9.3,9.3,0,0,1-3.364,1.9c.432.376,2.271-.459,3.638-1.473a10.878,10.878,0,0,1-.893.814,7.96,7.96,0,0,1-1.149.691,10.725,10.725,0,0,0-1.157.575c.364-.031.729-.063,1.093-.092a6.637,6.637,0,0,1,3.506.766,2.861,2.861,0,0,1,.432.326,7.246,7.246,0,0,0-4.829-.58.7.7,0,0,0,.421.1,9.151,9.151,0,0,1,4.508.68c.064.061.131.121.2.182a10.96,10.96,0,0,0-4.889-.571c.071.845.177.956.92,1.127a6.039,6.039,0,0,1,2.439,1.08,13.894,13.894,0,0,0-5.714-1.069c0-.044,0-.089,0-.132l2.4-.11c-.111-.791-.3-.941-1.109-.8-.848.152-1.691.326-2.534.49.374-.289.762-.59,1.23-.953l-1.531.33L80.2,23.59l2.864-.935.01-.171a1.381,1.381,0,0,0-.426-.1c-.856.1-1.71.224-2.566.324a.829.829,0,0,1-.321-.093c.853-.264,1.675-.519,2.5-.775-.011-.061-.021-.121-.032-.182a5.206,5.206,0,0,0-4.107-.756,4.355,4.355,0,0,1,4.2.434.579.579,0,0,0,.787.034c.495-.334,1.027-.614,1.507-.967.464-.342.88-.75,1.2-1.028a3.78,3.78,0,0,1-1.167,1.364c-.517.4-1.09.735-1.594,1.209.4-.15.8-.287,1.19-.453s.788-.351,1.172-.546.777-.426,1.183-.6M88.42,25.8a10.236,10.236,0,0,0-3.9-1.9,4.64,4.64,0,0,1,3.9,1.9M80.05,18.13a5.934,5.934,0,0,0,2.524-4.482c.018-.788-.093-1.578-.137-2.244,1.209,3.316-.171,5.817-3.5,7.643q.556-.457,1.111-.917M78.562,19.6c.635-.114,1.273-.214,1.905-.345a3.1,3.1,0,0,0,2.75-3.511,1.8,1.8,0,0,1,.084.28,3.025,3.025,0,0,1-2.759,3.525c-.654.089-1.322.082-1.983.119,0-.023,0-.047,0-.069m.4.187A6.428,6.428,0,0,0,82.1,19.2a2.449,2.449,0,0,0,1.652-3.061c-.027-.176-.061-.351-.106-.606.864,1.62.612,3.762-2.963,4.434.14.032.3.129.416.089a15.524,15.524,0,0,0,2.2-.872A2.151,2.151,0,0,0,84.36,16.8a1.351,1.351,0,0,1-.01-.2c0-.015.011-.031.016-.047.767,1.441-.031,2.631-2.46,3.59a1.765,1.765,0,0,0,.327.122,2.44,2.44,0,0,0,2.742-3.219,14.135,14.135,0,0,0-.762-1.928c.672.554,1.053,1.6,1.112,3.288.6-.685.376-1.655-.874-3.831,1.974,1.652,2.208,4.415-.843,6.168l.227-.327c-1.352.4-2.579-.073-3.839-.271-.961-.152-1.942-.185-2.921-.361.629,0,1.259-.031,1.886.006m.379,3.68a7.386,7.386,0,0,0-4.407-3.137,4.9,4.9,0,0,1,4.407,3.137m-4.316-3.519a27.2,27.2,0,0,0,2.448-1.665,6.611,6.611,0,0,0,2.674-5.572,13.574,13.574,0,0,0-.553-2.4,3.373,3.373,0,0,0-.135-.361c2.444,3.536-.118,9.015-4.434,10M78.673,9.935a17.261,17.261,0,0,1,.625,1.916c.6,2.916-.484,4.961-3.09,6.476a12.418,12.418,0,0,1-2.381.99,12.19,12.19,0,0,0,2.2-1.191,7.22,7.22,0,0,0,1.613-1.979,8.27,8.27,0,0,0,.875-2.356c.177-.833.147-1.71.256-2.582a14.271,14.271,0,0,1,.121,1.754,8.109,8.109,0,0,1-.292,1.857,13.876,13.876,0,0,1-.712,1.68c1.784-2,1.439-4.249.78-6.563M77.658,8.552a7.163,7.163,0,0,1-.216,6.934A7.876,7.876,0,0,1,71.8,19.6a4.192,4.192,0,0,1-.845.034,8.531,8.531,0,0,0,6.4-4.7,10.534,10.534,0,0,1-3.195,3.046,16.525,16.525,0,0,1-1.668.848c2.368-1.364,4.5-2.946,5.172-5.783.666-2.8-.34-5.221-1.842-7.521a14.27,14.27,0,0,1,1.836,3.027M70.7,19.111c2.59-1.244,4.892-2.8,5.993-5.753-.348,2.479-2.869,4.914-5.993,5.753m6.136-6.687c.053-.84.11-1.739.166-2.64l-.145-.019q-.2.919-.39,1.837a8.951,8.951,0,0,0-1.484-6.4c1.908,1.942,2.934,4.589,1.854,7.224m-1.2-5.672a8.41,8.41,0,0,1-.484,7.079c1.041-3.435,1.455-6.741-1.7-9.5a4.754,4.754,0,0,1,2.187,2.418m-14.316-5a13.022,13.022,0,0,1,1.862.318c.587.142,1.154.356,1.778.446l-1.686-.986a4.925,4.925,0,0,1,2.8,1.481.988.988,0,0,0,1.433.28c-.661-.459-1.281-.888-1.892-1.312a2.537,2.537,0,0,1,1.9,1.036.823.823,0,0,0,.714.33,6.755,6.755,0,0,1,6.8,7.1c-.015.426-.048.851-.026,1.27a6.821,6.821,0,0,0-1.547-6.855A4.075,4.075,0,0,1,74.91,6.553a7.33,7.33,0,0,1-.2,6.845,10.858,10.858,0,0,1-2.442,3.183,7.869,7.869,0,0,1-1.388.9c2.743-2.142,4.223-4.832,3.7-8.388a7.086,7.086,0,0,1-.983,4.188,13.064,13.064,0,0,1-1.417,1.825c1.673-2.126,2.587-4.415,1.707-7.148.571,2.677-.479,4.873-2.047,6.913a11.2,11.2,0,0,0,1.829-4.819c-.218.537-.416,1.019-.608,1.489,1.251-3.619-.925-6.9-3.275-7.34.232.134.343.21.464.264A4.473,4.473,0,0,1,72.714,7.88a5.164,5.164,0,0,1-.172,2.7c-.216.675-.459,1.344-.722,2.012a9,9,0,0,0,.263-3.187,5.447,5.447,0,0,0-3.269-4.682c-.7-.261-1.444-.427-2.324-.682l3.146-.34a4.966,4.966,0,0,0-3,.027.651.651,0,0,1-.509.008,12.54,12.54,0,0,0-4.81-1.346c-.519-.079-1.044-.1-1.573-.185l1.655-.1,0-.1-1.828-.272c.567,0,1.162-.04,1.75.011m9.8,7.89a6.833,6.833,0,0,1-1.486,5.118,12.807,12.807,0,0,1-1.046,1.173c-.181.234-.351.475-.55.691.2-.216.369-.458.55-.691.527-.843,1.123-1.651,1.568-2.535A5.9,5.9,0,0,0,68.3,5.707a9.274,9.274,0,0,0-1.2-.65l-.066.132c.168.1.33.208.5.3a5.063,5.063,0,0,1,2.6,3.583c.575,2.917-.593,5.314-2.376,7.5.614-1.244,1.32-2.453,1.818-3.744A6.161,6.161,0,0,0,69.359,7.8c-.044-.089-.09-.177-.142-.261a.3.3,0,0,0-.14-.11,7.385,7.385,0,0,1-.417,5.459c.071-.353.147-.7.208-1.057.064-.377.127-.754.169-1.133a7.265,7.265,0,0,0-.456-3.812,2.691,2.691,0,0,0-.685-.867c1.423,2.59,1.093,5.182.1,7.782.011-.093.021-.187.037-.279.021-.114.044-.229.073-.342a11.3,11.3,0,0,0,.239-5.124,9.372,9.372,0,0,0-.917-2.239c-.118-.234-.48-.345-.769-.467,1.567,1.773,1.578,3.9,1.443,6.038a11.726,11.726,0,0,1-1.936,5.79.621.621,0,0,1-.255.248c.142-.264.293-.524.426-.793a13.848,13.848,0,0,0,1.233-8.957A3.3,3.3,0,0,0,65.8,5.108a5.184,5.184,0,0,0-1.786-.347l1.025-.143c0-.045,0-.089-.008-.134l-1.307.092.828-.2.044-.15L60.207,2.435a10.4,10.4,0,0,1,4.423,1.651,1.332,1.332,0,0,0,.717.237,6.26,6.26,0,0,1,6.326,5.811,7.772,7.772,0,0,1-2.145,5.722,10.459,10.459,0,0,1-1.1,1.032c2.2-2.4,3.648-5.018,2.584-8.362-.05-.008-.1-.016-.148-.026.085.382.19.759.251,1.144m-4.6,4.729c-.714-2.685-1.779-5.342-.706-8.183-.64,2.8.369,5.464.706,8.183m-.261-7.83a16.948,16.948,0,0,1,.185,6.141c-.06-2-.121-4-.185-6.141m.566.53a10.249,10.249,0,0,1-.1,7.439,18.02,18.02,0,0,0,.1-7.439M60.5,3.584a13.2,13.2,0,0,1,3.828,5.084,4.553,4.553,0,0,1,.243-2.581c-.39,1.681.224,3.235.621,4.81a17.942,17.942,0,0,1,.719,4.558c0,.482-.064.962-.114,1.443l-.43-4.442-.2.011v3.072a15.6,15.6,0,0,0-2.54-9.215,12.584,12.584,0,0,0-7.909-5.2,10.724,10.724,0,0,1,5.78,2.46m1.788,6.51c.445,1.17.859,2.352,1.2,3.564A21.854,21.854,0,0,0,55.25,2.185l1.412.766L55.321,1.9A17.264,17.264,0,0,1,63.73,12.714C63.121,11.423,62.57,10.238,62,9.063a3.824,3.824,0,0,0-.435-.592c.245.54.517,1.069.729,1.623m.719-.769a20.013,20.013,0,0,0-4.141-5.35c-.82-.764-1.744-1.417-2.61-2.108a15.882,15.882,0,0,1,8.056,10.425c-.411-.949-.783-2-1.306-2.967M62.354,7.2a16.952,16.952,0,0,0-3.675-4.194c2.6,1.238,5.849,6.363,5.93,9.366A17.307,17.307,0,0,0,62.354,7.2m.961,10.127A18.639,18.639,0,0,0,60.542,8.65a17.471,17.471,0,0,0-6.636-6.141,16.017,16.017,0,0,1,9.408,14.822M50.537,2.432c1.768.06,3.17,1.061,4.745,1.7-.176-.142-.347-.29-.529-.424s-.377-.258-.559-.4a14.581,14.581,0,0,1,7.414,9.283l-.546-1.219-.1.031c.035.124.064.251.108.372.182.516.413,1.02.542,1.547a7.916,7.916,0,0,1,.169,1.6c-.237-.635-.484-1.267-.708-1.905a17.759,17.759,0,0,0-3.457-5.828A11.549,11.549,0,0,0,51.25,3.351a9.585,9.585,0,0,0-4.669.176,8.93,8.93,0,0,1,4.258-.5,11.217,11.217,0,0,1,4,1.388c-1.889-1.4-3.855-2.655-9.17-.817a8.268,8.268,0,0,1,4.869-1.167M60.95,14.977a50.756,50.756,0,0,0-3.541-7.058q.249.293.5.582L58,8.434q-.336-.5-.672-.993A15.5,15.5,0,0,1,61.5,16.484q-.355-1.308-.709-2.614c-.044.01-.087.021-.131.032l.29,1.075m-7.279-.951.126-.187,3.785,2.529c-.045.063-.092.124-.137.187l-3.773-2.529M56.723,16.8c-2.055-.292-3.061-1.842-4.02-3.446,1.235,1.267,2.171,2.887,4.02,3.446m-5.288-4.59a12.193,12.193,0,0,0,.575,1.26,10.208,10.208,0,0,0,3.954,3.622,9.388,9.388,0,0,1,1.228.961c-.029.048-.058.1-.089.143-1.46-.761-2.98-1.43-4.365-2.31a5.463,5.463,0,0,1-2.4-3.633A8.1,8.1,0,0,0,54.412,16.6c-.651-.654-1.3-1.241-1.867-1.892a5.022,5.022,0,0,1-1.109-2.31,1,1,0,0,0-.326-.508,8.664,8.664,0,0,1-3.219-5.113,2.681,2.681,0,0,1-.068-.79A2.024,2.024,0,0,0,46.59,3.87a1.088,1.088,0,0,1,1.14.558,1.2,1.2,0,0,1,.253,1.281.887.887,0,0,0-.053.469,7.744,7.744,0,0,0,1.594,3.651A13.78,13.78,0,0,0,53.958,13.3c1.484.875,2.977,1.738,4.458,2.621a5.159,5.159,0,0,1,.654.508l-7.635-4.221m-3.754,4.073a6.492,6.492,0,0,0,1.054,1.049c.392.316.838.564,1.238.866a5.154,5.154,0,0,1-3.622-4.568,9.846,9.846,0,0,1,.956-4.653l-.432,1.847.1.029c.2-.543.406-1.085.525-1.406a23.583,23.583,0,0,0-.477,3.145c-.077,2.674,1.248,4.318,3.836,5.029,1.239.34,2.469.724,3.7,1.088-.015.027-.029.053-.045.081-1.14-.284-2.273-.6-3.422-.841a5.061,5.061,0,0,1-4.007-3l-.142.087a10.706,10.706,0,0,0,.73,1.244M31.444,18.663c.06.087.121.176.2.293l-2.1,1.713a6.1,6.1,0,0,1,3.473.324c-1.375-.058-2.6-.111-3.786-.163A4.877,4.877,0,0,1,31,19.158a2.308,2.308,0,0,0,.443-.495m1.286.216c.243-.464.459-.948.738-1.391a9.909,9.909,0,0,1,2.766-2.759c.877-.625,1.731-1.291,2.647-1.855a4.491,4.491,0,0,1,4.457-.256c-.14-.016-.28-.032-.419-.05.114.087.23.172.345.258a7.66,7.66,0,0,1,2.165,2.057q-.372-.989-.746-1.981l.084-.042c.2.406.427.8.608,1.219A8.967,8.967,0,0,0,47.355,17.6c.745.648,1.57,1.2,2.356,1.792-.11-.011-.276-.013-.438-.042a4.214,4.214,0,0,1-3.116-2.236c-.35-.642-.777-1.248-1.061-1.915a3.072,3.072,0,0,0-2.207-1.75,6.554,6.554,0,0,0-4.914.617,11.259,11.259,0,0,0-4.726,4.076,2.932,2.932,0,0,1-.521.737M44.964,7.806a24.241,24.241,0,0,0-2.819.666c-.924.324-1.776.848-2.68,1.248,1.42-1.438,2.78-2.974,5.024-3.053.432-.015.866.023,1.3.039a4.663,4.663,0,0,1-.643.11,5.509,5.509,0,0,0-3.731,1.543,5.983,5.983,0,0,1,3.552-.551m-.248-.553c.9-.513,1.807.143,1.836,1.273a1.866,1.866,0,0,0-1.836-1.273m1.607,3.064c.3-.94.585-1.881.941-2.811-.2.849-.358,1.713-.619,2.542a9.182,9.182,0,0,0-.45,4.4,5.444,5.444,0,0,0,2.437,3.6c.172.119.355.222.534.332A5.03,5.03,0,0,1,46.2,15.467a7.428,7.428,0,0,1,.118-5.15m8.2,7.838c-1.254-.409-2.434-.748-3.577-1.181a4.818,4.818,0,0,1-3.193-4.412,6.783,6.783,0,0,1,.324-2.874c-.3,2.116-.251,4.17,1.257,5.878a5.2,5.2,0,0,0,2.8,1.473,5.785,5.785,0,0,1-2.709-2.6A7.6,7.6,0,0,1,48.78,10.4a9.526,9.526,0,0,0,1.053,4.162,5.753,5.753,0,0,0,3.37,2.479,6.261,6.261,0,0,1-3.794-5.891c.229.756.424,1.562.72,2.329a5.634,5.634,0,0,0,2.721,2.99q1.231.655,2.447,1.336a5.547,5.547,0,0,1,.564.413c-.027.045-.053.092-.081.137q-.841-.3-1.681-.6l-.034.077.453.318M48.761,5.016l.135-.044a11.571,11.571,0,0,0,2.94,5.4A13.731,13.731,0,0,1,49.97,5.364a20.734,20.734,0,0,0,2.2,4.842,12.817,12.817,0,0,0,3.905,3.6A11.268,11.268,0,0,1,48.46,5.291l.822,2.065.1-.034q-.312-1.153-.621-2.307m1.792.092a19.251,19.251,0,0,0,4.088,7.084,11.685,11.685,0,0,1-4.088-7.084m4.931,7.331a15.091,15.091,0,0,1-3.2-3.905,5.878,5.878,0,0,1-.861-3.278.748.748,0,0,0-.569-.888,5.14,5.14,0,0,1-.766-.334,3.866,3.866,0,0,1,2.985,1.933c.347.653.527,1.393.827,2.073a38.782,38.782,0,0,0,1.828,3.914,15.509,15.509,0,0,0,1.925,2.24c.037-.037.076-.074.114-.111a9.735,9.735,0,0,0-.7-.9A11.558,11.558,0,0,1,54.193,7.8a17.917,17.917,0,0,0-.638-2.092,8.763,8.763,0,0,0-.74-1.269A3.187,3.187,0,0,1,54,6.184c.316.854.556,1.736.835,2.6.048.155.121.3.181.448-.074-.956-.11-1.912-.239-2.853A4.008,4.008,0,0,0,54.291,5.3a2.423,2.423,0,0,1-.206-.421c1.238,1.165,1.31,2.871,1.981,4.3q-.16-1.09-.321-2.182a36.149,36.149,0,0,0,3.9,7.422c-.035.024-.071.048-.106.071L58.16,12.688l-.1.061c.416.722.851,1.436,1.243,2.171a5.13,5.13,0,0,1,.864,2.25,37.038,37.038,0,0,0-4.686-4.732m3.175-1.064c-.671-1.285-1.451-2.513-2.157-3.78a19.122,19.122,0,0,1,4.031,7.792c-.622-1.341-1.193-2.7-1.875-4.012M47.4,5.791C46.63,4.418,45.5,4.9,44.39,5c1.465-.791,2.692-.5,3.009.793m-1.365.419A16.788,16.788,0,0,0,44.125,6.1a7.573,7.573,0,0,0-1.9.316,8.212,8.212,0,0,0-1.789.845A19.14,19.14,0,0,0,38.8,8.513a6.271,6.271,0,0,1,7.229-2.3m.073.519c-.108-.011-.2-.021-.292-.029h0a2.667,2.667,0,0,0-2.055-.176,8,8,0,0,0-5.126,3.14,1.48,1.48,0,0,1-.116.122c1.111-2.693,5.795-4.581,7.592-3.058M33.076,15.32a18.8,18.8,0,0,1,2.347-2.695,10.83,10.83,0,0,1,4.665-2.473,1.857,1.857,0,0,0,.828-.477,4.2,4.2,0,0,1,3.557-1.443,4.388,4.388,0,0,1,1.235.426c-1.891-.642-3.388.077-4.834,1.3.622,0,1.169-.04,1.705.011a8.063,8.063,0,0,1,1.546.342q-1.076-.128-2.152-.255c0,.021,0,.044-.008.066q.895.167,1.788.337a6.916,6.916,0,0,0-2.753.1,6.006,6.006,0,0,0-2.482,1.18c1.76-.537,3.5-.861,5.226.122-.1-.006-.192.008-.293,0-1.968-1.191-6.3.416-7.522,1.983a9.411,9.411,0,0,1,7.493-1.983c-5.685-.219-9.1,2.921-11.441,7.806a5.352,5.352,0,0,1,.134-.754A13.354,13.354,0,0,1,35.733,13.4,13.641,13.641,0,0,1,39.8,10.668a.263.263,0,0,0,.169-.218c-.411.15-.833.274-1.228.456a14.248,14.248,0,0,0-7.176,7.54,1.569,1.569,0,0,1-.118.192c.037-.2.074-.4.134-.727l-2.714,2.4a6.285,6.285,0,0,1,1.944-2.049c.258-.206.567-.351.808-.574a1.431,1.431,0,0,0,.224-.513l.01,0c.4-.622.764-1.278,1.223-1.857m-4.655,4.84a6.218,6.218,0,0,1,3.4-2.971c-1.172,1.022-2.342,2.044-3.4,2.971m.2,2.17c.6-.811,3.285-1.418,4.7-.845a11.258,11.258,0,0,0-4.7.845m5.15-2.979c-.189.245-.39.479-.587.717a.269.269,0,0,1-.026-.039.262.262,0,0,1-.011-.048c.114-.161.239-.316.343-.484a9.279,9.279,0,0,1,2.977-3.008c.248-.153.5-.293.758-.438a6.516,6.516,0,0,0-3.3,2.276c-.26.38-.485.785-.727,1.178a7.262,7.262,0,0,1,2.771-3.673,21.738,21.738,0,0,1,2.929-1.771,5.607,5.607,0,0,1,4.012-.285l-2.692.137c0,.034,0,.068.006.1a15.48,15.48,0,0,1,1.755.111,2.93,2.93,0,0,1,1.388.484,11.878,11.878,0,0,1,1.5,1.749c.419.537.8,1.1,1.2,1.655a3.8,3.8,0,0,0,2.247,1.494,2.768,2.768,0,0,1-2.087-.916c-.492-.559-.919-1.175-1.393-1.75-.55-.664-1.1-1.325-1.686-1.957a2.182,2.182,0,0,0-1.721-.627,9.565,9.565,0,0,0-5.719,2.132A9.305,9.305,0,0,1,42.941,15.2h-2.3l0,.024c.461.058.927.085,1.38.181a3.5,3.5,0,0,1,2.258,1.415,18.245,18.245,0,0,0,1.215,1.515,5.051,5.051,0,0,0,3.24,1.688c-.008.048-.018.1-.026.142-.811-.111-1.631-.174-2.429-.348a36.189,36.189,0,0,1-3.6-.936,5.439,5.439,0,0,0-2.381-.237,18.771,18.771,0,0,0-2.542.451c-.811.211-1.591.546-2.416.777.7-.338,1.383-.735,2.111-1a8.371,8.371,0,0,1,5.14-.229,13.521,13.521,0,0,0,1.933.214L42.733,17.08a2.291,2.291,0,0,1,.543.25c.75.6,1.478,1.23,2.228,1.831a4.11,4.11,0,0,0,.662.35c0-.092.018-.137,0-.145a7.383,7.383,0,0,1-2.031-2.3A3.365,3.365,0,0,0,40.589,15.5a9.4,9.4,0,0,0-6.813,3.854m6.122.566a28.1,28.1,0,0,1,3.469-.2,18.932,18.932,0,0,1,2.669.455c-.006.042-.015.082-.021.124l-3.306-.35-.029.21,3.688.554a4.091,4.091,0,0,1-2.129-.021c-1.21-.2-2.419-.416-3.636-.543a9.879,9.879,0,0,0-1.75.108,4.662,4.662,0,0,1,1.046-.34m-3.814.4c.7-.84,4.023-1.573,5.521-.869a11.846,11.846,0,0,0-5.521.869m2.356-3.722a6.231,6.231,0,0,1,3.581.127,4.446,4.446,0,0,1,.682.347,8.059,8.059,0,0,0-3.169-.366,7.67,7.67,0,0,0-4.421,2.2c-.393.374-.775.759-1.18,1.117a8.15,8.15,0,0,1,4.507-3.43M42.4,17.649a8.143,8.143,0,0,0-8.056,2.892A6.771,6.771,0,0,1,42.4,17.649M34.8,21.3a9.136,9.136,0,0,1,3.022-.82c.34-.05.674-.14,1.009-.213l.006,0c.377.069.753.145,1.132.2.65.1,1.3.185,1.949.345A20.94,20.94,0,0,0,34.8,21.3m1.512.519a6.882,6.882,0,0,1,4.316-.324l-4.316.324m-.888,4.27c.006.047.015.092.023.139a37.529,37.529,0,0,1-7.371,1.046q3.673-.595,7.348-1.185M27.2,27.377a14.135,14.135,0,0,1,8.132-1.647A27.315,27.315,0,0,0,27.2,27.377M27.169,27c2.8-1.67,5.722-2.813,9.071-2.013-3.262-.411-6.183.727-9.071,2.013m9.063-3.116c-3.106-.564-5.925.438-8.72,1.58,2.721-1.523,5.537-2.545,8.72-1.58m-.509.651a13.4,13.4,0,0,0-4.885.408,14,14,0,0,0-4.42,2.06,10.48,10.48,0,0,1,9.305-2.468m-6.015,3.253c-.287-.048-.422-.071-.559-.092,0-.042-.011-.082-.016-.121l6.771-1.04.029.161c-.964.174-1.934.309-2.887.525A26.043,26.043,0,0,0,26.6,29.382a17.165,17.165,0,0,0-1.528,1.012,9.219,9.219,0,0,1,4.632-2.6m-4.25,4.179a13.241,13.241,0,0,1,3.978-2.856L29.377,29c-.89.417-1.778.837-2.611,1.228,1.188-1.327,5.577-2.737,7.485-2.576a3.025,3.025,0,0,1-.353.082,8.929,8.929,0,0,0-3.161,1.146,1.43,1.43,0,0,0-.26.219l2.174-.672a28.481,28.481,0,0,0-6.32,3.627l-.087-.121q1.013-.786,2.021-1.575c.19-.15.361-.324.542-.485a13.445,13.445,0,0,0-3.351,2.1m.635,2.115A11.582,11.582,0,0,1,32.772,28.9a17.823,17.823,0,0,0-6.679,5.182m.645-.076a12.369,12.369,0,0,1,5.775-4.315c-1.015.669-2.07,1.288-3.042,2.016s-1.876,1.568-2.734,2.3m1.007.268a5.364,5.364,0,0,1,2.88-2.468c-.932.8-1.863,1.6-2.88,2.468m.463,5.548a11.378,11.378,0,0,1,3.846-8.251c-.617.885-1.257,1.691-1.768,2.571a17.035,17.035,0,0,0-1.322,2.776c-.35.975-.53,2.01-.756,2.9m2.45,8.454a27.352,27.352,0,0,1,1-6.363c-.295,2.589-.579,5.093-.864,7.6.053.008.1.018.156.029l1.3-4.768c-.26,2.719-1.375,5.263-1.652,8.069.443-1.534.859-2.975,1.273-4.418l.114.031c-.421,1.962-.841,3.926-1.215,5.669a8.418,8.418,0,0,1-.1-3.731,6,6,0,0,0-.2-1.8,15.508,15.508,0,0,1,.851-7.443c.108-.293.21-.592.318-.887a1.491,1.491,0,0,1,.113-.213,26.2,26.2,0,0,0-1.093,8.23m.906,4.405-.348,4.478a9.125,9.125,0,0,1,.348-4.478m-1.31-7.9a23.621,23.621,0,0,0-.345,6.123A5.988,5.988,0,0,1,29.6,48c.122-1.449.282-2.9.456-4.344a15.362,15.362,0,0,1,1.278-4.375c.024-.056.045-.114.066-.172-.4,1.887-.88,3.762-1.148,5.67m-.15-2.724c-.218,1.188-.292,2.4-.421,3.523A17.85,17.85,0,0,1,32.243,35.16c-.419,1.109-.891,2.2-1.244,3.327a30.406,30.406,0,0,0-.9,3.569m-.729.614a14.619,14.619,0,0,1,2.875-8.733,24.338,24.338,0,0,0-2.875,8.733m2-9.37c-.139.371-.29.77-.44,1.17.248-.364.495-.73.748-1.091a2.782,2.782,0,0,1,.359-.414,23.871,23.871,0,0,0-2.832,7.9,12.109,12.109,0,0,1,.72-4.042c.093-.282.168-.569.25-.856-.461,1.133-.978,2.245-1.362,3.4a18.214,18.214,0,0,0-.472,2.415c.056.013.111.026.168.035.143-.5.287-1,.461-1.62-.134,1.651-.258,3.177-.374,4.6-.916-4.205.243-8.027,2.774-11.494m-2.128,8.6q-.08,2.64-.161,5.282a11.026,11.026,0,0,1,.161-5.282m1.673,33.858a21.754,21.754,0,0,1-.484-2.431,7.435,7.435,0,0,0-.269-1.251,37.856,37.856,0,0,1-2.068-8.9c-.284-2.307-.482-4.621-.74-6.931a11.265,11.265,0,0,0-.295-1.257,1.23,1.23,0,0,1,.525-1.47,1.559,1.559,0,0,1,1.625.458.409.409,0,0,1,.1.169c.177,1.061.35,2.12.538,3.267-.7-.862-1.339-1.652-1.981-2.44-.034.015-.068.032-.1.047a.836.836,0,0,0,0,.3,13.553,13.553,0,0,1,.622,6.961,4.43,4.43,0,0,0,.387,2.511q.164-3.39.329-6.783l.124-.034a7.97,7.97,0,0,1,1.1,2.777c.076.993.222,1.981.369,2.964a.818.818,0,0,1-.326.851,3.133,3.133,0,0,0-.645,4.326,3.761,3.761,0,0,1,.155-2.664,2.737,2.737,0,0,0,.442,2.523c-.068-.43-.118-.746-.168-1.061l.037-.011c.092.269.184.537.269.783q.2-.841.39-1.667c.063,0,.126.01.189.013A56.441,56.441,0,0,0,32.6,77.8a3.386,3.386,0,0,1-1.683-2.042M40.57,93.17c.029,0,.06,0,.089,0l6.23,6.125c.037-.037.076-.074.114-.111l-.4-.474.027-.032q.747.655,1.493,1.312l.037-.039q-.462-.588-.925-1.172l1.088-.878.83.8c-.353.463-.7.089-1.064,0,.408.635.5.648,1.328.177.1.089.221.189.384.326-.493.3-.877.529-1.259.761l.092.164c.419-.226.84-.45,1.336-.716a14.086,14.086,0,0,0,7.684,3.561c-.213.327-.369.567-.525.809l.071.1c.488-.355.788-1.246,1.66-.611l-.779,1.041a1.382,1.382,0,0,0,.917-.845.538.538,0,0,1,.414-.256c1.423,0,2.855.121,4.268,0a25.5,25.5,0,0,0,3.8-.737c.6-.143,1.144-.6,1.812-.245l.063-.055c-.14-.11-.276-.216-.448-.353l1.349-.882,0,0c.614.414,1.183.193,1.837-.2l-.232.417c.64-.137.8-.3.685-.666l.579-.259c-.011-.027-.024-.055-.037-.082-.414.055-.83.11-1.257.164.01-.166.013-.255.021-.392l-.667.334c.608-.767,1.183-1.491,1.821-2.3l.076.356a6.575,6.575,0,0,0,2.9-1.27l-.392.1-.024-.063,1.928-1.394-.1-.129a5.332,5.332,0,0,0-2.237,1.684,1.335,1.335,0,0,1-1.465.5c.045-.169.089-.337.164-.63-.221.263-.356.424-.493.585a7.671,7.671,0,0,1,.717-1.488.309.309,0,0,1,.21-.1c.6-.081.74-.561.9-1.025-.232.176-.387.43-.606.608a3.118,3.118,0,0,1-.688.326c.271-.635.532-1.248.793-1.862l-.126-.056q-.459.919-.917,1.834c-.021-.008-.04-.019-.061-.027l.856-1.974-.09-.039q-.542,1.023-1.08,2.044c-.1-.129-.169-.229-.276-.371a13.081,13.081,0,0,1-3.312,3.933l-.6-1.433-.168.069c.15.4.324.788.437,1.2a.572.572,0,0,1-.1.5,7,7,0,0,1-2.6,1.4c-.329.074-.509.2-.513.538,0,.018-.045.035-.077.061-.039-.135-.076-.268-.108-.376-.366.047-.691.1-1.02.127-.99.069-1.981.11-2.969.193a11.2,11.2,0,0,0-1.217.237c-.087-.11-.23-.293-.4-.506-.269.559-.687.316-1.12.282.1-.292.193-.538.269-.79.071-.232.124-.469.187-.706-.558.68-.5,1.841-1.718,1.852l.426-.377-2.189-.274-.015.147-.442-.479c-.189.023-.384.045-.633.073.092-.329.163-.575.232-.82a1.159,1.159,0,0,0-.372.392c-.064.085-.171.224-.234.213-.413-.081-.817-.193-1.223-.3l.409-.648-.1-.066c-.152.142-.3.282-.466.43l-.537-.285.572-.948-.09-.044-1.228,1.141c.211-.853-.627-.758-.841-1.188.06-.171.124-.35.23-.645a1.741,1.741,0,0,1-1.546.166c-.023-.015,0-.092,0-.139.089-.008.177-.014.266-.021.016-.034.034-.069.052-.1l-1.112-.848c-.268-.49-1.009-.756-.582-1.573l-.158.042c-.087.122-.172.245-.256.364l-.376-.279-.063.071,1.2,1.412c-.274-.235-.543-.475-.824-.7a4.2,4.2,0,0,0-.427-.276c-.04.052-.081.1-.119.156L48.834,97.9l-.066.071-.538-.44-1.051,1.188c-.521-.517-1.041-1.035-1.543-1.531.227-.359.416-.658.6-.957l-.113-.085-.695.788c-.627-.729-1.265-1.426-1.855-2.163q-1.871-2.336-3.694-4.713c-.1-.124-.061-.368-.05-.553a1.024,1.024,0,0,1,.1-.308l-1.054.268-.039-.077.342-.269c-.311-.485-.619-.969-.951-1.486l-.4.324c.546-.754-.258-1.1-.492-1.612-.055-.119-.2-.2-.3-.3l-.164.052c.1-.318.21-.633.324-.975-.126.05-.261.108-.434.181-.368-.737-.737-1.476-1.13-2.261L35.1,83.4a.774.774,0,0,0,.066-1.267c-.081.106-.166.219-.251.33.432-.735-.039-1.343-.295-1.955a29.037,29.037,0,0,1-2.039-9.147c-.19-2.6-.324-5.2-.516-7.8-.131-1.771-.39-3.535-.461-5.306a38.167,38.167,0,0,1,.617-7.985,27.445,27.445,0,0,0,.334-4.068A7.415,7.415,0,0,1,33.6,42.178c.031-.047.042-.11-.024-.216l-.914,1.31-.093-.047q.532-1.081,1.064-2.157c-.021-.015-.042-.032-.063-.048q-.51.638-1.019,1.272l-.1-.05q.546-1.124,1.093-2.25c-.024-.023-.05-.045-.074-.069q-.539.607-1.082,1.214L32.3,41.1,33.4,38.864c-.026-.024-.053-.05-.081-.077-.395.443-.791.882-1.186,1.322l-.081-.027q.682-1.274,1.367-2.548l-.026-.061L31.714,39.03,31.653,39c.749-1.144,1.5-2.286,2.229-3.4-.733.224-1.691,1.372-2.73,3.354a7.052,7.052,0,0,1,1.293-2.967c.635-.82,1.373-1.563,2.07-2.345-.392.2-.814.4-1.235.612l-.042-.053L34.8,32.707l-.063-.11q-.75.416-1.5.835c-.034-.032-.066-.066-.1-.1q.817-.8,1.636-1.589c-.01-.024-.018-.048-.026-.073-.525.279-1.051.554-1.575.835-.018-.019-.035-.039-.052-.06.595-.513,1.191-1.025,1.883-1.618a5.838,5.838,0,0,0-2.221,1.264c-.034-.035-.066-.073-.1-.111q1.277-1.148,2.55-2.3c-1.378.16-2.956,1.222-4.8,3.2a10.794,10.794,0,0,1,5.118-4.291c-.274-.039-.55-.074-.982-.132.6-.221,1.075-.4,1.634-.6-.313-.092-.558-.164-.9-.266.427-.127.777-.234,1.161-.35-.09-.082-.152-.14-.326-.3.822.161,1.1-.335,1.418-.812a18.424,18.424,0,0,1,4.215-4.405c.077-.06.161-.11.3-.2-.245.825-.471,1.589-.7,2.353a.409.409,0,0,1,.047.006q.691-1.284,1.381-2.568c.035.019.069.04.1.06q-.331.953-.664,1.905c2.015-2.631,4.6-2.279,7.3-1.631l-1.073-.569,3.965.674c.016-.068.032-.134.047-.2-.326-.093-.656-.176-.978-.282a10.965,10.965,0,0,1-1.073-.395c-.327-.147-.635-.337-.978-.522l3.643.808c.015-.053.027-.1.04-.158L51.03,20.3l.039-.134,3.029.74c.023-.035.045-.073.068-.11l-1.676-1.325.029-.09,2.813,1.309a6.318,6.318,0,0,0-1.884-1.673A7.243,7.243,0,0,1,56.6,20.744a3.869,3.869,0,0,0-1.742-2.329,5.192,5.192,0,0,1,2.456,2.126c.2-.471.139-.687-.592-2.19l.1-.073c.443.622.885,1.246,1.357,1.908a2.8,2.8,0,0,0-.508-2.374c.609.408.888.848,1.356,2.124.219-.508.2-.706-.064-1.875.24.577.479,1.154.708,1.705.466-.529.308-1.085-.936-3a4.9,4.9,0,0,1,1.581,2.661,3.67,3.67,0,0,0,.8-2.174v2.031a3.7,3.7,0,0,0,.691-2.814,5.358,5.358,0,0,1,.232,2.611c1.056-1.649.727-3.306-.019-4.977a3.345,3.345,0,0,1,.978,2.4,17.888,17.888,0,0,1-.285,2.563A4.284,4.284,0,0,0,64.4,16.924l.16.082q-.484,1.03-.964,2.06A3.952,3.952,0,0,0,65.206,16.7l.143.039c-.218.837-.434,1.673-.666,2.566a5.726,5.726,0,0,0,2.194-2.4l.147.093c-.372.625-.745,1.249-1.143,1.915a13.456,13.456,0,0,0,5.867-2.946,11.528,11.528,0,0,1-5.593,3.409,10.168,10.168,0,0,0,6.67-2.808l.1.15c-.754.575-1.475,1.206-2.274,1.713s-1.662.882-2.618,1.376a16.217,16.217,0,0,0,6.542-.342c-.559.24-1.117.485-1.678.719s-1.135.459-1.694.732a11.793,11.793,0,0,1,3.868-.23l-3.04.5c.008.031.016.061.026.092.542,0,1.082.006,1.623,0a3.283,3.283,0,0,1,2.874,1.385,8.226,8.226,0,0,1,1.526,3.527,4.674,4.674,0,0,0-.306-2.745l.131-.1c.5.572,1.044,1.111,1.489,1.721a16.042,16.042,0,0,1,2.279,4.071c.052.148.269.266.434.337A10.755,10.755,0,0,1,85.9,32.452c-1.167-.727-2.057-1.955-3.54-2.044l3.246,2.848c-.026.024-.05.052-.074.076q-1.511-.972-3.021-1.947c-.039.048-.077.1-.114.147a11.451,11.451,0,0,1,3.111,3.309c-.725-.687-1.449-1.368-2.174-2.055-.047.039-.1.076-.142.113a14.261,14.261,0,0,1,3.541,5.462,8.853,8.853,0,0,0-4.11-4.573,11.106,11.106,0,0,1,2.811,3.71c-.833-.841-1.712-1.726-2.589-2.614-.047.042-.092.082-.137.124l2.64,3.607c-.024.019-.05.035-.074.056l-2.5-2.711-.106.1L84.5,39.016c-.037.023-.073.045-.108.064q-.7-.957-1.4-1.918c-.023.008-.047.013-.069.019.1.258.177.524.292.774a20.072,20.072,0,0,1,1.675,7.186c.084,1.291.071,2.592.211,3.876a15.3,15.3,0,0,0,.582,2.21A21.147,21.147,0,0,1,85.9,61.339c-.018.077-.019.163-.039.324l.3-.28c.1,1.049.206,2.058.318,3.169-.19-.137-.263-.19-.379-.272a1.38,1.38,0,0,0,.021.295c.525,1.559.193,3.156.2,4.737,0,.566-.031,1.13-.052,1.7-.006.189-.027.379-.055.719-.23-.422-.385-.7-.54-.985l-.142.053c.106.263.147.6.335.775a1.093,1.093,0,0,1,.322.985c-.031.427-.044.859-.068,1.4-.142-.247-.23-.4-.318-.553-.044.01-.085.021-.127.032.055.234.11.466.164.7a2.332,2.332,0,0,1,.166.769,33.565,33.565,0,0,1-2.442,8.8,1.14,1.14,0,0,0,0,1.228c-.156-.113-.268-.193-.387-.277A25.329,25.329,0,0,1,79.721,90.3c-1.065,1.314-2.053,2.69-3.1,4.018-.271.342-.658.588-.959.907a1.346,1.346,0,0,0-.253.532c-.1.334-.155.675-.542.828a3.325,3.325,0,0,0-.7.4c1.161-.108,1.273-.382,1.536-1.141.135-.387.55-.677.837-1.011l.124.106-.874.961a2.025,2.025,0,0,0,1.2-1,6.156,6.156,0,0,1,.509-.661q1.083-1.168,2.187-2.315c.147-.152.351-.243.513-.384.342-.293.672-.6,1.006-.9l-.1-.118-.466.293,1.62-2c.087.759.127,1.443.25,2.11.353,1.907.675,3.822,1.138,5.7a7.426,7.426,0,0,0,2.244,3.3,2,2,0,0,1,.637,1.613,20.438,20.438,0,0,1-2.266,8.8c-.039.073-.085.14-.131.21-.006.01-.031.008-.106.024.237-1.2.469-2.379.7-3.556l-.1-.029q-.561,1.717-1.123,3.435l-.042-.011q.237-1.168.475-2.337l-.1-.024q-.307,1.032-.616,2.065c-.037-.008-.076-.015-.113-.024q.319-1.373.64-2.75l-.1-.029c-.174.519-.347,1.038-.522,1.555-.443,1.3-.882,2.606-1.341,3.9a.823.823,0,0,1-.35.395c-1.588.9-3.164,1.826-4.784,2.666a34.021,34.021,0,0,1-3.27,1.386,42.917,42.917,0,0,0,4.584-7.959l-.106-.071c-.1.137-.2.269-.285.409-.875,1.41-1.675,2.871-2.634,4.22a14.918,14.918,0,0,1-7.863,5.67,18.562,18.562,0,0,1-3.432.554,36.386,36.386,0,0,1-7.563.1c-1.52-.142-3.032-.364-4.542-.585a1.17,1.17,0,0,1-.651-.385,14.305,14.305,0,0,1-2.228-3.81,6.665,6.665,0,0,0-.3-.679,13.743,13.743,0,0,0,1.4,3.881c-.21-.309-.429-.613-.622-.93s-.371-.661-.554-.991l-.129.066,1.27,2.431a2.7,2.7,0,0,1-.316-.093,32.679,32.679,0,0,1-6.331-3.844,1.106,1.106,0,0,1-.395-.729c-.185-3.449-.343-6.9-.5-10.353-.023-.529,0-1.061,0-1.7a32.577,32.577,0,0,0,2.9,6.273l-1.655-3.9.082-.037c.6,1.248,1.2,2.5,1.837,3.817-1.609-5.2-3.19-10.3-4.769-15.412m29.691,7.771c.382-.367.783-.645,1.344-.147l-1.344.147M78.4,92.659a6.974,6.974,0,0,1-1.58,1.87l-.1-.089q.839-.89,1.675-1.781M36.173,111.485c.517,5.316,3.156,9.486,7.008,13.006-4.305-3.278-6.855-7.5-7.008-13.006m6.957,5.143c2.64,2.621,5.972,3.994,9.387,5.216-3.523-1.027-6.849-2.41-9.387-5.216M77.468,125.2A36.775,36.775,0,0,1,64.5,129.8a25.972,25.972,0,0,1-14.207-1.738,19.5,19.5,0,0,1-4.618-2.526c-.152-.119-.306-.232-.479-.363,1.269.627,2.477,1.318,3.754,1.839a28.542,28.542,0,0,0,13.193,2.2,35.332,35.332,0,0,0,8.606-1.786c2.276-.775,4.524-1.633,6.784-2.455a1.039,1.039,0,0,1,.5-.092c-.187.108-.374.218-.561.324m9.69-17.633a16.047,16.047,0,0,1-3.569,5.219,21.5,21.5,0,0,1-7.819,5.074c.974-.566,1.945-1.138,2.922-1.7a22.249,22.249,0,0,0,4.233-3.132,15.316,15.316,0,0,0,3.72-5.363,19.157,19.157,0,0,0,1.373-5.738.534.534,0,0,1,.042-.185,11.7,11.7,0,0,1-.9,5.822m34.743,6.062c-3.359,6.422-6.842,12.791-8.2,20.041.975-7.4,4.089-13.921,8.2-20.041m.65,16.028c-1.075,1.9-2.039,3.867-3.009,5.725.076-2.539,3.833-9.139,6.272-11.112-1.007,1.654-2.19,3.49-3.262,5.387" transform="translate(0 0.001)" fill="#1a0029"/>
        <path id="Контур_9" data-name="Контур 9" d="M24.127,8.555a7.023,7.023,0,0,1,5.121.361c-.248-.263-.5-.525-.746-.787-.114-.087-.23-.172-.345-.258a4.843,4.843,0,0,0-4.03.683" transform="translate(14.762 4.696)" fill="#1a0029"/>
        <path id="Контур_10" data-name="Контур 10" d="M50.351,49.056a13.531,13.531,0,0,0-6.6.809,2.591,2.591,0,0,1-1.889,0,16.767,16.767,0,0,0-2.64-.682c-1.165-.148-2.352-.124-3.528-.182a17.986,17.986,0,0,1-6.07-1.231c-.617-.258-1.2-.6-1.8-.9a10.175,10.175,0,0,0,.708,1.007c.683.959,1.317,1.955,2.039,2.882a18.059,18.059,0,0,0,4.415,4.275,9.879,9.879,0,0,0,1.826,1,14.027,14.027,0,0,0,4.732.87c2.039.018,4.083-.061,6.12-.187a6.666,6.666,0,0,0,3.54-1.064,8.426,8.426,0,0,0,2.788-3.385,13.215,13.215,0,0,1,2.1-3.767c-.079-.011-.114-.027-.14-.016a11.958,11.958,0,0,1-5.595.571m-17.856.534c.54-.4.733-.372,1.291.264.627-.235.775-.179,1.149.435,1.214-.388,2.289-.187,2.682.5a1.967,1.967,0,0,1,2.353.079c.706,0,1.27-.015,1.834,0,.638.023,1.275.1,1.912.1.2,0,.38-.263.588-.3.932-.156,1.87-.287,2.808-.39a1.181,1.181,0,0,1,.5.15,14.56,14.56,0,0,1,1.607-.266c.135-.006.29.295.427.443.527-.817,1.275-.972,1.863-.326a3.052,3.052,0,0,1,.635-.44.706.706,0,0,1,.592.039.684.684,0,0,1,.111.567,3.335,3.335,0,0,1-.311.833c-.3.595-.49.659-.965.471-.348.247-.619.583-.911.6s-.6-.276-.9-.437c.011-.047.024-.093.035-.14-.182.172-.364.343-.583.553l.811.268.018.2c-1.175.321-2.334.743-3.53.946a20.009,20.009,0,0,1-5.59.33c-.6-.066-1.283.114-1.783-.438-.064-.073-.255-.029-.385-.039a2.818,2.818,0,0,1-1.651-.716c-.01-.06-.021-.124-.032-.185.322-.113.643-.224.935-.327-.137-.127-.321-.3-.5-.466a1.332,1.332,0,0,1-2.321.127c-.8.3-1.14.087-1.425-.875-.588.184-.864.034-1.157-.574a.912.912,0,0,0-.417-.376c-.446-.2-.572-.551-.546-1.178.342.226.59.388.859.564m17.264,5.385A14.927,14.927,0,0,1,43.1,56.148a18.817,18.817,0,0,1-5.063-.724A11.118,11.118,0,0,1,31.7,50.887a3.037,3.037,0,0,1-.406-.766c.458.427.92.849,1.373,1.281a11.774,11.774,0,0,0,6.1,3.048,21.41,21.41,0,0,0,14.105-2.6c.256-.15.495-.322.841-.553a7.8,7.8,0,0,1-3.951,3.672" transform="translate(17.02 28.677)" fill="#1a0029"/>
        <path id="Контур_11" data-name="Контур 11" d="M23.54,36.038l-.092-.1L24.937,34.3a.514.514,0,0,0-.026-.052q-.626.4-1.251.8c-.029-.037-.056-.076-.085-.113L25.8,33.146l-.021-.048-1.4.658-.052-.1,2.44-1.286-.034-.079c-.645.232-1.289.464-2.055.738a10.148,10.148,0,0,1,4.039-1.317c-.006-.052-.015-.1-.023-.156l-3.1.384a9.4,9.4,0,0,1,3.885-.824c-.006-.053-.011-.1-.018-.158l-3.565.255a11.741,11.741,0,0,1,4.265-.482,20.966,20.966,0,0,1,4.473.7,10.556,10.556,0,0,0,1.663.313c.326.052.658.069.988.1v-.056l-2.408-.735.029-.1q1.922.459,3.844.917l.037-.126-2.531-.909.039-.11,2.624.841.053-.09-2.4-1.31c.015-.032.027-.064.04-.1l2.548,1.069.066-.058q-.665-.834-1.33-1.667l.131-.1c.529.64,1.057,1.278,1.636,1.979.276-.812-.3-1.381-.509-2.057.261.379.522.756.785,1.135.034-.029.068-.058.1-.085a5.388,5.388,0,0,0-2.627-2.908c.018.156.026.227.034.287l-2.113-.982c.076.187.1.251.135.332-2.311-.6-5.116-.6-6.267.021.15-.015.229-.018.306-.027a15.331,15.331,0,0,1,5.253.093,8.922,8.922,0,0,1,1.52.638c-.019.05-.039.1-.06.15a9.917,9.917,0,0,0-6.608-.466,3.838,3.838,0,0,0,.622.027c1.227-.026,2.452-.076,3.677-.074a4.7,4.7,0,0,1,2.355,1.217c-.978-.35-2.02-.722-3.059-1.1-.013.035-.024.073-.037.108l3.5,1.622A3.311,3.311,0,0,1,35.591,29a8.406,8.406,0,0,0-4.173-.672,8.123,8.123,0,0,0-1.605.49c-1.062.417-2.113.861-3.159,1.317a7.052,7.052,0,0,0-.841.511l-.066-.1a10.181,10.181,0,0,1,1.478-.938c1.236-.522,2.506-.961,3.762-1.435.179-.068.353-.147.529-.221l0,0h2.173c-2.6-.887-5.063-.185-7.551.529q1.339-.6,2.676-1.2a9.613,9.613,0,0,0-6.431,3.253c.508-.332.974-.733,1.491-1.054s1.057-.537,1.588-.8c.029.045.056.092.085.137-1.285.825-2.687,1.526-3.332,3.127.608-.6,1.162-1.14,1.717-1.681.023.023.045.047.068.071l-1.067,1.193.069.063q.67-.515,1.339-1.028c-1.746,2-1.852,2.149-1.841,2.663.284-.406.577-.824.869-1.243l.148.073a4.466,4.466,0,0,0-.809,3.814c.053-.174.106-.35.161-.525l.04.013q-.087.571-.171,1.144l.082.021c.082-.172.163-.347.245-.519l.044.01c-.053.289-.106.575-.156.849C24,36.6,24.28,35.594,25,35.034l-.1-.11q-.682.556-1.365,1.114m12.824-7.825c1.1.237,2.606.862,2.859,1.883a7.549,7.549,0,0,0-2.859-1.883m-2.018,2.311-1.415-.369.024-.1q.713.169,1.428.335c-.013.047-.024.092-.037.139m1.731-.493-.024.111-2.062-.39c.015-.053.027-.106.04-.16q1.023.22,2.045.438m-1.928-1.156c-1.2.064-2.666.142-3.88.208a7.85,7.85,0,0,1,3.88-.208m-2.521,1.032-4.357.527a11.64,11.64,0,0,1,4.357-.527m-.514-2.066c.116-.031.263.064.4.1a13.235,13.235,0,0,0-2.113.432c-1.3.485-2.555,1.085-3.875,1.576a11.7,11.7,0,0,1,1.947-1.122c1.185-.416,2.423-.682,3.644-.991m-4.415.79.056.1L24.768,29.86c-.021-.034-.04-.068-.06-.1L26.7,28.63m-1.66,2.434c.031.031.06.063.09.093q-.522.5-1.046.994l-.1-.1q.527-.5,1.053-.99" transform="translate(13.594 16.254)" fill="#1a0029"/>
        <path id="Контур_12" data-name="Контур 12" d="M42.741,30.98c.019.031.039.063.06.1q-.924.643-1.844,1.288l.063.137q2.309-.928,4.618-1.86l.024.04L42.8,32.155l.039.1q2.336-.766,4.674-1.531l.013.023-1.586.785A18.235,18.235,0,0,1,51.4,30.7l-1.161.448c.835-.044,1.649-.181,2.469-.227.837-.05,1.68-.011,2.585-.011-.44-.255-.864-.5-1.289-.746.026-.039.052-.079.076-.119q1.11.687,2.219,1.372c-1.385-.548-2.709-.082-4.033.044a4.636,4.636,0,0,0,.79.044,6.028,6.028,0,0,1,2.969.406,6.429,6.429,0,0,0-3.22-.026,12.018,12.018,0,0,1,3.768.774A4.791,4.791,0,0,0,54,32.482a7.783,7.783,0,0,1,2.869.957l-1.5-.4-.044.126.975.511-.018.044-.419-.081,2.329,2.589a7.525,7.525,0,0,0-.569-2.826l.459.764.129-.055-.961-2.468.4.606a.261.261,0,0,0,.019-.23c-.4-1.375-1.707-2.107-2.356-3.307a1.307,1.307,0,0,0-.492-.413c-.648-.39-1.307-.764-1.96-1.144l-.061.113,1.905,1.591-.082.1L52.575,27.6c-.016.027-.032.055-.047.082q1.55,1.347,3.1,2.69c-.031.039-.063.076-.1.113a9.015,9.015,0,0,0-2.152-1.654,14.5,14.5,0,0,0-3.135-1.307,2.992,2.992,0,0,0-.488-.218,6.793,6.793,0,0,0-3.918.163c-.216.073-.421.177-.717.3.153.04.185.061.214.055.113-.024.224-.053.335-.085a8.792,8.792,0,0,1,3.888-.29c.227.035.458.048.687.071l-.78.124c.519.177,1.04.268,1.549.4,1.148.295,1.146.3,1.343.567a9.29,9.29,0,0,0-1.907-.218c-1.259.1-2.508.329-3.757.532a10.973,10.973,0,0,0-1.194.334c-.015-.055-.029-.108-.042-.163l4.491-1.164a14.106,14.106,0,0,0-5.416,1.091c-.016-.047-.031-.093-.047-.139l2.421-1.1a6.432,6.432,0,0,0-1.223.193A13.113,13.113,0,0,0,42.2,29.554q1.032-.941,2.068-1.878c-.031-.037-.06-.076-.09-.113l-2.007,1.36-.055-.064q.882-.788,1.767-1.58a6.566,6.566,0,0,0-2.827,2.266l1.085-1.688c-.039-.026-.077-.053-.116-.081l-1.349,1.734c.106-.277.19-.5.318-.824a3.668,3.668,0,0,0-.727,3.66l2.476-1.368m8.49-2.266c.725.181,1.449.358,2.173.537-.01.04-.019.079-.031.119l-2.166-.561.024-.1m1.607,1.036-4.31.142a10.429,10.429,0,0,1,4.31-.142m-3.15-.711c-.912.16-1.944.338-3.072.537a6.678,6.678,0,0,1,3.072-.537M44.15,28.7l.06.092L42.6,29.832l-.084-.116L44.15,28.7" transform="translate(24.498 16.576)" fill="#1a0029"/>
        <path id="Контур_13" data-name="Контур 13" d="M27.232,34.982a7.1,7.1,0,0,0,3.665.451c2.294-.214,4.52-.982,6.857-.867a.576.576,0,0,0,.472-.266c.047-.14-.1-.358-.193-.522a.73.73,0,0,0-.264-.221,10.6,10.6,0,0,0-7.642-1.5,8.1,8.1,0,0,0-5.682,3.562l1.017-.764c.021.027.042.055.064.082q-.4.426-.808.853c.018.026.035.053.053.081l1.04-.624c.013.018.027.035.04.055-.261.3-.522.6-.785.906l.063.074,1.493-.809v.459l.525-.258c.063.21.111.371.172.572l.38-.277.247.314.575-.324c-.019.214-.029.324-.044.482l.6-.35c.018.116.029.2.045.3l.355-.148c-.006.129-.011.218-.021.372.274-.184.487-.327.7-.474l.134.219c.156-.1.306-.187.472-.289l.25.455.306-.395c.1.176.193.327.318.534.124-.245.177-.351.24-.479l.235.406c.089-.24.16-.432.187-.5l.748-.177c.011.006.1.066.219.143.052-.166.087-.285.132-.434l.411.168c.185-.582.833-.337,1.117-.741a7.005,7.005,0,0,0-1.086.179c-.4.093-.783.242-1.185.3-.65.089-1.306.121-1.96.179a6.59,6.59,0,0,1-3.28-.364,3.206,3.206,0,0,1-.459-.3c.126-.09.2-.09.269-.061m6.178-2.223c.654.168,1.27.338,1.891.477.561.126,1.13.213,1.694.329a3.934,3.934,0,0,1,.508.174l-.015.208c-.687.068-1.38.1-2.06.211s-1.362.279-2.018.419ZM30.175,34a1.427,1.427,0,0,0,1.5.073,2.352,2.352,0,0,1,.7-.1,1.9,1.9,0,0,1-2.642.358L30.175,34m-2.037-.437c.2.443.377.838.556,1.233l-.081.116-1.486-.6,1.011-.748" transform="translate(14.956 19.501)" fill="#1a0029"/>
        <path id="Контур_14" data-name="Контур 14" d="M41.144,34.686c.677.158,1.37.243,2.06.35,2.684.419,5.367,1.019,8.054-.01-2.12,1.472-4.42.75-6.689.5a4.924,4.924,0,0,0,3.573.891l.695.2a9.76,9.76,0,0,1,1.207-.406c.327-.066.685.027,1.015-.031a.989.989,0,0,0,.643-.335c.227-.393.45-.3.766-.164.595.263,1.207.488,1.81.73.023-.05.045-.1.066-.153l-1.12-.558,1.409.193c-1.239-.912-2.485-1.744-3.743-2.561a8.8,8.8,0,0,0-9.984.235.595.595,0,0,0,.237,1.114m8.7-.658a.485.485,0,0,1,.416-.068,9.845,9.845,0,0,1,.924.459c0,.052,0,.1,0,.156-.708.116-1.417.23-2.182.355.311-.338.561-.64.846-.9m-3.436-.355a2,2,0,0,0,1.623.3c-.081.037-.161.076-.337.16l.551.129a1.565,1.565,0,0,1-2.4-.6c.23,0,.45-.069.564.011m-4.4.018c.482-.1.969-.185,1.449-.3.382-.09.756-.213,1.111-.316.234.572.445,1.086.7,1.7-.677-.168-1.3-.3-1.91-.484a2.11,2.11,0,0,0-1.256-.06,2.187,2.187,0,0,1-.893-.09.516.516,0,0,1-.031-.245c.274-.081.553-.15.833-.21" transform="translate(24.844 19.517)" fill="#1a0029"/>
        <path id="Контур_15" data-name="Контур 15" d="M33.775,44.44a.514.514,0,0,1-.446-.142,3.1,3.1,0,0,1-.927-2.292c.018-.466.114-.927.176-1.391l-.113-.048a10.138,10.138,0,0,0-.582,1.335,3.141,3.141,0,0,0,.687,2.932,2.117,2.117,0,0,0,2.2.543,3.811,3.811,0,0,1,3.091,1.057c1.164.98,2.213,1.381,3.778.488.548-.313,1.091-.632,1.62-.972a3.8,3.8,0,0,1,2.951-.543,2.08,2.08,0,0,0,2.563-1.285,2.986,2.986,0,0,0-.743-3.183c.064.166.134.332.192.5a2.871,2.871,0,0,1-.276,2.577.872.872,0,0,1-1.056.437,4.365,4.365,0,0,0-3.262.517c-.614.329-1.233.648-1.847.98a3.473,3.473,0,0,1-3.884-.338c-.45-.311-.891-.64-1.368-.907a2.79,2.79,0,0,0-2.753-.264" transform="translate(19.433 24.82)" fill="#1a0029"/>
        <path id="Контур_16" data-name="Контур 16" d="M48.466,30.889a6.986,6.986,0,0,1,5.047,3.125,20.906,20.906,0,0,0,1.517,1.831c.034-.027.068-.053.1-.079-1.723-3.781-3.818-5.57-8.789-5.461-3.249.073-5.9,2.384-6.365,3.941a1.969,1.969,0,0,0,.168-.147,8.627,8.627,0,0,1,8.322-3.211" transform="translate(24.459 18.539)" fill="#1a0029"/>
        <path id="Контур_17" data-name="Контур 17" d="M47.257,37.286c1.006-.1,2.008-.253,3-.427a11.441,11.441,0,0,1,4.2-.161c.016-.082.034-.164.052-.247a6.6,6.6,0,0,0-1.473-.43,8.931,8.931,0,0,0-2.026.158,15.8,15.8,0,0,1-7.822-.455c-.321-.106-.63-.255-.945-.384l-.034.063.517.419-.683-.284c-.023.037-.044.074-.064.111a8.279,8.279,0,0,0,1.214.857,7.57,7.57,0,0,0,4.059.779" transform="translate(25.688 21.623)" fill="#1a0029"/>
        <path id="Контур_18" data-name="Контур 18" d="M37.277,34.967l-.063-.11-1.117.575c-.015-.029-.027-.056-.04-.085l.659-.417-.044-.092-1.314.614c.14-.168.208-.251.345-.416-.693.269-1.288.506-1.886.73a11.324,11.324,0,0,1-4.6,1.14c-.97-.056-1.928-.3-2.895-.435a3.622,3.622,0,0,0-2.16.172c1.185.214,2.427.448,3.675.662a10.58,10.58,0,0,0,1.33.161,11.942,11.942,0,0,0,7.06-1.842l1.049-.658" transform="translate(14.784 21.315)" fill="#1a0029"/>
        <path id="Контур_19" data-name="Контур 19" d="M29.377,60.387c-.261-.735-.941-1.289-.393-2.073-.135.108-.272.213-.458.359A93.016,93.016,0,0,1,24.21,46.938a.266.266,0,0,0-.068.2c.377,1.883.758,3.765,1.143,5.669-.2.179-.469.434-.743.688.037.045.074.09.113.135.258-.2.517-.4.737-.577l2.842,6.025-.34.282c.949-.2.953.648,1.484,1.025" transform="translate(14.769 28.718)" fill="#1a0029"/>
        <path id="Контур_20" data-name="Контур 20" d="M24.337,34.936a7.961,7.961,0,0,1,5.629-3.828,20.17,20.17,0,0,1,3.475-.145,4.807,4.807,0,0,1,1.767.438,17.122,17.122,0,0,1,4.383,2.708c.031-.032.06-.064.089-.1a3.168,3.168,0,0,0-.577-.664c-1.167-.758-2.339-1.512-3.548-2.2a7.608,7.608,0,0,0-1.762-.656,8.624,8.624,0,0,0-3.411.1,7.433,7.433,0,0,0-6.346,4.555,1.211,1.211,0,0,0,.185-.052c.04-.053.081-.106.116-.163" transform="translate(14.706 18.569)" fill="#1a0029"/>
        <path id="Контур_21" data-name="Контур 21" d="M32.1,42.813a.772.772,0,0,0-.484.158c-1.152.783-2.294,1.584-3.456,2.352a4.718,4.718,0,0,0-2.1,5.722c.535,1.986,2.07,3.4,2.788,5.263l.163-.058a6.367,6.367,0,0,0-.3-.853A9.13,9.13,0,0,0,27.5,53.24c-.585-.625-.522-1.425-.877-2.1a4.218,4.218,0,0,1-.282-2.126,4.8,4.8,0,0,1,2.2-3.669c1.025-.733,2.066-1.443,3.1-2.166.16-.113.306-.242.459-.364" transform="translate(15.788 26.194)" fill="#1a0029"/>
        <path id="Контур_22" data-name="Контур 22" d="M48.853,52.3c-.071.532-.214,1.053-.324,1.58l.079.027a1.063,1.063,0,0,0,.129-.193c1.323-3.237.8-5.614-1.351-8.175A31.909,31.909,0,0,0,45.01,43.2c-.181-.174-.377-.33-.567-.5.737.975,1.559,1.858,2.345,2.771A8.328,8.328,0,0,1,48.853,52.3" transform="translate(27.191 26.125)" fill="#1a0029"/>
        <path id="Контур_23" data-name="Контур 23" d="M49.865,55.249a1.756,1.756,0,0,1,.044-1c.335-1.262.664-2.527.949-3.8.14-.629.177-1.278.263-1.918-.127.045-.147.1-.163.166-.6,2.34-1.2,4.681-1.807,7.02-.1.4-.266.777-.372,1.172-.024.093.073.218.147.416l.566-1.812.14.016c.058.268.114.535.172.8a2.2,2.2,0,0,0,.061-1.056" transform="translate(29.842 29.689)" fill="#1a0029"/>
        <path id="Контур_24" data-name="Контур 24" d="M38.729,54.9c-.266-.2-.356-.633-.575-1.054-.2,1.14-.524,2.157.09,3.125l.216-1.6c.156.134.184.309.285.392.448.363.135.651-.066.954-.047.069-.126.123-.152.2-.1.292-.2.592-.292.888l.143.06c.25-.363.5-.725.766-1.117.056.38.1.711.169,1.154.15-.475.261-.832.374-1.186l.006.01v0h0c-.487-.513-.329-1.349-.964-1.82" transform="translate(23.18 32.947)" fill="#1a0029"/>
        <path id="Контур_25" data-name="Контур 25" d="M42.058,37.6c-.338-.313-.661-.572-.936-.875a8.955,8.955,0,0,1-.79-1.019,3,3,0,0,1,.118-3.864c.121-.158.229-.324.343-.485-.039-.037-.076-.073-.114-.108a9.969,9.969,0,0,0-1.025,1.181c-1.088,1.717.234,4.581,2.4,5.169" transform="translate(24.023 19.119)" fill="#1a0029"/>
        <path id="Контур_26" data-name="Контур 26" d="M24.544,54.327a46.29,46.29,0,0,1-2.231-9.212,20.54,20.54,0,0,0,2.231,9.212" transform="translate(13.652 27.603)" fill="#1a0029"/>
        <path id="Контур_27" data-name="Контур 27" d="M34.621,31.863c.967,1.952.321,3.635-.753,5.267,1.907-1.389,2.34-4.394.753-5.267" transform="translate(20.721 19.495)" fill="#1a0029"/>
        <path id="Контур_28" data-name="Контур 28" d="M38.092,54.084c-.1.643-.211,1.3-.318,1.955L37.7,56.01c-.026-.569-.052-1.14-.076-1.709l-.1,0a10.344,10.344,0,0,1-.374,1.009,9.9,9.9,0,0,1-.559.9l.108.081q.37-.423.743-.846l.063.032c-.2.516-.388,1.033-.6,1.586l.459-.269c-.06.224-.1.387-.172.643.9-1.03,1.3-2.618.9-3.354" transform="translate(22.385 33.09)" fill="#1a0029"/>
        <path id="Контур_29" data-name="Контур 29" d="M40.247,56.508c-.448-.7-.919-1.385-1.444-2.163.124.785.227,1.43.33,2.076.414.424-.163.854.01,1.344a1.725,1.725,0,0,0,.248-1.934,5.449,5.449,0,0,1,.5.814c.068.111.219.174.332.258.011-.134.084-.3.026-.395" transform="translate(23.741 33.25)" fill="#1a0029"/>
        <path id="Контур_30" data-name="Контур 30" d="M32.753,26.616a7.9,7.9,0,0,0-6.8.574,11.314,11.314,0,0,1,6.8-.574" transform="translate(15.879 15.97)" fill="#1a0029"/>
        <path id="Контур_31" data-name="Контур 31" d="M51.014,50.4c0-.023.008-.047.011-.069,0,.021-.011.042-.018.064Z" transform="translate(31.208 30.794)" fill="#1a0029"/>
        <path id="Контур_32" data-name="Контур 32" d="M51.588,51.016a24.187,24.187,0,0,0,.5-5.019c-.2,1.275-.338,2.555-.525,3.828-.155,1.054-.356,2.1-.54,3.154.193-.654.406-1.3.569-1.963" transform="translate(31.215 28.143)" fill="#1a0029"/>
        <path id="Контур_33" data-name="Контур 33" d="M43.293,26.888a16.661,16.661,0,0,1,5.909.161,8.756,8.756,0,0,0-5.909-.161" transform="translate(26.488 16.184)" fill="#1a0029"/>
        <path id="Контур_34" data-name="Контур 34" d="M43.5,27.3c.969-.073,1.936-.2,2.9-.2s1.929.1,2.895.158a9.054,9.054,0,0,0-5.8.047" transform="translate(26.617 16.398)" fill="#1a0029"/>
        <path id="Контур_35" data-name="Контур 35" d="M22.346,50.948l-.935-5.153a11.194,11.194,0,0,0,.935,5.153" transform="translate(13.095 28.019)" fill="#1a0029"/>
        <path id="Контур_36" data-name="Контур 36" d="M27.357,57.8c.264-.88.514-1.709.762-2.537l-.211-.068c-.087.279-.179.556-.264.835a4.24,4.24,0,0,1-.39,1.2c-.314.446-.176.712.134,1.036l1.038-1.493-.143-.1c-.546.137-.6.72-.925,1.123" transform="translate(16.566 33.771)" fill="#1a0029"/>
        <path id="Контур_37" data-name="Контур 37" d="M48.131,26.383a7.49,7.49,0,0,0-5.548.611,13.77,13.77,0,0,1,5.548-.611" transform="translate(26.053 15.973)" fill="#1a0029"/>
        <path id="Контур_38" data-name="Контур 38" d="M36.065,26.847l-.147-.047-1.17,3.533.248.079a18.465,18.465,0,0,0,1.069-3.565" transform="translate(21.26 16.397)" fill="#1a0029"/>
        <path id="Контур_39" data-name="Контур 39" d="M38.5,26.537c-.256.854-.135,3.2.324,3.594-.11-1.219-.218-2.406-.324-3.594" transform="translate(23.473 16.236)" fill="#1a0029"/>
        <path id="Контур_40" data-name="Контур 40" d="M40.854,56.533q-.89-1.243-1.781-2.485l-.163.116c.609.819.911,1.876,1.944,2.369" transform="translate(23.806 33.068)" fill="#1a0029"/>
        <path id="Контур_41" data-name="Контур 41" d="M39.534,54.381A1.845,1.845,0,0,0,40.8,56c-.068-.261-.06-.553-.2-.708a11.1,11.1,0,0,0-1.064-.914" transform="translate(24.187 33.272)" fill="#1a0029"/>
        <path id="Контур_42" data-name="Контур 42" d="M37.519,54.548l-.113-.063-1.543,1.97a2.864,2.864,0,0,0,1.655-1.907" transform="translate(21.943 33.336)" fill="#1a0029"/>
        <path id="Контур_43" data-name="Контур 43" d="M45.412,60.218c-.039.077.021.206.035.311l.164.037q.708-1.61,1.418-3.222c-.042-.018-.082-.037-.123-.055-.5.975-1.006,1.949-1.5,2.929" transform="translate(27.776 35.051)" fill="#1a0029"/>
        <path id="Контур_44" data-name="Контур 44" d="M45.526,45.072q.527,1.214,1.053,2.427a3.069,3.069,0,0,0-1.053-2.427" transform="translate(27.854 27.577)" fill="#1a0029"/>
        <path id="Контур_45" data-name="Контур 45" d="M48.09,57.486c-.021-.45-.035-.762-.052-1.075H47.9l-.16,1.783a1.754,1.754,0,0,0,.793-1.741c-.163.38-.279.654-.44,1.033" transform="translate(29.207 34.514)" fill="#1a0029"/>
        <path id="Контур_46" data-name="Контур 46" d="M47.287,58.478l-.1-.029v-.8l-.113-.008-.247,2.1.134.048q.341-.771.68-1.541c-.042-.023-.085-.044-.129-.066-.074.1-.15.2-.226.3" transform="translate(28.651 35.264)" fill="#1a0029"/>
        <path id="Контур_47" data-name="Контур 47" d="M37.427,56.886l.2.053a4.188,4.188,0,0,0,.343-2.487q-.273,1.219-.545,2.434" transform="translate(22.899 33.316)" fill="#1a0029"/>
        <path id="Контур_48" data-name="Контур 48" d="M36.95,65.925c.034.018.069.034.1.052q.406-.5.814-1c-.031-.031-.061-.06-.092-.089l-.293.155c.089-.242.172-.469.256-.695l-.09-.039c-.308.43-.616.862-.938,1.312L37,65.611c-.016.1-.034.21-.05.314" transform="translate(22.461 39.349)" fill="#1a0029"/>
        <path id="Контур_49" data-name="Контур 49" d="M29.877,58.532l-.132-.052c-.177.345-.356.69-.582,1.128l-.4-.569c-.04.035-.079.071-.118.108l1.02,1.27.119-.09-.4-.612c.052,0,.1.008.153.011l.343-1.194" transform="translate(17.526 35.78)" fill="#1a0029"/>
        <path id="Контур_50" data-name="Контур 50" d="M40.478,54.678l-.611-.719A1.685,1.685,0,0,0,41.3,55.368c-.226-.338-.43-.646-.659-.988l-.168.3" transform="translate(24.392 33.014)" fill="#1a0029"/>
        <path id="Контур_51" data-name="Контур 51" d="M49.723,53.939c.093.654.189,1.306.295,2.041.118-.253.343-.5.3-.7a9.333,9.333,0,0,0-.484-1.373c-.039.008-.076.019-.114.031" transform="translate(30.422 32.983)" fill="#1a0029"/>
        <path id="Контур_52" data-name="Контур 52" d="M39.365,64.5c-.408.758-.8,1.489-1.2,2.221.608-.625,1.269-1.222,1.2-2.221" transform="translate(23.353 39.466)" fill="#1a0029"/>
        <path id="Контур_53" data-name="Контур 53" d="M32.791,62.782q-1.233-.259-2.466-.519l-.044.2,2.455.572Z" transform="translate(18.527 38.095)" fill="#1a0029"/>
        <path id="Контур_54" data-name="Контур 54" d="M33.424,47.569c.3-.516.571-.946.8-1.4a3.427,3.427,0,0,0,.181-.719c-.052-.013-.1-.031-.156-.045-.09.77-.961,1.223-.82,2.165" transform="translate(20.44 27.78)" fill="#1a0029"/>
        <path id="Контур_55" data-name="Контур 55" d="M30.951,47l.4-.253.208.295.45-1.086-.156-.087L30.84,46.877l.111.119" transform="translate(18.869 28.062)" fill="#1a0029"/>
        <path id="Контур_56" data-name="Контур 56" d="M28.826,56.637l-.571,2.139a1.984,1.984,0,0,0,.571-2.139" transform="translate(17.287 34.652)" fill="#1a0029"/>
        <path id="Контур_57" data-name="Контур 57" d="M30.989,62.719a1.377,1.377,0,0,0-.027.142c.682.118,1.281.838,2.068.258-.377-.056-.724-.1-1.064-.164s-.651-.156-.977-.235" transform="translate(18.943 38.374)" fill="#1a0029"/>
        <path id="Контур_58" data-name="Контур 58" d="M41.122,46.853c.279-.732.256-.814-.388-1.285.087.475.166.9.243,1.315.048-.01.1-.019.145-.031" transform="translate(24.922 27.88)" fill="#1a0029"/>
        <path id="Контур_59" data-name="Контур 59" d="M38.582,64.355l-1.151,1.4c.482-.113.849-.722,1.151-1.4" transform="translate(22.901 39.375)" fill="#1a0029"/>
        <path id="Контур_60" data-name="Контур 60" d="M32.879,64.311l1.6-.093,0-.219q-.805.048-1.61.093c0,.074.008.147.013.219" transform="translate(20.108 39.156)" fill="#1a0029"/>
        <path id="Контур_61" data-name="Контур 61" d="M43.032,47.1l.211-.077q-.21-.868-.419-1.738l-.206.055q.208.88.414,1.76" transform="translate(26.075 27.706)" fill="#1a0029"/>
        <path id="Контур_62" data-name="Контур 62" d="M27.284,46.675c.172-.495.181-1.078.827-1.283-.769-.069-.956.3-.827,1.283" transform="translate(16.67 27.768)" fill="#1a0029"/>
        <path id="Контур_63" data-name="Контур 63" d="M41.4,47.66c.174-.448-.2-1.112-.888-1.443.335.545.612,1,.888,1.443" transform="translate(24.789 28.277)" fill="#1a0029"/>
        <path id="Контур_64" data-name="Контур 64" d="M36.355,54.447l-.994,1.109.14.121c.392-.324.833-.606.854-1.23" transform="translate(21.635 33.313)" fill="#1a0029"/>
        <path id="Контур_65" data-name="Контур 65" d="M31.149,61.3a2.2,2.2,0,0,0,1.343-1.233l-1.43,1.141.087.092" transform="translate(19.005 36.753)" fill="#1a0029"/>
        <path id="Контур_66" data-name="Контур 66" d="M32.058,63.4H33.71c0-.044,0-.089,0-.132H32.056c0,.044,0,.089,0,.132" transform="translate(19.613 38.708)" fill="#1a0029"/>
        <path id="Контур_67" data-name="Контур 67" d="M51.847,51.522l.111-1.723c-.069,0-.14-.008-.21-.013q-.053.863-.106,1.723Z" transform="translate(31.596 30.461)" fill="#1a0029"/>
        <path id="Контур_68" data-name="Контур 68" d="M45.761,48.079a4.6,4.6,0,0,0,.2.459A1.347,1.347,0,0,0,45.281,47c.064.285.089.571.137.575.351.029.279.3.343.5" transform="translate(27.704 28.757)" fill="#1a0029"/>
        <path id="Контур_69" data-name="Контур 69" d="M36.918,65.292c-.513.464-.957.869-1.438,1.3a1.735,1.735,0,0,0,1.438-1.3" transform="translate(21.708 39.948)" fill="#1a0029"/>
        <path id="Контур_70" data-name="Контур 70" d="M46.658,60.9c-.261.553-1.133.279-.991,1.067a1.209,1.209,0,0,0,.991-1.067" transform="translate(27.931 37.264)" fill="#1a0029"/>
        <path id="Контур_71" data-name="Контур 71" d="M49.445,56.37l.221.023q.085-.9.169-1.8l-.193-.019Z" transform="translate(30.252 33.39)" fill="#1a0029"/>
        <path id="Контур_72" data-name="Контур 72" d="M47.934,54.412l.759,1.53.185-.092q-.372-.754-.743-1.509l-.2.071" transform="translate(29.327 33.248)" fill="#1a0029"/>
        <path id="Контур_73" data-name="Контур 73" d="M27.214,54.2l.2-.026c-.052-.5-.1-.99-.155-1.488l-.23.016c.06.5.121,1,.181,1.5" transform="translate(16.54 32.238)" fill="#1a0029"/>
        <path id="Контур_74" data-name="Контур 74" d="M43.257,54.454l-1.642-.388a1.243,1.243,0,0,0,1.642.388" transform="translate(25.461 33.079)" fill="#1a0029"/>
        <path id="Контур_75" data-name="Контур 75" d="M51.014,50.375l-.006,0,0,.013,0-.008" transform="translate(31.208 30.818)" fill="#1a0029"/>
        <path id="Контур_76" data-name="Контур 76" d="M51.348,51.935a1.108,1.108,0,0,0,.056-.614,9.188,9.188,0,0,0-.366-.943c-.266.595.271,1.02.309,1.557" transform="translate(31.182 30.823)" fill="#1a0029"/>
        <path id="Контур_77" data-name="Контур 77" d="M39.7,63.5l.187.071q.283-.752.566-1.507l-.213-.079Z" transform="translate(24.288 37.924)" fill="#1a0029"/>
        <path id="Контур_78" data-name="Контур 78" d="M44.866,45.837l-.2.061.445,1.543.2-.063q-.225-.771-.451-1.541" transform="translate(27.331 28.045)" fill="#1a0029"/>
        <path id="Контур_79" data-name="Контур 79" d="M47.275,49.174c-.474.206-.888.44-.54,1.161l.54-1.161" transform="translate(28.515 30.086)" fill="#1a0029"/>
        <path id="Контур_80" data-name="Контур 80" d="M45.014,59.892l.081-.035c.061-.33.124-.662.184-.98l-.595.147c.1.276.216.572.33.869" transform="translate(27.339 36.023)" fill="#1a0029"/>
        <path id="Контур_81" data-name="Контур 81" d="M50.2,55l.189.032.232-1.36c-.069-.011-.14-.023-.21-.035-.071.455-.14.909-.211,1.364" transform="translate(30.711 32.819)" fill="#1a0029"/>
        <path id="Контур_82" data-name="Контур 82" d="M44.5,63.029l-1.5.145.018.221,1.5-.163c-.006-.068-.015-.135-.021-.2" transform="translate(26.307 38.563)" fill="#1a0029"/>
        <path id="Контур_83" data-name="Контур 83" d="M46.8,46.807v1.5c.4-.259.419-.817,0-1.5" transform="translate(28.631 28.638)" fill="#1a0029"/>
        <path id="Контур_84" data-name="Контур 84" d="M42.951,64.124q-.6-.031-1.2-.061l-.01.2,1.21.084c0-.074,0-.147,0-.221" transform="translate(25.536 39.196)" fill="#1a0029"/>
        <path id="Контур_85" data-name="Контур 85" d="M34.132,62.505c.061.045.121.09.182.134l.824-1.414c-.052-.032-.1-.063-.156-.093q-.423.687-.849,1.373" transform="translate(20.883 37.403)" fill="#1a0029"/>
        <path id="Контур_86" data-name="Контур 86" d="M45.538,45.528a.8.8,0,0,0,.1,1.309c-.031-.416-.063-.838-.1-1.309" transform="translate(27.682 27.856)" fill="#1a0029"/>
        <path id="Контур_87" data-name="Контур 87" d="M39.835,64.666l-.177-.082L39.029,65.9l.189.089q.307-.662.617-1.323" transform="translate(23.879 39.515)" fill="#1a0029"/>
        <path id="Контур_88" data-name="Контур 88" d="M43.342,47.275c-.042.226-.064.455-.1.683.5-1.181.5-1.181.258-1.414-.053.237-.118.482-.163.73" transform="translate(26.46 28.478)" fill="#1a0029"/>
        <path id="Контур_89" data-name="Контур 89" d="M35.844,63.928l-1.294.738a1.25,1.25,0,0,0,1.294-.738" transform="translate(21.139 39.113)" fill="#1a0029"/>
        <path id="Контур_90" data-name="Контур 90" d="M32.332,61.744c.05.047.1.092.152.139l.951-1.049-.145-.134-.957,1.044" transform="translate(19.782 37.138)" fill="#1a0029"/>
        <path id="Контур_91" data-name="Контур 91" d="M34.475,53.977l-1.177.614.087.181q.595-.3,1.19-.6c-.032-.066-.066-.131-.1-.2" transform="translate(20.373 33.025)" fill="#1a0029"/>
        <path id="Контур_92" data-name="Контур 92" d="M35.522,64.76l-.034-.2-1.409.234c.016.073.032.145.047.216Z" transform="translate(20.85 39.502)" fill="#1a0029"/>
        <path id="Контур_93" data-name="Контур 93" d="M35.787,54.434c-.05-.045-.1-.089-.152-.134-.168.153-.33.311-.5.459s-.322.264-.485.395c.063.063.127.124.19.185l.948-.906" transform="translate(21.199 33.223)" fill="#1a0029"/>
        <path id="Контур_94" data-name="Контур 94" d="M24.053,53.983c.24-.538.44-.983.677-1.515-.6.438-.671.6-.677,1.515" transform="translate(14.716 32.102)" fill="#1a0029"/>
        <path id="Контур_95" data-name="Контур 95" d="M35.364,54.315q-.643.372-1.286.746a1.614,1.614,0,0,0,1.354-.627l-.068-.119" transform="translate(20.85 33.232)" fill="#1a0029"/>
        <path id="Контур_96" data-name="Контур 96" d="M34.712,46.315c.156-.406.314-.811.471-1.217l-.177-.069q-.242.6-.484,1.212c.064.024.127.048.19.074" transform="translate(21.122 27.55)" fill="#1a0029"/>
        <path id="Контур_97" data-name="Контур 97" d="M29.426,45.9l-.838.495c.029.053.058.106.087.161.295-.089.764.1.751-.656" transform="translate(17.491 28.083)" fill="#1a0029"/>
        <path id="Контур_98" data-name="Контур 98" d="M48.821,56.787l.208.01.073-1.5-.21-.01q-.034.75-.071,1.5" transform="translate(29.87 33.827)" fill="#1a0029"/>
        <path id="Контур_99" data-name="Контур 99" d="M43.531,59.989c.266.406.5.77.779,1.19a1.1,1.1,0,0,0-.779-1.19" transform="translate(26.633 36.703)" fill="#1a0029"/>
        <path id="Контур_100" data-name="Контур 100" d="M41.306,64.141l-.229-.015c-.019.445-.04.89-.06,1.335l.181.013c.035-.443.073-.888.108-1.333" transform="translate(25.095 39.234)" fill="#1a0029"/>
        <path id="Контур_101" data-name="Контур 101" d="M44.6,46.052c-.1-.508-.189-.93-.289-1.423a1.081,1.081,0,0,0,.289,1.423" transform="translate(27.013 27.306)" fill="#1a0029"/>
        <path id="Контур_102" data-name="Контур 102" d="M30.2,46.938c.2-.416.4-.832.6-1.249l-.187-.089c-.2.413-.406.824-.609,1.236l.2.1" transform="translate(18.357 27.9)" fill="#1a0029"/>
        <path id="Контур_103" data-name="Контур 103" d="M50.448,53.017q.077.672.155,1.343l.2-.021c-.053-.45-.106-.9-.161-1.347-.064.01-.131.018-.2.026" transform="translate(30.866 32.422)" fill="#1a0029"/>
        <path id="Контур_104" data-name="Контур 104" d="M37.009,54.323l-.646.97v-.311c-.047-.011-.093-.024-.14-.037-.19.421-.382.841-.572,1.262l.11.055c.2-.268.408-.535.612-.8a1.055,1.055,0,0,0,.637-1.138" transform="translate(21.812 33.237)" fill="#1a0029"/>
        <path id="Контур_105" data-name="Контур 105" d="M35.675,46.837a5.778,5.778,0,0,0,.293-.791c.013-.05-.216-.158-.324-.232-.039.4-.068.688-.1.98l.126.044" transform="translate(21.75 28.03)" fill="#1a0029"/>
        <path id="Контур_106" data-name="Контур 106" d="M38.871,45.779l-.724-.946-.168.126c.239.311.479.621.717.932l.174-.111" transform="translate(23.237 27.43)" fill="#1a0029"/>
        <path id="Контур_107" data-name="Контур 107" d="M32.332,63.715h1.285V63.6H32.334c0,.035,0,.073,0,.11" transform="translate(19.782 38.916)" fill="#1a0029"/>
        <path id="Контур_108" data-name="Контур 108" d="M31.573,59.293c-.316.3-.63.608-.946.911.066.066.132.132.2.2.295-.322.588-.646.883-.97Z" transform="translate(18.738 36.277)" fill="#1a0029"/>
        <path id="Контур_109" data-name="Контур 109" d="M37.818,46.094l.79.972.16-.137c-.268-.318-.537-.637-.806-.954-.048.039-.1.079-.143.119" transform="translate(23.138 28.129)" fill="#1a0029"/>
        <path id="Контур_110" data-name="Контур 110" d="M42.328,60.656c-.044.008-.087.015-.131.021v.83a1.313,1.313,0,0,0,.044,1.157l.152-.011c-.023-.3-.047-.6-.069-.9l.258.143c-.1-.463-.174-.851-.253-1.239" transform="translate(25.744 37.111)" fill="#1a0029"/>
        <path id="Контур_111" data-name="Контур 111" d="M34.482,60.663l.155.15.878-.988c-.048-.044-.1-.087-.143-.132q-.445.486-.89.97" transform="translate(21.097 36.522)" fill="#1a0029"/>
        <path id="Контур_112" data-name="Контур 112" d="M37.07,67.121l.192.123.677-1.127c1.056-.345,1.77-.924,1.613-1.8a4.1,4.1,0,0,1-1.694,1.726l-.788,1.078" transform="translate(22.68 39.351)" fill="#1a0029"/>
        <path id="Контур_113" data-name="Контур 113" d="M36.407,67.052l1.012-.321c-.019-.06-.037-.119-.055-.179l-1.025.285.068.214" transform="translate(22.233 40.719)" fill="#1a0029"/>
        <path id="Контур_114" data-name="Контур 114" d="M36.134,54.244l-1,.949c.044.042.087.085.132.127l.949-.995-.085-.082" transform="translate(21.498 33.188)" fill="#1a0029"/>
        <path id="Контур_115" data-name="Контур 115" d="M34.763,54.152q-.5.394-1,.79c.488-.076.925-.214,1-.79" transform="translate(20.657 33.132)" fill="#1a0029"/>
        <path id="Контур_116" data-name="Контур 116" d="M40.99,54.114l.909.866c.045-.047.09-.1.135-.143l-.906-.867-.139.145" transform="translate(25.079 33.02)" fill="#1a0029"/>
        <path id="Контур_117" data-name="Контур 117" d="M39.647,47.057l.177-.032c-.06-.335-.121-.671-.181-1.006l-.2.037.2,1" transform="translate(24.133 28.156)" fill="#1a0029"/>
        <path id="Контур_118" data-name="Контур 118" d="M47.279,55.114c.082.318.164.633.245.951l.214-.045-.271-.957-.189.052" transform="translate(28.927 33.689)" fill="#1a0029"/>
        <path id="Контур_119" data-name="Контур 119" d="M36.408,64.243l-.88.55c.459.06.795-.06.88-.55" transform="translate(21.737 39.306)" fill="#1a0029"/>
        <path id="Контур_120" data-name="Контур 120" d="M26.356,46.768c.2-.326.392-.651.588-.975-.061-.037-.122-.077-.182-.113q-.276.5-.55,1.009c.047.027.1.053.143.079" transform="translate(16.038 27.949)" fill="#1a0029"/>
        <path id="Контур_121" data-name="Контур 121" d="M37.133,55.631l-1.057.832c.045.053.092.1.137.158q.517-.426,1.038-.849c-.04-.047-.079-.093-.118-.14" transform="translate(22.072 34.037)" fill="#1a0029"/>
        <path id="Контур_122" data-name="Контур 122" d="M41.878,54.9l-1.162-.566a.892.892,0,0,0,1.162.566" transform="translate(24.911 33.242)" fill="#1a0029"/>
        <path id="Контур_123" data-name="Контур 123" d="M38.68,66.088l-.914.685c.451-.01.853-.085.914-.685" transform="translate(23.106 40.435)" fill="#1a0029"/>
        <path id="Контур_124" data-name="Контур 124" d="M51.125,52.5l.777-.648-.777.056Z" transform="translate(31.28 31.727)" fill="#1a0029"/>
        <path id="Контур_125" data-name="Контур 125" d="M49.758,57.611c-.274.314-.546.63-.9,1.041.671-.139.79-.587.9-1.041" transform="translate(29.891 35.248)" fill="#1a0029"/>
        <path id="Контур_126" data-name="Контур 126" d="M56.618,34.592a15.144,15.144,0,0,1,.071,3.648q-.2,1.748-.393,3.5a16.328,16.328,0,0,0,.517-8.967c-1.655,1.989-1.894,4.275-2.057,6.584a16.741,16.741,0,0,1,1.862-4.763" transform="translate(33.501 20.051)" fill="#1a0029"/>
        <path id="Контур_127" data-name="Контур 127" d="M41.945,2.577c2.975.617,4.906,2.608,4.777,6.372a5.33,5.33,0,0,0-1.734-5.487,3.962,3.962,0,0,0-3.043-.885" transform="translate(25.663 1.542)" fill="#1a0029"/>
        <path id="Контур_128" data-name="Контур 128" d="M33.28,4.356A3.292,3.292,0,0,0,32,2.93c-.429,2.165,1.958,5.687,3.583,6.86-.384-.806-.809-1.626-1.165-2.474-.409-.975-.729-1.987-1.14-2.959" transform="translate(19.549 1.793)" fill="#1a0029"/>
        <path id="Контур_129" data-name="Контур 129" d="M36.234,9.531a4.394,4.394,0,0,1-1-1.862c-.413-1.061-.746-2.155-1.154-3.359.174,2.771,2.368,7.013,4.184,8.106a7.063,7.063,0,0,0-.59-.936c-.53-.608-.751-1.4-1.444-1.949" transform="translate(20.854 2.637)" fill="#1a0029"/>
        <path id="Контур_130" data-name="Контур 130" d="M35.908,7.677Q35.5,6.691,35.1,5.7l-.131.066.8,1.968c.045-.019.092-.04.137-.058" transform="translate(21.394 3.488)" fill="#1a0029"/>
        <path id="Контур_131" data-name="Контур 131" d="M50.733,14.955q.875-.2,1.749-.4c-.019-.048-.037-.1-.056-.142l-1.728.4c.013.048.024.1.035.147" transform="translate(31.018 8.816)" fill="#1a0029"/>
        <path id="Контур_132" data-name="Контур 132" d="M53.8,24.808v5.387l.161.01a12.847,12.847,0,0,0-.161-5.4" transform="translate(32.916 15.179)" fill="#1a0029"/>
        <path id="Контур_133" data-name="Контур 133" d="M38.705,51.159l-.174-.261a5.591,5.591,0,0,1-.838.377,6.825,6.825,0,0,1-.967.1c1.114.255,1.955.147,1.979-.221" transform="translate(22.47 31.141)" fill="#1a0029"/>
        <path id="Контур_134" data-name="Контур 134" d="M36.006,50.895c-.093-.292-.142-.44-.181-.561l-1.244.155.5.438c.23-.408.532-.314.922-.032" transform="translate(21.158 30.796)" fill="#1a0029"/>
      </g>
    </g>
  </g>
</svg>
