<svg xmlns="http://www.w3.org/2000/svg" xmlns:xlink="http://www.w3.org/1999/xlink" width="140" height="140" viewBox="0 0 140 140">
  <defs>
    <clipPath id="clip-path">
      <rect id="Прямоугольник_11" data-name="Прямоугольник 11" width="140" height="140" rx="40" transform="translate(774 1880)" fill="#f1f1f1"/>
    </clipPath>
    <clipPath id="clip-path-2">
      <rect id="Прямоугольник_9" data-name="Прямоугольник 9" width="140" height="148.499" fill="#1a0029"/>
    </clipPath>
  </defs>
  <g id="Группа_масок_1" data-name="Группа масок 1" transform="translate(-774 -1880)" clip-path="url(#clip-path)">
    <g id="Сгруппировать_15" data-name="Сгруппировать 15" transform="translate(774 1886.501)">
      <g id="Сгруппировать_14" data-name="Сгруппировать 14" transform="translate(0 0)" clip-path="url(#clip-path-2)">
        <path id="Контур_221" data-name="Контур 221" d="M138.221,95.77a30.646,30.646,0,0,0-7.11.259,29.732,29.732,0,0,1-3.158.469c-3.04.117-6.085.1-9.126.209-3.182.108-6.36.277-9.538.446-3.4.18-6.808.394-10.213.581a1.2,1.2,0,0,1-.626-.173q-1.335-.777-2.64-1.6a.656.656,0,0,1-.279-.464q.07-1.678.21-3.351c.189-2.194.367-4.39.615-6.579a36.886,36.886,0,0,1,.651-3.806c.407-1.84.923-3.655,1.333-5.493.212-.959.3-1.946.437-2.916a7.288,7.288,0,0,0,.959.574,3.978,3.978,0,0,0,2.419.065,2.417,2.417,0,0,0,2.074-2.126c.324-1.894.568-3.806,1-5.673a37.759,37.759,0,0,0,1.173-11.9,16.491,16.491,0,0,0-.552-3.3c-.567-1.892-1.9-2.471-3.716-1.746.007-.1.009-.182.018-.264.192-1.7.475-3.4.559-5.1a42.228,42.228,0,0,0-.6-9.928,35.159,35.159,0,0,0-1.878-6.86c-.4-.978-.716-1.989-1.072-2.986l.11-.047q.591,1.125,1.18,2.252a20.36,20.36,0,0,0-6.146-11.033l1.266.953a8.714,8.714,0,0,0-2-2.554l1.646,1.353a6.482,6.482,0,0,0-2.286-2.7,2.878,2.878,0,0,1-.453-.423c-.308-.351-.6-.714-.9-1.072a5.813,5.813,0,0,0-3.356-.518,11.947,11.947,0,0,0-6.966,2.772c.176-.167.349-.338.529-.5.2-.176.39-.353.6-.511A9.541,9.541,0,0,1,91.1,10.428a4.976,4.976,0,0,1,.624.268l1.793,1.074a6.124,6.124,0,0,0-2.351-2h1.453a4.791,4.791,0,0,0-2.092-1.459c-.755-.255-1.554-.387-2.354-.579H90.5c0-.067,0-.133.007-.2-1.173-.074-2.349-.115-3.518-.232a7.389,7.389,0,0,1-3.441-.941L85,6.5l.022-.176a8.141,8.141,0,0,0-6.212-1.014Q79.831,4.9,80.858,4.5l-.032-.174c-.941.1-1.88.2-2.847.3l1.8-1.079a10.134,10.134,0,0,0-8,.2,7.129,7.129,0,0,1,2.871-1.563l-.054-.191-2.84.493L72.9,1.615a8.459,8.459,0,0,0-6.578,1.02c-.027-.056-.056-.112-.083-.167C67.3,1.86,68.354,1.254,69.469.613a9.809,9.809,0,0,0-3.921.829L67.944,0a8.842,8.842,0,0,0-4.205,2.005V.228C62.278,1.443,60.922,2.57,59.566,3.7l-.07-.07c.329-.381.658-.761.989-1.142-.036-.049-.072-.1-.108-.142q-1.886,1.2-3.77,2.4l-.059-.068,2.894-2.416a12.166,12.166,0,0,0-6.576,5,3.518,3.518,0,0,1,.876-2.191A15.064,15.064,0,0,0,49.66,8.259a6.964,6.964,0,0,1,2.47-3.353A8.9,8.9,0,0,0,47.452,9.22a8.717,8.717,0,0,1,1.917-4.007,8.458,8.458,0,0,0-3.1,4.775A9.518,9.518,0,0,1,46.432,7.9,18.686,18.686,0,0,1,47.1,5.916,10.13,10.13,0,0,0,44.813,13.1c-.187-.237-.356-.367-.4-.534-.18-.588-.318-1.191-.471-1.786a11.224,11.224,0,0,0-.387,3.642,5.161,5.161,0,0,1-.326-3.34,8.779,8.779,0,0,0-.721,4.567,8.014,8.014,0,0,1-.433-3.871,11.491,11.491,0,0,0-.871,5.212c.02.149.077.356,0,.446a6.84,6.84,0,0,0-1.378,3.14,6.239,6.239,0,0,1,.164-3.4,3.043,3.043,0,0,0-.473.748,9.3,9.3,0,0,0-.606,5.239,1.1,1.1,0,0,1-.121.773,15.5,15.5,0,0,0-2.315,4.324,13.492,13.492,0,0,0-.845,3.806c.183-.522.3-1.063.487-1.583s.419-.991.633-1.484a15.978,15.978,0,0,0-.811,5.538c.266-1.241.511-2.381.757-3.524.05.013.1.023.153.034a.6.6,0,0,1,0,.151,17.7,17.7,0,0,0-.383,7.328c.3,2.5.552,5,.826,7.5.205,1.876.392,3.754.637,5.624a9.6,9.6,0,0,0,.473,1.567c.031-.013.059-.027.088-.041l-.081-1.8.052.005c.165.946.329,1.894.5,2.874a2.494,2.494,0,0,1-.288,0,2.431,2.431,0,0,0-2.563,3.09c.311,1.218.6,2.443.944,3.651.991,3.459,1.986,6.916,3.027,10.358.239.793.344,1.435-.358,2.065a2.615,2.615,0,0,0-.6,1.144,2.387,2.387,0,0,0,1.369,3.077,2.682,2.682,0,0,0,.73.279.562.562,0,0,1,.536.576,20.321,20.321,0,0,0,3.308,8.367c1.338,2.04,2.957,3.894,4.443,5.837a1.793,1.793,0,0,1,.356.68c.748,3.572,1.493,7.144,2.207,10.723.225,1.131.371.928-.764,1.255a32.017,32.017,0,0,1-4.513,1.324c-3.8.52-7.6,1.112-11.394,1.705-4.072.637-8.146,1.263-12.2,1.978a44.832,44.832,0,0,0-10.231,2.806,23.745,23.745,0,0,0-8.966,6.574c-1.282,1.545-2.455,3.184-3.637,4.808a1.989,1.989,0,0,0-.34,1.1q-.03,11.1-.014,22.209c0,.209.018.419.027.628H140V96.2a11.768,11.768,0,0,0-1.777-.428M9.833,130.942c.856,4.644,1.707,9.259,2.563,13.9-.829-1.326-2.513-10.47-2.563-13.9m92.279-80.39a1.659,1.659,0,0,1,2.9.813,19.1,19.1,0,0,1,.624,5.606,31.815,31.815,0,0,1-1.29,8.207c-.214.788-.342,1.6-.523,2.466-.16-.173-.286-.306-.536-.576a3.543,3.543,0,0,0,.009.826,5.192,5.192,0,0,1-.176,4.065,2.714,2.714,0,0,1-3.023,1.219,2.109,2.109,0,0,1-1.423-1.8c-.245-1.552-.435-3.115-.563-4.68a54.241,54.241,0,0,1,.135-9.637,8.239,8.239,0,0,1,.241-1.707,20.117,20.117,0,0,1,.9-2.054l.052,0-.207.673.126.065c.185-.365.365-.734.556-1.1a6.429,6.429,0,0,1,.687-1.1q-.483,1.141-.968,2.284l.068.034c.523-.874,1.029-1.757,1.577-2.617a4.546,4.546,0,0,1,.833-1M88.333,18.819a12.255,12.255,0,0,1,4.932,3.727c-1.7-1.286-3.36-2.54-4.932-3.727m3.023,3.241c-.04.036-.081.07-.121.106L89.93,20.652c.047-.041.092-.085.138-.128Zm-3.928-5.083a8.687,8.687,0,0,1,5.016,3.309l-.451-.25.9,1.245c-.45-.4-.894-.817-1.358-1.207a21.736,21.736,0,0,0-1.764-1.387c-.6-.406-1.266-.727-1.91-1.086.088-.02.18-.041.387-.086l-.824-.538m4.824,1.509a9.868,9.868,0,0,1,2.907,2.43,13.249,13.249,0,0,1,2.52,4.5,11.739,11.739,0,0,1,.394,1.624,5.217,5.217,0,0,0,.691,2.439,1.364,1.364,0,0,1,.137.383,5.126,5.126,0,0,1-.919-1.941,18.037,18.037,0,0,0-1.532-3.428c-.567-1.014-1.308-1.93-2.013-2.948a13.793,13.793,0,0,1,2.475,2.847,15.569,15.569,0,0,0-4.658-5.907m2.644-.423a13.826,13.826,0,0,1,3.036,5.707c-.962-1.808-1.962-3.691-3.036-5.707m3.919,33.055c-.493-1.718-.558-2.2-.329-3.038q.243,1.508.484,3.013c-.052.009-.1.018-.155.025m.151,1.122-.081,1.43h-.176q.051-.718.1-1.439c.05,0,.1.005.155.009M97.84,45.264l.167-.038q.256,1.114.514,2.227c-.056.005-.112.011-.167.014q-.256-1.1-.514-2.2m.342,3.678-.156.036c-.113-.509-.225-1.018-.338-1.525.058,0,.115,0,.174,0,.106.5.212.991.32,1.487m1.083-5.149A21,21,0,0,0,96,36.5c1.579,2.214,3.034,4.484,3.27,7.293m-1.813-5.925c.041-.031.085-.059.126-.09q.372.54.743,1.079c-.049.04-.1.079-.147.117l-.721-1.106m1.309,6.009c-.052.014-.106.029-.158.045l-.419-1.513c.056-.016.112-.032.167-.047q.205.755.41,1.514m-.133,3.441.162-.043.365,1.351-.164,0c-.121-.437-.243-.874-.363-1.311m.117-2.581L98.9,44.7q.254,1.26.507,2.518c-.041.011-.085.02-.128.029l-.534-2.514m.013-5.263.146-.045,1.041,3.092-.156.054-1.031-3.1m.745,6.373.169-.049q.31,1.182.622,2.365l-.164.043q-.313-1.179-.628-2.36m.371,4.768-.14.02q-.14-.958-.279-1.916l.194-.013c.076.637.149,1.273.225,1.908m.191-4L99.7,44.432l.162-.027.362,2.18-.156.029m-.034-8.925q-.37-.831-.741-1.662l.158-.07.727,1.648c-.047.029-.1.058-.144.085m.173,1.917-.147.049q-.243-.723-.489-1.444l.16-.049q.24.72.477,1.444m-.11.942-.162.077q-.5-1.368-1.005-2.739l.126-.047,1.041,2.709M98.966,36.7q-1.09-2.15-2.182-4.3c.031-.018.061-.038.09-.058q.31.478.619.951c.023-.007.047-.016.07-.025-.058-.286-.117-.574-.174-.86l.138-.043q.782,2.145,1.563,4.292c-.041.013-.083.027-.124.041m-.344.394-.158.056-.55-1.586.149-.054c.187.529.372,1.056.559,1.585m-.606-4.261.135-.065q.461.939.924,1.878c-.052.031-.1.061-.156.094q-.453-.955-.9-1.907m.653-1.586.147-.085.723,1.4-.117.067c-.252-.46-.5-.919-.754-1.378m-4.837-7.54,1.421,1.862c-.05.04-.1.077-.149.117q-.7-.944-1.389-1.89c.04-.029.077-.059.117-.088m.248,1.266q.669,1.039,1.34,2.081l-.156.1-1.309-2.1.126-.079m-.065-2.369a12.473,12.473,0,0,1,3.91,6.937,24.106,24.106,0,0,0-3.91-6.937M98.439,32.2c-.086-.2-.18-.4-.261-.612a12.2,12.2,0,0,0-1.619-2.867,8.472,8.472,0,0,1-.815-1.962A11.106,11.106,0,0,1,98.439,32.2M97.3,33.8c-.049.031-.1.063-.144.1q-.6-.928-1.2-1.853l.121-.081L97.3,33.8m-.236,1.3q.75,1.546,1.5,3.09l-.142.07q-.758-1.543-1.518-3.085l.156-.076m.365,2c-.045.027-.092.052-.137.077q-.7-1.222-1.4-2.448l.158-.088q.688,1.23,1.378,2.459m.056,3.322-.122.068q-.817-1.462-1.637-2.925l.153-.085q.8,1.47,1.606,2.941m.3,3.443c-.342-1.167-.664-2.261-1.011-3.444a6.385,6.385,0,0,1,1.011,3.444m-.041,6.489c.085.858.165,1.691.248,2.523a3.764,3.764,0,0,1-.248-2.523m3.367-9.822.149-.049q.289.853.576,1.705l-.169.049-.556-1.705m.288,5.7v1.586c-.027,0-.056.005-.085.007V46.194l.085.029m-.1-3.567-.165.052-.586-1.894.16-.049Zm-.745.543q.272.761.545,1.52l-.173.063c-.171-.511-.344-1.022-.514-1.532.047-.016.1-.032.142-.05m0,1.908q.116,1.217.23,2.434c-.054,0-.108.005-.164.009l-.216-2.428c.05-.005.1-.011.149-.014m1.444-1.121c.038.005.076.009.113.013v1.21l-.113,0Zm-.275-7.266c.09.426.18.854.272,1.281-.056.014-.112.027-.165.04-.085-.43-.169-.862-.252-1.291Zm-.937-3.3q.308.871.619,1.741c-.05.018-.1.036-.151.056q-.316-.861-.631-1.719c.054-.025.108-.052.164-.077m.363,5.763-.137.047-.723-2.074.167-.059q.348,1.044.692,2.086m-.748-3.568-.133.068q-.5-.955-.989-1.907l.169-.086q.478.96.953,1.925m-.442-3.39q-.386-.731-.775-1.462l.138-.076q.4.734.8,1.464c-.054.025-.11.049-.165.074m-.335-2.757q-.337-.936-.673-1.872l.112-.043.718,1.856-.156.059m-.932-3.831q.453,1.052.908,2.1l-.137.059q-.461-1.05-.921-2.1l.149-.065m-.259-3.142-2.34-3.518a6.731,6.731,0,0,1,2.34,3.518m-5.8-8.851a10.941,10.941,0,0,0-6.382-.853c2.246-.635,4.412-.639,6.382.853m.074,1.43a21.608,21.608,0,0,0-6.335-1.482c2.223,0,4.435.049,6.335,1.482m-1.707-3.214a16.7,16.7,0,0,0-2.081-.308,10.314,10.314,0,0,0-2.072.2c-.678.121-1.34.336-2.011.511a6.334,6.334,0,0,1,6.164-.4m-3.475,3.621c-.739-.061-1.356-.11-1.973-.16,3.374-.18,6.664,0,9.466,2.239a15.112,15.112,0,0,0-5.072-1.8c1.227.55,2.572,1.155,3.916,1.761l-.081.185-1.322-.585a14.686,14.686,0,0,1,3.883,4.707c-1.056-1.2-2.16-2.432-3.239-3.685a6.633,6.633,0,0,0-5.069-2.205c-1.124-.043-2.252-.007-3.529-.007l3.02-.453m-3.309-5.5a10.244,10.244,0,0,0-5.227,1.836,21.177,21.177,0,0,0-1.628,1.608,6.355,6.355,0,0,1,4.187-3.214,18.02,18.02,0,0,1,6.8-.529c-1.277.086-2.72.1-4.133.3m4.876-.7a5.3,5.3,0,0,1-.673.043,21.6,21.6,0,0,0-7.509.854c-1.281.385-2.5.964-3.747,1.453a14.272,14.272,0,0,1,5.252-2.14c-.02-.061-.038-.124-.058-.185l-5.06,1.1A20.091,20.091,0,0,1,89.083,9.274M85.034,8.148a18.177,18.177,0,0,0-9.8,2.131,12.74,12.74,0,0,1,9.8-2.131m-11.695,2.9a10.06,10.06,0,0,1,9.954-3.421,12.57,12.57,0,0,0-9.954,3.421M76.377,7.5a14.447,14.447,0,0,0-5.051,2.9A11.116,11.116,0,0,1,82.27,7a13.264,13.264,0,0,0-5.892.5m4.5-1.157a15.617,15.617,0,0,0-8.828,2.068,10.869,10.869,0,0,1,8.828-2.068m-7.247-.478a11.829,11.829,0,0,0-4.637,4.36,4.6,4.6,0,0,0-.5,1.48,9.543,9.543,0,0,0-.018,1.556,4.2,4.2,0,0,1,.428-3.47,11.71,11.71,0,0,1,5.48-4.612,15.214,15.214,0,0,1,2.335-.835c-1.034.5-2.1.946-3.092,1.52m2.664-1.8c-3.766,1.275-6.995,3.185-8.666,7.025.9-3.613,4.775-6.338,8.666-7.025m-3.322.406a.457.457,0,0,1,.369.05,5.221,5.221,0,0,1-.421.354c-.98.667-1.995,1.29-2.941,2a8.575,8.575,0,0,0-2.43,2.847A7.257,7.257,0,0,1,69.67,6.608a7.613,7.613,0,0,0-3.032,7.714,3.8,3.8,0,0,1-.356-2.194,10.533,10.533,0,0,1,.482-2.293A17.257,17.257,0,0,1,67.89,7.686,9.775,9.775,0,0,0,65.8,10.749a4.467,4.467,0,0,1,1.455-2.863c.786-.721,1.676-1.333,2.459-1.944-1.6.113-4.229,3.184-5.178,6.239a5.754,5.754,0,0,1,1.255-3.412,9.778,9.778,0,0,0-2.5,2.854c.61-1.966,2.121-3.153,3.718-4.275-2.513,1.162-5.6,4.622-5.29,7.311a3.963,3.963,0,0,1,.4-2.817,10.173,10.173,0,0,1,4.473-4.711,10.112,10.112,0,0,1,2.588-1.239c1.353-.29,2.5-1.016,3.788-1.419m-14.752,10.4,5.437-6.1.149.135c-1.854,1.993-3.344,4.32-5.587,5.961M68.273,5.687c-1,.554-1.95,1.183-2.883,1.757a12.313,12.313,0,0,1,5.926-3.293c-1,.5-2.043.98-3.043,1.536M71.149,3.1a36.726,36.726,0,0,0-6.891,4.943A15.954,15.954,0,0,1,71.149,3.1M63.978,7.563a9.72,9.72,0,0,1-3.218,3.092c-.847.55-1.73,1.05-2.621,1.532a8.879,8.879,0,0,0-3.333,2.862,5.438,5.438,0,0,1,2.3-2.592c1.426-.878,2.908-1.675,4.283-2.626A28.5,28.5,0,0,0,63.974,7.56a7.892,7.892,0,0,1,2.291-2.883,10.708,10.708,0,0,1,4.006-2.441,21.156,21.156,0,0,0-6.293,5.328M54.6,13.488a2.519,2.519,0,0,0-1.171,1.835,1.737,1.737,0,0,1,.617-1.6c1.212-.939,2.441-1.865,3.714-2.716,1.624-1.085,3.3-2.085,4.948-3.137a9.349,9.349,0,0,0,.93-.763,15.277,15.277,0,0,1-3.775,3.045c-1.768,1.092-3.509,2.225-5.263,3.34M69.679,2.043c-.6.308-1.218.6-1.811.924a17.894,17.894,0,0,0-4.045,3.218A21.939,21.939,0,0,1,59.182,9.9c-1.737.987-3.4,2.11-4.995,3.113l1.059-.964-.059-.085-1.36.8c2.914-2.529,6.493-4.189,9.108-7.1a16.07,16.07,0,0,1-5.02,4.419c.027.043.056.085.083.128.741-.45,1.487-.89,2.221-1.351a24.045,24.045,0,0,0,3.867-3.2c.664-.64,1.266-1.353,1.982-1.926a7.9,7.9,0,0,1,3.61-1.7M64.064,3.353A6.853,6.853,0,0,1,67.055,1.39c0,.041.014.086.007.09-1.684.73-2.772,2.142-3.97,3.435a7.752,7.752,0,0,1-2.157,1.968c-.313.153-.525.5-.8.748A35.833,35.833,0,0,1,53.8,12.083C55.2,11.042,56.627,10.031,58,8.95,59.463,7.793,60.909,6.6,62.3,5.362a18.08,18.08,0,0,0,1.759-2.009M61.787,4.739c-.412.365-.829.725-1.234,1.1a1.99,1.99,0,0,0-.246.353l1.615-1.076a32.877,32.877,0,0,1-8.437,6.425c.817-.577,1.642-1.142,2.448-1.736.773-.568,1.529-1.162,2.286-1.754.074-.058.1-.174.151-.266-2.1,1.588-4.644,2.6-6.274,4.8l-.112-.1a14.531,14.531,0,0,1,1.608-1.77c1.072-.863,2.259-1.583,3.354-2.417,1.525-1.166,3.009-2.381,4.511-3.576.061-.049.122-.1.183-.142Zm-2.281-.052c.025.025.05.049.076.072-.171.173-.338.353-.518.516s-.369.322-.563.469q-2.514,1.891-5.029,3.779a1.608,1.608,0,0,0-.254.313c.809-.513,1.651-.982,2.423-1.549Q57.859,6.661,60,4.935a18.511,18.511,0,0,0,1.514-1.514l.121.113A22.591,22.591,0,0,1,59.6,5.621c-1.705,1.362-3.468,2.655-5.234,3.939-1.016.739-2.115,1.363-3.122,2.115a5.991,5.991,0,0,0-2.333,3.4,12.062,12.062,0,0,1,.408-1.365,6.635,6.635,0,0,1,2.23-2.666,6.384,6.384,0,0,0,.486-.453c-.14.047-.281.092-.419.137-.023-.032-.049-.067-.072-.1q3.982-2.97,7.963-5.944m-1.167-.254.122.124A41.091,41.091,0,0,1,53,9.092l-.086-.1,5.43-4.556m-3.7,1.973c.306-.309.637-.594,1.072-1-.52.639-.933,1.167-1.372,1.676a23.784,23.784,0,0,1-4.122,3.772,5.875,5.875,0,0,0-2.284,2.8,12.68,12.68,0,0,0-.349,1.606,3.483,3.483,0,0,1,.421-2.313A7.79,7.79,0,0,1,50.772,10a28.049,28.049,0,0,0,3.871-3.59M45.786,9.759c.045.928.047,1.718.135,2.5a3.943,3.943,0,0,0,.7,2.225,5.622,5.622,0,0,1,.469-4.862,9.953,9.953,0,0,0-.374,4.067,8.384,8.384,0,0,1,2.354-5.547q-.78,1.487-1.558,2.97l.092.047c.669-.68,1.317-1.381,2.011-2.034s1.441-1.263,2.166-1.892l.108.11Q50.273,8.9,48.657,10.454l.07.092L51.887,8.1c.023.027.047.052.07.077-.6.534-1.191,1.088-1.817,1.6a7.991,7.991,0,0,0-2.453,2.89,13.848,13.848,0,0,0-.594,2.286l-.167-.255c-.056.086-.1.16-.147.232-.924-.218-1.55-3.27-.993-5.169m1.531,7.686A5.509,5.509,0,0,1,45.259,12.6a8.8,8.8,0,0,0,2.058,4.844m-.529,0c-1.173-.437-2.252-2.315-2.685-4.153a12.24,12.24,0,0,0,2.685,4.153m.144.415c-1.6-.005-2.962-1.407-3.727-3.41,2.209,2.86,2.209,2.86,3.727,3.41m-1.135.68a6.3,6.3,0,0,1-2.5-2.658,8.753,8.753,0,0,0,3.552,2.829,4.4,4.4,0,0,1-4.824-3.02A5.4,5.4,0,0,0,45.8,18.544m-1.451,1.043c-1.318.392-2.547.295-2.552-.962.525,1.3,1.613.761,2.552.962m-.764,1.151A2.461,2.461,0,0,1,40.5,21.1a4.187,4.187,0,0,0,3.085-.363m-1.8,2.345-3.556,3.378a10.768,10.768,0,0,1,3.556-3.378m.18.451-4,4.286a12.568,12.568,0,0,1,4-4.286m-.469,1.257c-.649.7-1.335,1.371-1.939,2.11s-1.151,1.572-1.8,2.468a9.938,9.938,0,0,1,3.736-4.578m-1.176,2.245c-1.052,1.651-2.115,3.322-3.09,4.855a12.357,12.357,0,0,1,3.09-4.855m-2.639,5.144.218.074q-.326,1.076-.651,2.151l-.176-.052.61-2.173M36.946,38l-.151-.029q.267-1.411.536-2.818c.068.014.137.027.2.04Zm.872-.982-.469,2.268a2.815,2.815,0,0,1,.469-2.268m-.077,4.792-.209-.032q.156-1.014.313-2.031l.2.031Zm.939,2.335-.117,0v-1.4l.117,0Zm.216,3.68c-.067-.005-.133-.011-.2-.018q.07-.718.14-1.439c.074.009.149.014.223.022-.056.478-.112.959-.165,1.435m1.356,28.154a1.475,1.475,0,0,1,.063-1.6c.182-.3.412-.565.581-.867A3.015,3.015,0,0,0,40.8,71.13c-.227-.874-.529-1.73-.8-2.594l.054,0c.239.4.48.8.719,1.2a23.112,23.112,0,0,1-1.6-10.655l.144-.092c.7.793,1.4,1.588,2.121,2.4a4.4,4.4,0,0,0-1.192,4.074c.138-.712.282-1.457.426-2.2l.147.027a5.316,5.316,0,0,0-.115,2.892c.072-.691.142-1.356.21-2.022l.1.007c.092,1.61.212,3.218.27,4.828.081,2.272.117,4.547.169,6.82.007.293,0,.588,0,.924a1.4,1.4,0,0,1-1.212-.757M39.16,57.373a.816.816,0,0,0-.293-.216c-.284-.085-.658-.272-.849-.162a1.148,1.148,0,0,0-.417.813c-.061.653-.02,1.315-.02,1.878a6.235,6.235,0,0,1-.59-3.284,1.2,1.2,0,0,1,1.434-1.108,1.921,1.921,0,0,1,1.565,1.016c.541,1.086,1,2.214,1.482,3.315-.782-.763-1.545-1.509-2.311-2.252m9.687,30.519-.91.178v.158c-.092-.121-.182-.241-.248-.329.279-.322.534-.617.79-.91-.04-.041-.079-.083-.119-.122l-.865.79c-.556-.655.016-1.194.167-1.761l-.167-.067-.558,1.05c-.324-.518-.635-1.018-.939-1.507.219-.282.417-.534.613-.788l-.108-.112c-.207.182-.414.362-.705.615l.55-1.263c-.04-.023-.079-.047-.121-.068-.192.291-.387.583-.594.894-.318-.308-.408-.581-.049-.953a2.782,2.782,0,0,0,.381-.775l-.169-.081c-.194.3-.39.6-.667,1.023-.212-.615-.383-1.112-.549-1.594l.41-.487-.063-.092c-.138.067-.275.133-.4.194-.549-.6-.032-1.085.144-1.743l-.692.178c-.086-1.1-.822-2.194-.264-3.473-.05,0-.1,0-.153,0-.067.086-.131.174-.2.261-.049,0-.1,0-.147,0-.034-1.018-.068-2.034-.1-3.041-.025.02-.081.07-.138.119-.018-.027-.049-.054-.05-.083-.221-4.189-.367-8.385-.685-12.567-.16-2.083-.642-4.142-.964-6.214-.581-3.729-1.113-7.466-1.75-11.186a6.337,6.337,0,0,1,.61-3.065c.142-.462.356-.9.538-1.354l-.11-.072q-.432.658-.867,1.315l-.086-.043q.467-1.265.935-2.531l-.113-.056L39.173,40.89c-.032-.009-.065-.018-.1-.025q.575-1.967,1.149-3.93a14.262,14.262,0,0,0-1.473,2.944q.518-2.207,1.034-4.414l-.067-.045c-.212.372-.439.737-.633,1.119a6.273,6.273,0,0,1-.651,1.157q.591-1.875,1.178-3.754l-.043-.027-.7,1.252-.094-.036q.367-1.122.736-2.241l-.1-.068L38.45,34.2c.309-.914.577-1.7.844-2.484l-.133-.074-1.182,1.849a27.3,27.3,0,0,1,2.549-5.937,14.689,14.689,0,0,1,2.507-3.266c.953-.964,1.746-2.086,2.606-3.144a3.421,3.421,0,0,0,.234-.433c-.412.191-.7.326-.993.459-.022-.038-.045-.074-.067-.112l1.437-.851-.043-.1-1.385.471a4.811,4.811,0,0,1,4.191-.725c-.223-.279-.408-.507-.613-.764.746.156,1.453.3,2.158.453a6.357,6.357,0,0,1-2.2-1.838,7.7,7.7,0,0,0,4.029.971c-.739-.453-1.439-.883-2.139-1.315l.059-.1c.529.209,1.047.459,1.59.615a8.731,8.731,0,0,0,1.764.279c-.406-.5-.941-.89-.851-1.705A3.771,3.771,0,0,0,55.3,17.929a2.207,2.207,0,0,1,.189-2.488,9.066,9.066,0,0,0-.1,1.182,1.091,1.091,0,0,0,.541,1.009c.306-1.694.5-2.013,1.567-2.631-.29.746-.592,1.523-.894,2.3l.2.115,1.91-2.207.144.088q-.456.89-.914,1.781c.016.032.034.065.05.1l1.516-1.282.058.029-.732,1.032a5.5,5.5,0,0,1,2.572-.394,3.2,3.2,0,0,1,1.157.277,9.969,9.969,0,0,0,3.772.79c.1,0,.209,0,.313-.005.025,0,.05-.032.165-.113a5.378,5.378,0,0,1-4.007-2.752,7.027,7.027,0,0,0,5.477,2.5,5.316,5.316,0,0,1-3.018-1.739,4.808,4.808,0,0,1-.621-1.207,9.989,9.989,0,0,0,4.331,2.545c-.263-.264-.6-.608-.944-.951l.1-.09,2.088,1.155.119-.158a4.8,4.8,0,0,1-2.223-3.148,5.741,5.741,0,0,0,2.973,3A7.866,7.866,0,0,1,69.282,13.6a6.258,6.258,0,0,0,2.311,2.793,4.041,4.041,0,0,1-.583-2.5l1.013,2.532.11-.05-.351-2.525.128-.032A5.566,5.566,0,0,0,73.2,16.2l-.442-1.957a5.061,5.061,0,0,0,1.309,2.1c.182-.277.353-.536.574-.871.122.322.2.523.3.8.085-.331.144-.574.218-.862l.622.8c.034-.637.063-1.16.092-1.685l.133-.014c.128.57.1,1.214.718,1.608-.056-.473-.1-.9-.155-1.322a3.5,3.5,0,0,0,1.664,1.655c-.147-.516-.286-1.009-.426-1.5l.162-.061a3.1,3.1,0,0,0,1.094,1.657V14.351L79.762,17l1.545-1.77c-.135.471-.234.811-.371,1.291l1.212-.86c-.338.554-.613,1.009-.89,1.464a4.091,4.091,0,0,1,3.439.263c-.338-.022-.678-.043-1.016-.067l-.032.11.615.232c0,.02,0,.04,0,.059h-.845c2.259,1.727,4.489,3.43,6.659,5.085l-1.5-1.833c1.5.9,2.827,2.236,4.828,4.842l.21-.2q1.074,1.608,2.139,3.207c-.02.014-.041.031-.061.047q-.947-.858-1.894-1.719l-.067.076q1.3,1.729,2.6,3.461l-.086.065-2.93-2.977c-.036.036-.072.072-.11.106q1.381,1.71,2.761,3.417l-.04.023-3.074-2.881c-.043.04-.085.081-.128.122l2.52,2.838-.065.065q-1.155-1.006-2.313-2.014c-.023.023-.045.049-.067.072l3.07,3.747-.077.07c-.174-.122-.351-.246-.527-.369q.4.658.8,1.317l-.119.086c-.378-.545-.755-1.088-1.219-1.755l.534.347a6.687,6.687,0,0,0-.59-.7c-.732-.667-1.486-1.315-2.23-1.969-.032.031-.065.061-.1.094l2.8,3.443c-.023.023-.047.045-.072.067Q93.539,32.553,92,31.2l-.086.1q1.6,1.737,3.2,3.477l-.065.059q-1.414-1.26-2.827-2.523c-.027.025-.052.052-.079.077L94.8,35.48l-.052.045q-.842-.661-1.687-1.324l-.1.088a1.129,1.129,0,0,0,.077.155,20.9,20.9,0,0,1,3.869,10.335,98.194,98.194,0,0,1,.344,11.479c.061,4.793.218,9.588.187,14.38a19.837,19.837,0,0,1,.128,2.779,43.4,43.4,0,0,1-1.615,7.436c-.092-.16-.156-.273-.176-.306-.2,1-.419,2.056-.637,3.122l-1.439-.21c.138.419.257.772.374,1.126l.174-.045c-.05-.237-.1-.473-.162-.768l.811.169c-.2.48-.381.919-.559,1.351l-1.451-.471c-.031.056-.061.112-.092.169a2.783,2.783,0,0,1,.259.43.85.85,0,0,1-.007.322c-.1-.034-.228-.04-.3-.106a5.262,5.262,0,0,0-.669-.619,2.2,2.2,0,0,0,.106.495,3.505,3.505,0,0,0,.329.509l-.5.329c.108.353.219.714.345,1.124L91.682,88c.266.552.21.694-.4.844-.514.126-1.04.214-1.581.322.108.34.2.633.295.933l-.408.108c-.1-.081-.189-.164-.322-.279.02.3.036.54.05.773l-.151.023c-.056-.117-.113-.232-.169-.349-.058.04-.113.079-.171.121.047.232.094.462.138.694l.156.049c.243-.264.487-.527.73-.79l.754.344c-.635.293-1.1.527-1.577.712-.1.04-.293-.065-.4-.153s-.183-.241-.385-.324c.061.227.122.455.212.781l-.484-.336c0,.581.029.581.572.495a3.98,3.98,0,0,1,.833.045c-.171.468-.171.468-1.621.691a2.23,2.23,0,0,0-.871-1.167c-.05.041-.1.081-.149.121l.946,1.119-1.27.912-.543-.4c-.032.018-.065.038-.1.058.077.164.156.329.261.545-.153-.079-.266-.137-.392-.2.1.718.478.937,1.151.754.219-.059.471-.358.714-.022.331-.306.653-.624,1-.912a1.384,1.384,0,0,1,.63-.277c-.5.568-.885,1.261-1.727,1.38-.549-.194-.727.318-1.063.541a4.016,4.016,0,0,1-1.779.732c-.165.02-.331.052-.511.079.077-.155.171-.34.263-.525a.543.543,0,0,1-.827-.174c-.07-.09-.255-.094-.432-.038.147.14.3.272.441.421a4.764,4.764,0,0,1,.295.387,2.644,2.644,0,0,1-.441.243c-.613.2-1.236.381-1.851.576-.176.056-.345.13-.585.221l.354.32-.273.151.588.176c-.014.041-.014.1-.045.122a24.828,24.828,0,0,1-8.07,4.358,13.242,13.242,0,0,1-6.362.495,2.514,2.514,0,0,1-.5-.137,13.885,13.885,0,0,0,12.9-5.166,4.8,4.8,0,0,0,.651.273,1.039,1.039,0,0,0,.628-.054l-1.094-.428c.214-.3.4-.55.57-.808.914-1.365,1.82-2.738,2.743-4.1a2.093,2.093,0,0,1,.4-.381c.187-.378.344-.694.5-1.011l.1.059a2.443,2.443,0,0,1,.147-.585c.6-1.1,1.225-2.2,1.862-3.333l.565.406c.031-.025.061-.049.092-.072-.147-.214-.3-.426-.478-.685.072-.185.16-.421.25-.657l-.1-.056-1.471,2.259-.061-.038q.5-.977,1-1.952c-.036-.022-.074-.041-.112-.061L83.84,89.09c-.036-.018-.072-.036-.11-.052.167-.376.333-.75.541-1.218l-.642.568v.563l-.6-.063c-.031.032-.061.063-.09.1l.489.286c-.376.68-.719,1.3-1.086,1.968-.108-.239-.2-.441-.3-.662-.448.444.387,1.068-.336,1.471a2.4,2.4,0,0,0,.022-.622.74.74,0,0,0-.371-.419c0,.248-.018.5.005.746a7.59,7.59,0,0,0,.162.759c-.023.036-.1.169-.178.295-.942-.072-.7-.966-1.031-1.468-.383.743-.067,1.324.813,1.851l-2.462,3.279-.153-.061c-.058-.255-.113-.511-.2-.907l-.435.907-.63-.565c.16.534.279.933.4,1.342.142-.164.338-.392.586-.678-.032.707-.633.872-.95,1.281a1.1,1.1,0,0,0-.221-1.121c-.068.6-.121,1.065-.187,1.657l-.592-1.315-.158.059c.083.252.164.5.263.811h-.617c-.121-.576-.241-1.16-.363-1.745l-.14.009q.094,1.5.191,2.991l-.13.009q-.192-.979-.381-1.957c-.067.009-.131.018-.2.029.029.385.041.772.092,1.153a1.385,1.385,0,0,1-.637,1.327,1.55,1.55,0,0,1-.694.194l.437-.471c-.842.232-1.273,1.268-2.39,1.056.2-.268.385-.507.565-.746l-.156-.142-.969.7.018-.344c-.284.279-.381.8-.71.867.23-.6.41-1.077.61-1.6-.736.477-.782.588-.612,1.6a.653.653,0,0,1-.48-.14l.142-.362c-.022-.02-.045-.04-.067-.061a3,3,0,0,1-.669.594,2.925,2.925,0,0,1-.924.068l.775-.822c-.04-.04-.079-.077-.119-.115l-.358.252c-.011-.072-.022-.153-.052-.365-.164.243-.331.383-.349.541-.065.547-.387.586-.923.453l.77-1.241c-.543.1-.612.54-.838.808a2.578,2.578,0,0,1-.4.415c-.043.032-.189-.079-.336-.147l-1.072.1-.043-.128c.171-.18.34-.36.511-.541a2.29,2.29,0,0,1-2.158.232c.228-.191.464-.385.7-.581l-.1-.144L63,100.257l-.135-.227L64.895,98.7c-.047-.065-.094-.13-.139-.2l-2.225,1.46c.133-.308.259-.6.383-.883l-.1-.07-.585.8v-.606l-.119-.027c-.068.2-.137.4-.221.639l-.552-.189.98-.808-.1-.146-1.112.725v-.667l-.406.585c-.259-.187-.507-.369-.795-.577.147-.135.27-.243.39-.353a1.149,1.149,0,0,1-1.459-.538l1.189-.581-.054-.14a4.907,4.907,0,0,0-.944.322.6.6,0,0,1-.939-.25c.178-.142.345-.273.554-.439-.415-.185-.788.45-1.115-.1L58,96.22c-.439-.029-.9.358-1.113-.255.153-.072.324-.153.495-.236-.013-.04-.023-.081-.036-.122-.151.034-.3.068-.453.1-.344.072-.523-.121-.525-.48a1.6,1.6,0,0,0-.191-.511l-.131.041c.018-.2.034-.4.052-.6-.031-.013-.061-.027-.09-.041-.1.14-.205.279-.306.417-.029-.007-.059-.014-.088-.02.014-.133.029-.266.045-.4l-.43-.129c.058-.126.115-.254.171-.372-.54.061-.66-.054-.691-.653,0-.065-.09-.121-.117-.189a1.249,1.249,0,0,1-.112-.529c-.624-.423-1.786-.561-.739-1.9l-.252.067-.464.543c-.147-.261-.29-.509-.432-.759l.252-.121c-.3-.529-1.468-.658-.556-1.741-.315.138-.46.2-.648.288l-1.005-1.559c.05.212.1.424.156.649-.426.079-.633-.167-.782-.507-.126-.29-.254-.579-.41-.932L50.094,86c-.205-.047-.412-.092-.617-.14-.1-.022-.191-.049-.284-.072l-.054.047c-.061.088-.122.174-.239.344l.507.621a2.3,2.3,0,0,0-.446.194c-.068.045-.07.189-.1.288.246-.074.493-.146.836-.246.067.27.131.527.189.757.268.354.549.728.863,1.144l-.505.25c-.263-.338-.514-.662-.768-.986.011.1.023.2.032.29l-1.022.419c-.32-.277-.32-.277.362-1.013m44.119-1.3c.009.191.014.322.022.439l-.09.038c-.16-.221-.318-.442-.484-.676.237-.108.579-.255.916-.419.086-.041.14-.144.223-.2.171-.11.351-.205.527-.306.041.047.081.1.122.144-.209.448-.419.9-.644,1.381-.227-.153-.381-.259-.592-.4m.41.7-1.065,1.149c-.115-.158-.194-.264-.272-.372.414-.318.806-.622,1.2-.924.045.049.09.1.137.147m-2.014,2.335c-.137.29-.309.648-.48,1.007l-.21.068c-.088-.113-.176-.227-.3-.38.245-.153.412-.257.579-.36-.011-.036-.02-.07-.031-.1l-.637.076-.072-.126c.513-.347,1.149-.471,1.66-.822.034.05.068.1.1.151-.2.16-.4.32-.613.489m.248.96L90.5,91.8l-.153-.146,1.167-1.166.1.092m-4.331,2.9a.825.825,0,0,1,1.121-.268c-.619.5-.619.5-1.121.268m.13.464c-.417.1-.773.192-1.128.282-.014-.059-.027-.119-.041-.178.326-.254.649-.514,1.169-.1m-5.266,5.711-.946,0,.424-.315c.329-.266.538-.754,1.146-.622l-.984.674,1.14-.317.022.047-.8.529m-.085-2.023.113.135-1.853,1.505c-.02-.023-.04-.047-.058-.07l1.8-1.57m-.381-.581q.553-.124,1.1-.25c.227-.1.453-.194.678-.293l.058.1a9.408,9.408,0,0,1-.761.662c-.083.058-.261-.018-.394-.032H81.7l-.027-.185m1,1.426c.36-.63.847-.112,1.227-.288l.005.165-1.232.122m.389-1.171L84.2,96.256c.05.065.1.131.153.2L83.2,97.47c-.043-.052-.086-.1-.131-.156m-4.3,4.468a1.464,1.464,0,0,1-1.833.505c.694-.18,1.11-.941,1.833-.505m-3.441,1.707c.009.052.02.1.031.156-.752.011-1.317.881-2.175.4-.007-.056-.016-.113-.023-.169l2.167-.392m.237-4.538.284-.808c.036.014.072.029.11.041.047.171.1.342.151.541l-.473.311-.072-.086M57.726,97.91c-.581-.662-1.164-1.324-1.793-2.038.464.083.8.451,1.793,2.038m-5.507-5.176.085.475c.061.04.282.133.273.18a2.361,2.361,0,0,1-.273.54c-.225-.277-.38-.469-.543-.669.171-.194.315-.36.459-.525m-.255-.969c-.374-.5-.739-1.009-1.065-1.54-.083-.137-.013-.367-.013-.554.068-.005.137-.009.2-.013q.726,1.163,1.45,2.326l-.113.128a2.007,2.007,0,0,1-.462-.347M52.4,91.1c-.538-.838-1.047-1.693-1.57-2.543.223-.266.374-.254.536.052a12.537,12.537,0,0,1,.811,1.448A11.872,11.872,0,0,0,53.5,92.09a1.645,1.645,0,0,1,.117.453l-.225.065-.223-.529c-.255-.326-.538-.633-.761-.978m.928,3.434.863,1.32c-.759-.191-1.18-.849-.863-1.32m.045-.759c.049-.049.1-.1.146-.144.272.306.556.6.809.919.295.376.563.775.842,1.164l-.156.121-1.64-2.059M50.243,91.2a.314.314,0,0,0-.1-.225c-.9-.73-.9-.728-.865-1.606l-.363.3c-.1-.147-.189-.291-.3-.462l1.133-.374c.207.327.424.674.653,1.034l-.559.608c.025.031.049.063.074.094l.673-.383c.214.329.419.648.664,1.022-.232.094-.4.144-.55.223-.272.14-.469.178-.464-.234m.4.63c.6-.441.736-.421,1.139.219-.444.058-.874.371-1.139-.219m1.567.9-.61.207-.489-.545c.437-.009.881-.245,1.1.338m-.342,17c-.27.414-.563.862-.82,1.254-.315-.849.034-1.38.82-1.254m-2.435,3.446a2.185,2.185,0,0,0,.165-.52,1.008,1.008,0,0,1,1.45-.831,2.228,2.228,0,0,0-1.086,1.631c-.022.248-.335.48-.531.705a1.271,1.271,0,0,0-.243,1.367c-.441-.023-.59-.106-.491-.446.191-.651.487-1.272.736-1.907m-.446,3.524a.356.356,0,0,1-.284.04c-.263-.117-.257-.128-.568.1.092-.2.128-.293.176-.381.083-.146.171-.288.255-.432a6.01,6.01,0,0,1,.455.453.226.226,0,0,1-.034.223m-.3-4.907a2.141,2.141,0,0,0-.065.513,1.229,1.229,0,0,1-.586,1.414.869.869,0,0,0-.248.692,1.126,1.126,0,0,1-.439,1.092,2.739,2.739,0,0,0-.43.523c-.664-1.678-.014-3.22,1.768-4.234m-20.53.955c-.009-.05-.016-.1-.023-.149l10.18-2.079a37.692,37.692,0,0,1-10.157,2.229M45.236,122.2a17.807,17.807,0,0,1-2.378-5.4c-.092-.459-.133-.928-.2-1.392l.058.005c.712,1.628,1.32,3.311,2.162,4.869a45.325,45.325,0,0,0,3.378,5.419,58.273,58.273,0,0,0,4.362,5.085,32.436,32.436,0,0,0,2.9,2.5.631.631,0,0,0,1.034-.081c.214-.275.473-.516.7-.781.464-.538.419-.793-.112-1.273-1.218-1.1-2.475-2.166-3.612-3.345a48.453,48.453,0,0,1-6.216-8.16,29.5,29.5,0,0,1-1.687-2.955,6.226,6.226,0,0,1-.056-4.975c-.6,2.088.164,3.935,1.027,5.75a27.364,27.364,0,0,0,5.094,7.4c1.878,1.928,3.838,3.774,5.774,5.642.376.363.824.653,1.192,1.023.142.144.277.48.205.622-.408.8-.881,1.577-1.353,2.4a27.119,27.119,0,0,1-5.123-3.351,37.51,37.51,0,0,1-7.153-9m12.988,20.3a18.477,18.477,0,0,1-1.631,1.455c.525-.946,1.086-1.984,1.68-3,.068-.119.32-.131.486-.192.049.155.178.342.131.457a4.4,4.4,0,0,1-.665,1.281m-6.078,5.576c.378-4.774,3.579-9.578,7.466-10.875-4.331,2.371-6.47,6.18-7.466,10.875M61.531,135.6c-.6.291-1.192.615-1.788.926-.05-.029-.1-.056-.149-.085l.583-2.743.108.009v1.05c.034,0,.067,0,.1,0,.049-.486.1-.971.151-1.556.05.664.094,1.225.137,1.786h.18c.054-.6.11-1.194.164-1.791l.112-.022c.058.183.11.369.174.55a11.777,11.777,0,0,0,.432,1.108c.164.336.194.574-.2.763m4.137,4.6c-.433,1.615-.9,3.221-1.383,4.824-.234.777-.525,1.536-.831,2.286.4-1.509.842-3.007,1.175-4.529s.558-3.083.84-4.685a2.7,2.7,0,0,1,.2,2.1m.478-.014a21.806,21.806,0,0,1,.448-5.042l.23.038q-.34,2.5-.678,5m2.344-2.712a48.063,48.063,0,0,1,6.736-9.515c-.527.664-1.063,1.32-1.576,1.995-.541.709-1.09,1.414-1.579,2.157a19.331,19.331,0,0,0-1.264,2.281l6.739-6.432c.014.018.031.034.047.052q-4.551,4.729-9.1,9.463m13.574-18.637c-1.934,2.279-3.964,4.475-5.957,6.7-1.1,1.223-2.254,2.4-3.286,3.671-1.2,1.478-2.291,3.043-3.43,4.569-.363.487-.728.975-1.18,1.579-.032-.315-.052-.493-.067-.673a1.548,1.548,0,0,0-1.728-1.513,2.816,2.816,0,0,0-2.371,1.311c-.1-.176-.182-.3-.25-.43a8.312,8.312,0,0,0-3.013-3.142c-2.718-1.714-5.545-3.29-7.8-5.632a23.34,23.34,0,0,1-3.7-4.743.972.972,0,0,1-.018-1.058c1.02-1.912,2.013-3.84,3.006-5.766.293-.572.552-1.162.88-1.849l1.245,5.847.151-.029q-.3-1.689-.612-3.374c.018-.005.036-.009.054-.013q.483,2.237.962,4.473c.041-.007.085-.016.126-.025q-.38-2.126-.759-4.254l.083-.018.779,2.979c-.933-7.527-2.261-14.979-3.889-22.362.374.342.755.664,1.1,1.016.674.682,1.342,1.374,1.995,2.079.415.448.8.924,1.183,1.376-.005.016.027-.079.094-.281,4.23,3.842,9.342,5.052,14.885,5.058-.234.022-.441.031-.644.061s-.4.079-.6.119c.005.061.013.121.02.18a15.672,15.672,0,0,0,2.63-.34,3.484,3.484,0,0,1,1.523-.005,1.311,1.311,0,0,0,.493.018c.917-.27,1.827-.561,2.739-.847.02-.007.025-.059.054-.128l-1.547-.072a2.43,2.43,0,0,1,2.157-.635c-.016.059-.038.133-.07.243.178-.031.34-.058.552-.092l-.66.615a22.15,22.15,0,0,0,2.565-.531,3.683,3.683,0,0,0,1.317-.9,4.563,4.563,0,0,1,2.187-.883,2.265,2.265,0,0,0,1.308-.61c-.737.192-1.392.342-2.032.536a5.035,5.035,0,0,0-1.439.531c-.185.122-.608.128-.858.344s-.451.451-.725.728h-.734l-.1-.149,1.029-.788c-.014-.045-.056-.171-.1-.317l-.755.088-.023-.094,1.712-.685.032.076-.243.169.04.144,1.509-.408c-.009-.061-.016-.121-.025-.182H80.1c-.011-.041-.022-.085-.034-.126l.815-.518,1.658.126.013-.169-.406-.167c.36-.1.721-.21,1.081-.313a1.754,1.754,0,0,1,.763-.092c-.313.167-.624.336-.982.527a4.056,4.056,0,0,0,2.529-1.327l-1.77.5c-.029-.067-.059-.133-.09-.2.311-.218.621-.435,1.077-.754l-1.4-.076-.043-.085c.558-.237,1.113-.478,1.675-.709a.292.292,0,0,1,.2.025c.489.219.817.013.9-.55.013-.092.126-.171.182-.241l-1.572.288c.153-.457.394-.678.836-.5a1.305,1.305,0,0,0,1.29-.558c.023-.076-.083-.191-.119-.263.793-.322,1.585-.678,2.4-.96a8.642,8.642,0,0,1,1.076-.11,2.584,2.584,0,0,0,.612-.322c-.757-.621-1.293.016-1.926.189l.648-.6,1.8-.665c-.029-.074-.058-.147-.086-.219l-1.739.732c.207-.176.415-.354.622-.532.27-.234.743-.259.728-.8,0-.1.432-.236.678-.315.419-.135.856-.216,1.268-.367.128-.047.2-.248.228-.435-.331.171-.662.34-.908.466l-.437-.279a25.621,25.621,0,0,0,3.218-4.1c-.072,1.374-.122,2.64-.205,3.9-.228,3.419-.5,6.837-.687,10.258a4.081,4.081,0,0,1-.836,2.2c-2.657,3.752-5.3,7.516-7.963,11.263-1.013,1.423-2,2.871-3.131,4.2m6.711-3.619a10.716,10.716,0,0,1,.709-1.207,41.418,41.418,0,0,1,5.556-5.772,1.192,1.192,0,0,1,.234-.1C93.1,110.58,91,112.934,88.9,115.29l-.122-.076m22.632-1.912q-2.636,2.514-5.182,5.119c-2.29,2.354-4.527,4.761-6.8,7.137-1.374,1.441-2.763,2.865-4.151,4.29a1.479,1.479,0,0,1-.531.336,60.211,60.211,0,0,1,20.468-20.3c-1.272,1.137-2.576,2.241-3.81,3.419" transform="translate(0 -0.001)" fill="#1a0029"/>
        <path id="Контур_222" data-name="Контур 222" d="M32.541,43.732a3.356,3.356,0,0,1-2.822.585c.173.227.354.45.518.683.791,1.128,1.655,2.214,2.347,3.4a24.608,24.608,0,0,0,2.534,3.777A5.32,5.32,0,0,0,39.2,54.128a21.522,21.522,0,0,0,9.941-2.144c.577-.29,1.128-.633,1.68-.969A11.091,11.091,0,0,0,54.2,48c.617-.869,1.228-1.743,1.9-2.572a4.768,4.768,0,0,1,2.594-1.594c.469-.122.919-.318,1.38-.48l-.043-.2c-.183,0-.365,0-.549,0a10.629,10.629,0,0,1-1.827-.07c-1.246-.257-2.486-.568-3.7-.939a13.531,13.531,0,0,0-6.876-.518,25.541,25.541,0,0,1-7.714.43,11.833,11.833,0,0,0-6.815,1.673M49.41,50.565l1.493-.7.038.059a13.907,13.907,0,0,1-1.793,1.1c-1.588.674-3.189,1.338-4.829,1.869a12.262,12.262,0,0,1-5.4.344.7.7,0,0,1-.2-.056c-.451-.221-.9-.446-1.383-.683l1.773.408c.016-.041.032-.085.047-.126a7.153,7.153,0,0,1-3.95-2.255c-1-1.176-1.833-2.5-2.739-3.765l.113-.106A21.585,21.585,0,0,1,36.536,49.8a8.717,8.717,0,0,0,2.495,1.608,2.8,2.8,0,0,0,1.639.126c1.836-.34,3.707-.529,5.513-.982a17.128,17.128,0,0,0,6.079-3.1c1.225-.921,2.435-1.858,3.687-2.75a19.541,19.541,0,0,1-6.538,5.867M37.444,46.194c.047-.223.112-.563.254-.615a.833.833,0,0,1,.71.146,13.754,13.754,0,0,1,1.1,1.25,3.891,3.891,0,0,1,.234.351c.131-.408.228-.752.349-1.088.389-1.077,1.216-1.336,2.07-.583a16.945,16.945,0,0,1,1.372,1.52c.255-.4.522-.881.853-1.311a1.3,1.3,0,0,1,2.083-.113c.349.358.646.766.973,1.16,1.049-2.072,2.3-1.9,2.693-.4.367-.55.73-1.135,1.139-1.685.21-.286.48-.653.9-.414.378.216.335.615.221.989-.023.077-.029.158-.049.263.468-.344.9-.673,1.34-.977a1.072,1.072,0,0,1,.387-.076,1.181,1.181,0,0,1,.016.387c-.3.995-1.167,1.38-1.982,1.822a4.658,4.658,0,0,0-.685.453c-.408.327-.737.835-1.38.532-.509,1.1-1.667,1.737-2.414,1.342a3.629,3.629,0,0,1-3.941.415c-1.085.628-3.333.453-3.977-.308-.926.345-1.108.329-1.718-.149-.613.523-1.225.279-1.655-.924-.845.131-1.04-.565-1.351-1.106a1.107,1.107,0,0,1-.16-.495,6.668,6.668,0,0,1,.081-.84l.669.284c.174-.538.415-.6.878-.165.165.155.318.324.471.489s.268.308.505.579a4.065,4.065,0,0,1,.009-.734m4.428-2.914A18.076,18.076,0,0,0,44.781,43a22.773,22.773,0,0,1,8.083-.05c.308.05.615.088.924.13-2.063.133-4.13.248-6.189.417-.71.058-1.4.327-2.11.39-1.635.146-3.275.255-4.917.32-2.178.083-4.358.108-6.565.16A9.73,9.73,0,0,1,38.57,43.2c1.1.007,2.2.108,3.3.079" transform="translate(23.734 33.053)" fill="#1a0029"/>
        <path id="Контур_223" data-name="Контур 223" d="M41.717,26.771c-.005.07-.013.147-.016.194l2.43-1.46.108.169q-1.063.78-2.122,1.561c.027.047.054.094.083.14L45.349,25.7l.023.022L43.4,27.186l.059.119q1.748-.874,3.5-1.752l.043.07q-1.184.764-2.372,1.525c.02.041.04.081.059.121l3.489-1.563-1.128.773a1.218,1.218,0,0,0,.522-.124c1.621-.6,3.214-1.279,4.869-1.755a6.063,6.063,0,0,1,4.838.354c.464.264.907.567,1.358.853.02-.018.038-.036.058-.056l-.561-.606a12.884,12.884,0,0,1,3.549,5.47c-.311-3.836-3.962-8.617-6.8-8.946.09.081.173.156.342.313a12.389,12.389,0,0,0-5.977-.146,17.329,17.329,0,0,1,4.984.415,17.965,17.965,0,0,0-7.74.464c1.732-.13,3.5-.264,5.261-.4l.011.137a10.067,10.067,0,0,0-3.745.532c.59-.038,1.167-.155,1.752-.209a14.37,14.37,0,0,1,1.781-.061c.57.018,1.139.108,1.707.165,0,.045-.005.092-.007.137a21.447,21.447,0,0,0-9.9,1.84c-.016-.052-.034-.106-.05-.158l3.088-1.241a8.066,8.066,0,0,0-5.547,2.883A7.56,7.56,0,0,1,41.9,24.96a14.807,14.807,0,0,1,1.349-1.052,5.946,5.946,0,0,0-3.365,3.157,4.441,4.441,0,0,1,1.14-2.486A5.518,5.518,0,0,0,39.4,26.8l.3-1.245a3.6,3.6,0,0,0-.426,2.7c.874-.532,1.657-1.007,2.443-1.487" transform="translate(31.293 17.2)" fill="#1a0029"/>
        <path id="Контур_224" data-name="Контур 224" d="M30.835,27.109a62.106,62.106,0,0,1,6.887.588c1,.067,2,.011,3.11.011l-.692-.59,1.514.457a3.994,3.994,0,0,0-1.417-2.7l.833,1.5-.133.077a4.661,4.661,0,0,0-2.655-2.074l1.666,1.469-.059.054-2.014-1.273-.074.121c.362.324.725.648,1.086.973l-.07.162a9.3,9.3,0,0,0-9.405-.759c-.014-.065-.027-.129-.041-.194l3.185-1.192a11.5,11.5,0,0,0-4.3,1.23c-.02-.052-.038-.1-.058-.156q1.53-.626,3.058-1.25a10.856,10.856,0,0,0-2.176.466c-.689.236-1.34.586-2.007.885l-.056-.112L29.5,23.524A6.5,6.5,0,0,0,26.4,24.889c.216-.282.344-.451.473-.619a9.634,9.634,0,0,0-3.524,6.036c.187-.423.372-.847.558-1.27l.054.02q-.256.683-.513,1.363l.121.054A7.52,7.52,0,0,1,26.5,26.895c-.648.718-1.2,1.333-1.757,1.95.032.031.067.061.1.092a7.126,7.126,0,0,1,2.421-1.7l-1.7,1.327.086.11c.371-.221.727-.475,1.115-.658a10.389,10.389,0,0,1,4.063-.908" transform="translate(18.645 18.786)" fill="#1a0029"/>
        <path id="Контур_225" data-name="Контур 225" d="M35.494,31.441a13.643,13.643,0,0,1,3.836-.486.857.857,0,0,0,.637-.421c.174-.318-.045-.6-.329-.79a13.057,13.057,0,0,0-4.684-2.16,7.3,7.3,0,0,0-6.876,1.728c-.844.786-1.739,1.514-2.61,2.273a1.508,1.508,0,0,0-.146.173l.056.088,1.549-.714c.013.025.025.05.04.076q-.44.316-.88.628c.011.029.022.058.034.085a.87.87,0,0,0,.194-.023,7.1,7.1,0,0,0,.926-.36,1.6,1.6,0,0,1,1.106-.126,20.125,20.125,0,0,0,7.146.029m.924-2.48L39.41,30.2l-.011.21a5.513,5.513,0,0,1-.746.2c-.648.081-1.3.131-1.948.192-.257.025-.516.043-.727.061.151-.656.286-1.241.441-1.9m-1.75-.266-.146.277c-.183-.248-.617.356-.766-.362l.912.085m.775,1.029a2.462,2.462,0,0,1-2.255.9c-.475-.056-.586-.4-.671-.707.946.077,1.91.509,2.926-.194m-7.072.96a4.976,4.976,0,0,1,2.6-2.04c.29.838.558,1.61.838,2.423l-3.435-.383" transform="translate(20.224 21.858)" fill="#1a0029"/>
        <path id="Контур_226" data-name="Контур 226" d="M54.479,30.028l1.619.3.018-.11a5.972,5.972,0,0,1-1.07-.394c-1.261-.748-2.484-1.556-3.748-2.3a6.756,6.756,0,0,0-5.229-.948,13.3,13.3,0,0,0-4.995,2.682,2.351,2.351,0,0,0-.534.7.374.374,0,0,0,.455.574,5.37,5.37,0,0,1,3.349.049,14.286,14.286,0,0,0,8.364-.4,1.855,1.855,0,0,1,.856-.018c.513.081,1.016.214,1.523.326l.016-.081-.653-.335.029-.054M43.714,30a3.259,3.259,0,0,0-2.045.011c-.128.056-.336-.076-.509-.121a1.531,1.531,0,0,1,.338-.4.78.78,0,0,1,.545-.11c.486.149.791-.11,1.121-.381.5-.417,1.022-.818,1.626-1.3a4.155,4.155,0,0,0,1.088,2.588c-.721-.09-1.451-.142-2.164-.284m3.016-.48c-.369-.169-.428-.5-.38-.975A1.422,1.422,0,0,0,48.038,29c.119-.047.3.059.442.162a1.59,1.59,0,0,1-1.75.354M48.375,27.8a2.818,2.818,0,0,1-.788-.009c-.076-.014-.119-.223-.178-.347a5.542,5.542,0,0,1,.754-.1.477.477,0,0,1,.327.164c.034.047-.061.282-.115.288m.745,2.547a3.209,3.209,0,0,0,1.043-2.711l2.747,1.7a7.951,7.951,0,0,1-3.79,1.011" transform="translate(32.326 21.079)" fill="#1a0029"/>
        <path id="Контур_227" data-name="Контур 227" d="M35.864,40.25a5.208,5.208,0,0,1-.426-5.59.989.989,0,0,0-.236.049c-.121.07-.236.147-.351.228a6.526,6.526,0,0,0-1.863,2.619c-1.185,2.376-2.356,4.759-3.531,7.139A11.112,11.112,0,0,0,28.121,48.7a6.787,6.787,0,0,0,.964,4.049,4.649,4.649,0,0,1,.173-3.72l-.171-.022c-.1.11-.192.219-.288.329.153-.9-.068-1.89.764-2.576.086-.07.1-.25.115-.383a2.217,2.217,0,0,1,.04-.626c.288-.635.6-1.261.942-1.869a34.918,34.918,0,0,0,2.712-5.437,10.772,10.772,0,0,1,.585-1.194,3.925,3.925,0,0,0,1.255,3.45,6.062,6.062,0,0,0,3.5,1.176c-1.586-.545-1.961-.775-2.07-1.329.2.011.378.013.556.034a9.139,9.139,0,0,0,1.919.2c.741-.077,1.38-.117,1.842.579.02.029.085.027.137.043a2.728,2.728,0,0,0-1.946-1.793c-1.167-.3-2.342-.45-3.286.635" transform="translate(22.44 27.68)" fill="#1a0029"/>
        <path id="Контур_228" data-name="Контур 228" d="M48.742,42.143a17.106,17.106,0,0,1-3.086-3.808,37.17,37.17,0,0,0-2.63-3.516,2.477,2.477,0,0,0-.523-.43c.937,1.6,1.916,3.286,2.923,4.959a10.6,10.6,0,0,0,1.1,1.529c.95,1.074,1.964,2.09,2.907,3.169a5.722,5.722,0,0,1,1.5,2.293,9.679,9.679,0,0,1-.577,6.3c-.36.865-.754,1.716-1.131,2.574l.128.081c.3-.543.606-1.09.916-1.633a12,12,0,0,0,1.59-4.572,6.06,6.06,0,0,0-1.46-5.265c-.549-.563-1.074-1.149-1.651-1.682" transform="translate(33.944 27.464)" fill="#1a0029"/>
        <path id="Контур_229" data-name="Контур 229" d="M41.256,28.375a2.7,2.7,0,0,0-.2.336c.054.047.106.094.158.14a2.2,2.2,0,0,1,.266-.428,8.561,8.561,0,0,1,8.558-2.556,9.661,9.661,0,0,1,4.551,2.687,4.509,4.509,0,0,0,.957.558,9.16,9.16,0,0,0-.779-.881,8.553,8.553,0,0,0-13.515.144" transform="translate(32.792 19.958)" fill="#1a0029"/>
        <path id="Контур_230" data-name="Контур 230" d="M38.5,28.991a5.207,5.207,0,0,0-3.009-2.218,10.024,10.024,0,0,0-5.934.32A6.027,6.027,0,0,0,25.7,31.425c3.491-5.236,7.777-5.754,12.794-2.434" transform="translate(20.526 21.141)" fill="#1a0029"/>
        <path id="Контур_231" data-name="Контур 231" d="M44.2,38.312c.755-2.27-1.306-4.29-3.166-4.376.187.174.327.291.451.424a15.939,15.939,0,0,1,1.378,1.5,2.814,2.814,0,0,1,.176,3.166,5.315,5.315,0,0,1-2.39,2.2c-.174.092-.356.174-.534.261a2.132,2.132,0,0,0,.957-.207c1.344-.669,2.608-1.408,3.128-2.971" transform="translate(32.039 27.102)" fill="#1a0029"/>
        <path id="Контур_232" data-name="Контур 232" d="M37.758,38.8a3.6,3.6,0,0,1,3.079-.815c.883.088,1.772.156,2.658.2a.539.539,0,0,0,.435-.272.568.568,0,0,0-.167-.5,2.007,2.007,0,0,0-.849-.477,6.158,6.158,0,0,0-4.88,1.2c-.385.29-.727.633-1.088.953,0,.036.009.072.013.11a3.011,3.011,0,0,0,.8-.4" transform="translate(29.507 29.418)" fill="#1a0029"/>
        <path id="Контур_233" data-name="Контур 233" d="M36.7,30.526l-1.059.54-.018-.045.89-.737-.072-.119a14.317,14.317,0,0,1-5.151,2.2,18.128,18.128,0,0,1-5.587.259c2.773,1.507,8.8-.079,11-2.1" transform="translate(20.53 24.089)" fill="#1a0029"/>
        <path id="Контур_234" data-name="Контур 234" d="M51.1,47.027c-.041-.192-.09-.383-.119-.577a1.272,1.272,0,0,1-.029-.491c.241-.91.579-1.8.739-2.725a12.671,12.671,0,0,0,.023-2.14l-.1,0c-.09.59-.182,1.18-.282,1.849l-.471-.642-.146.068c.074.165.1.38.227.487.363.313.272.664.182,1.045a34.551,34.551,0,0,1-2.257,5.917c-.079.18-.153.362-.23.541l.151.07c.43-.8.86-1.608,1.3-2.434l.288.326c.056,0,.11,0,.165,0a1.508,1.508,0,0,1,.171-1.684l.272.437.119-.047" transform="translate(38.839 32.815)" fill="#1a0029"/>
        <path id="Контур_235" data-name="Контур 235" d="M43.46,25.743l.93-.415-.061-.122a10.7,10.7,0,0,0-3.788,1.971,4.287,4.287,0,0,0-.939,1.3c-.856,1.863.128,4.164,1.628,5.81-.333-.628-.617-1.139-.876-1.66a4.263,4.263,0,0,1,.133-4.655,6.683,6.683,0,0,1,2.973-2.23" transform="translate(31.374 20.129)" fill="#1a0029"/>
        <path id="Контур_236" data-name="Контур 236" d="M50.24,31.476c-1.212-.234-2.581-.421-3.907-.772s-2.592-.863-4.009-1.345l.7.491-.036.043-1.32-.559c1.473,1.389,6.959,2.669,8.57,2.142" transform="translate(33.279 23.426)" fill="#1a0029"/>
        <path id="Контур_237" data-name="Контур 237" d="M27.178,49h.441c-.5-1.205-1.016-2.326-1.441-3.477-.433-1.175-.782-2.38-1.2-3.678a14.533,14.533,0,0,0,1.252,4.788,1.525,1.525,0,0,1-.273,1.937c.43-.068.766-.122,1.228-.194-.241.523-.353.928.155,1.21.074.041.061.259.07.4.011.176,0,.353,0,.531.264-.534.374-1.054-.232-1.513" transform="translate(19.946 33.415)" fill="#1a0029"/>
        <path id="Контур_238" data-name="Контур 238" d="M32.848,34.18A4.878,4.878,0,0,0,34.629,27.3a5.653,5.653,0,0,1,.156,3.637,8.962,8.962,0,0,1-1.937,3.248" transform="translate(26.233 21.798)" fill="#1a0029"/>
        <path id="Контур_239" data-name="Контур 239" d="M51.389,28.638a18.507,18.507,0,0,1-8.27.707c2.043.942,6.551.585,8.27-.707" transform="translate(34.436 22.871)" fill="#1a0029"/>
        <path id="Контур_240" data-name="Контур 240" d="M47.937,33.671l-4.723-2.428-.077.115a13.462,13.462,0,0,0,4.8,2.313" transform="translate(34.45 24.951)" fill="#1a0029"/>
        <path id="Контур_241" data-name="Контур 241" d="M44.11,52.614l.038.827c-.059.029-.121.058-.18.088q-.437-.888-.876-1.772A4.238,4.238,0,0,0,44.509,54.4c-.027-.433-.054-.867-.085-1.363.257.223.462.4.669.585l.138-.156-1.013-.96-.11.108" transform="translate(34.415 41.335)" fill="#1a0029"/>
        <path id="Контур_242" data-name="Контур 242" d="M33.627,38.4c-.482-2.144.362-4.1.838-6.123-.714,1.978-1.549,3.95-.838,6.123" transform="translate(26.64 25.781)" fill="#1a0029"/>
        <path id="Контур_243" data-name="Контур 243" d="M41.294,54.975a3.087,3.087,0,0,1-.29.741c-.029-.013-.058-.027-.085-.041l.268-.811c-.777.451-.692,1.049-.547,1.678.725-.581,1.25-1.863.556-2.448a3.8,3.8,0,0,1,.1.881" transform="translate(32.38 43.201)" fill="#1a0029"/>
        <path id="Контур_244" data-name="Контур 244" d="M23.538,22.434v3.788a5.887,5.887,0,0,0,0-3.788" transform="translate(18.798 17.916)" fill="#1a0029"/>
        <path id="Контур_245" data-name="Контур 245" d="M48.455,51.736c-.133-.441-.192-.464-.633-.282.129.171.259.34.444.583L46.61,53.518c.054.059.11.119.165.178l2.552-2.434c-.038-.043-.077-.086-.115-.128-.248.2-.5.394-.757.6" transform="translate(37.224 40.837)" fill="#1a0029"/>
        <path id="Контур_246" data-name="Контур 246" d="M32.906,31.372l-3.871,1.606c.029.067.056.135.083.2L33,31.59c-.031-.074-.063-.146-.094-.218" transform="translate(23.188 25.054)" fill="#1a0029"/>
        <path id="Контур_247" data-name="Контур 247" d="M52.669,46.6c.065.133.1.219.119.254a1.1,1.1,0,0,0,.522-1.466l-.349.036a5.725,5.725,0,0,1-.216.617c-.14.286-.309.558-.46.84,0,0,.067.047.1.074l.282-.354" transform="translate(41.756 36.246)" fill="#1a0029"/>
        <path id="Контур_248" data-name="Контур 248" d="M36.029,49.463c0-.059.005-.119.007-.178l-1.826-.309c-.106-.149-.156-.3-.23-.308a.946.946,0,0,0-.363.094c.065.117.106.311.2.342a16.476,16.476,0,0,0,1.633.448,1.72,1.72,0,0,0,.579-.088" transform="translate(26.848 38.865)" fill="#1a0029"/>
        <path id="Контур_249" data-name="Контур 249" d="M38.61,50.089c-.083.144-.138.239-.27.471-.076-.491-.133-.858-.189-1.223L38,49.321c-.074.52-.149,1.038-.223,1.558l.1.034c.045-.081.088-.164.133-.246l.059.059-.079.671.117.077c.18-.435.77-.691.505-1.385" transform="translate(30.17 39.389)" fill="#1a0029"/>
        <path id="Контур_250" data-name="Контур 250" d="M27.537,11.2a7.9,7.9,0,0,0-2.211,3q1.155-1.46,2.308-2.919l-.1-.085" transform="translate(20.226 8.943)" fill="#1a0029"/>
        <path id="Контур_251" data-name="Контур 251" d="M50.886,47.375l-.1-.3-.1.094v1.043l.482.326c.058-.588.115-1.184.173-1.779l-.088-.032c-.11.2-.221.4-.363.646" transform="translate(40.477 37.319)" fill="#1a0029"/>
        <path id="Контур_252" data-name="Контур 252" d="M36.911,53.256c-.315,1.243-1.353,1.536-2.225,2.137,1.255-.086,2.412-1.13,2.225-2.137" transform="translate(27.701 42.531)" fill="#1a0029"/>
        <path id="Контур_253" data-name="Контур 253" d="M38.011,50.024c-.036-.038-.074-.076-.11-.112L36,51.693c.056.059.112.117.165.176.608-.621,1.432-1.027,1.842-1.845" transform="translate(28.754 39.861)" fill="#1a0029"/>
        <path id="Контур_254" data-name="Контур 254" d="M50.692,20.407a4.413,4.413,0,0,0,.583,3.205c-.2-1.085-.39-2.146-.583-3.205" transform="translate(40.432 16.297)" fill="#1a0029"/>
        <path id="Контур_255" data-name="Контур 255" d="M38.687,55.669a2.487,2.487,0,0,0,.462-2.29c-.153.759-.306,1.518-.462,2.29" transform="translate(30.897 42.63)" fill="#1a0029"/>
        <path id="Контур_256" data-name="Контур 256" d="M38.726,49.043q-.173.9-.345,1.793l.167.041a3.505,3.505,0,0,0,.21-.664c.032-.263.182-.209.335-.192-.079-.336-.158-.674-.239-1.011l-.128.032" transform="translate(30.652 39.141)" fill="#1a0029"/>
        <path id="Контур_257" data-name="Контур 257" d="M35.149,53.753A2.842,2.842,0,0,0,36.2,51.3c-.164.4-.239.84-.4,1.241a12.423,12.423,0,0,1-.648,1.214" transform="translate(28.071 40.968)" fill="#1a0029"/>
        <path id="Контур_258" data-name="Контур 258" d="M31.479,41.36c-.345.531-.628.964-.91,1.4.063.038.126.077.191.115.083-.108.165-.218.239-.311.081.085.153.162.34.36a1.086,1.086,0,0,1,.207-1.086c.059-.067-.034-.272-.067-.473" transform="translate(24.413 33.031)" fill="#1a0029"/>
        <path id="Контур_259" data-name="Контур 259" d="M38.823,51.1c.068,0,.137,0,.205,0q.067-.888.135-1.779c-.049-.007-.1-.014-.144-.02-.079.167-.156.335-.234.5l-.007,0,0,.013.007-.011q.016.65.036,1.3" transform="translate(30.969 39.367)" fill="#1a0029"/>
        <path id="Контур_260" data-name="Контур 260" d="M35.755,55.256c.327-.369.673-.757,1.041-1.174-1.1.272-1.29.5-1.041,1.174" transform="translate(28.477 43.19)" fill="#1a0029"/>
        <path id="Контур_261" data-name="Контур 261" d="M53.3,45.529l.11-.029-.324-1.781L53,43.63c-.117.347-.232.7-.39,1.169l.363-.192.333.923" transform="translate(42.014 34.844)" fill="#1a0029"/>
        <path id="Контур_262" data-name="Контур 262" d="M38.935,48.67a1.344,1.344,0,0,0,1.836-.083c-.624.027-1.23.054-1.836.083" transform="translate(31.095 38.803)" fill="#1a0029"/>
        <path id="Контур_263" data-name="Контур 263" d="M36.1,49.548l.081.153.363-.088c.04.121.074.232.11.344l-.038.277.153.09.8-1.074c-.072-.063-.142-.126-.214-.187-.119.164-.237.327-.354.491.058-.191.115-.38.209-.685l-1.113.68" transform="translate(28.833 39.027)" fill="#1a0029"/>
        <path id="Контур_264" data-name="Контур 264" d="M36.38,48.949l-1.61.628c.45.317.924.156,1.61-.628" transform="translate(27.768 39.092)" fill="#1a0029"/>
        <path id="Контур_265" data-name="Контур 265" d="M51.221,46.828l.214.034q.17-1.012.338-2.022l-.221-.036q-.167,1.012-.331,2.023" transform="translate(40.907 35.782)" fill="#1a0029"/>
        <path id="Контур_266" data-name="Контур 266" d="M53.944,43.346c.083-.293.165-.585.23-.818-.288-.1-.432-.155-.669-.241.085.4.153.727.221,1.054l.218.005" transform="translate(42.731 33.771)" fill="#1a0029"/>
        <path id="Контур_267" data-name="Контур 267" d="M38.7,50.246l-.437,1.693a1.5,1.5,0,0,0,.437-1.693" transform="translate(30.561 40.127)" fill="#1a0029"/>
        <path id="Контур_268" data-name="Контур 268" d="M43.7,51.9l1.065.676c.036-.034.068-.068.1-.1-.212-.264-.423-.531-.665-.836l-.5.264" transform="translate(34.899 41.237)" fill="#1a0029"/>
        <path id="Контур_269" data-name="Контур 269" d="M39.13,52.572l-.106-.027-.191.218c-.043-.11-.088-.219-.147-.365-.255.536-.218.743.275,1.157.067-.389.119-.685.169-.982" transform="translate(30.772 41.846)" fill="#1a0029"/>
        <path id="Контур_270" data-name="Контур 270" d="M39.783,56.075l.21.022c.072-.639.142-1.279.214-1.917-.072-.014-.144-.027-.216-.04q-.105.966-.209,1.935" transform="translate(31.772 43.237)" fill="#1a0029"/>
        <path id="Контур_271" data-name="Контур 271" d="M25.845,48.428l.169.054c.18-.563.707-1.018.477-1.838-.245.674-.444,1.228-.646,1.784" transform="translate(20.641 37.251)" fill="#1a0029"/>
        <path id="Контур_272" data-name="Контур 272" d="M49.89,48.3l.772,1.63.187-.086q-.378-.831-.752-1.658c-.068.04-.138.077-.207.115" transform="translate(39.844 38.484)" fill="#1a0029"/>
        <path id="Контур_273" data-name="Контур 273" d="M46.562,49.087c.034,0,.07.005.1.009.169-.2.336-.4.527-.626-.113-.13-.255-.293-.462-.532-.065.437-.117.793-.169,1.149" transform="translate(37.186 38.284)" fill="#1a0029"/>
        <path id="Контур_274" data-name="Контур 274" d="M46.287,49.455c-.257.29-.52.583-.8.9.61.147.835-.1.8-.9" transform="translate(36.328 39.496)" fill="#1a0029"/>
        <path id="Контур_275" data-name="Контур 275" d="M49.192,44.76c-.032-.4-.063-.8-.1-1.327-.7.577.079.928-.106,1.342l.21-.014" transform="translate(38.964 34.686)" fill="#1a0029"/>
        <path id="Контур_276" data-name="Контур 276" d="M26.733,31.128l1.91.552c.011-.067.02-.131.031-.2q-.944-.264-1.892-.527l-.049.173" transform="translate(21.35 24.721)" fill="#1a0029"/>
        <path id="Контур_277" data-name="Контур 277" d="M36.91,51.367l.113.092L38,50.333c-.685.081-.854.583-1.086,1.034" transform="translate(29.477 40.197)" fill="#1a0029"/>
        <path id="Контур_278" data-name="Контур 278" d="M30.467,41.13l.752-.808c-.813-.266-.8.266-.752.808" transform="translate(24.318 32.146)" fill="#1a0029"/>
        <path id="Контур_279" data-name="Контур 279" d="M51.468,43.923l-.21-.016q-.065.707-.13,1.417c.079.005.158.013.237.02l.1-1.421" transform="translate(40.832 35.065)" fill="#1a0029"/>
        <path id="Контур_280" data-name="Контур 280" d="M29.721,42.983c.356-.128.648-.234,1.052-.378-.577-.356-.827-.261-1.052.378" transform="translate(23.736 33.861)" fill="#1a0029"/>
        <path id="Контур_281" data-name="Контур 281" d="M38.669,48.75l1.264,1c-.108-.7-.567-.894-1.264-1" transform="translate(30.882 38.933)" fill="#1a0029"/>
        <path id="Контур_282" data-name="Контур 282" d="M41.487,47.885l-1.286.356a.966.966,0,0,0,1.286-.356" transform="translate(32.106 38.242)" fill="#1a0029"/>
        <path id="Контур_283" data-name="Контур 283" d="M27.346,46.863c-.349.387-.644.71-.971,1.074a1.124,1.124,0,0,0,.971-1.074" transform="translate(21.064 37.426)" fill="#1a0029"/>
        <path id="Контур_284" data-name="Контур 284" d="M38.009,55.756l.128.025.412-.919c-.131-.086-.261-.169-.423-.273-.041.421-.079.793-.117,1.167" transform="translate(30.355 43.596)" fill="#1a0029"/>
        <path id="Контур_285" data-name="Контур 285" d="M51.543,44.454c.067.013.133.025.2.036L52,43.119c-.079-.016-.156-.031-.236-.045-.074.459-.149.919-.223,1.38" transform="translate(41.164 34.4)" fill="#1a0029"/>
        <path id="Контур_286" data-name="Контур 286" d="M46.676,30.386c.025.056.05.112.074.169l1.867-.937c-.023-.047-.047-.094-.072-.14q-.933.456-1.869.908" transform="translate(37.277 23.541)" fill="#1a0029"/>
        <path id="Контур_287" data-name="Контур 287" d="M42.956,52.488c.056.387.11.757.176,1.209.358-.547.275-1.149-.176-1.209" transform="translate(34.306 41.918)" fill="#1a0029"/>
        <path id="Контур_288" data-name="Контур 288" d="M36.841,56.144l.164.147q.464-.521.928-1.038l-.149-.135-.942,1.025" transform="translate(29.422 44.019)" fill="#1a0029"/>
        <path id="Контур_289" data-name="Контур 289" d="M28.1,47.271l-.085-.065-.964.779c.207.061.347.1.487.146.018-.016.036-.032.054-.047l.507-.813" transform="translate(21.602 37.7)" fill="#1a0029"/>
        <path id="Контур_290" data-name="Контур 290" d="M32.675,48.138c-.221-.306-.444-.612-.745-1.025-.076.66.3.865.745,1.025" transform="translate(25.493 37.625)" fill="#1a0029"/>
        <path id="Контур_291" data-name="Контур 291" d="M42.549,52.863c.047.468.092.935.138,1.4l.146-.014a2.386,2.386,0,0,0-.126-1.4l-.158.014" transform="translate(33.981 42.206)" fill="#1a0029"/>
        <path id="Контур_292" data-name="Контур 292" d="M41.367,40.322l.21-.088q-.2-.569-.4-1.139l-.2.072.389,1.155" transform="translate(32.726 31.222)" fill="#1a0029"/>
        <path id="Контур_293" data-name="Контур 293" d="M53.645,39.886c-.191-.371-.38-.741-.57-1.113-.063.032-.124.065-.187.1l.574,1.112.183-.094" transform="translate(42.238 30.965)" fill="#1a0029"/>
        <path id="Контур_294" data-name="Контур 294" d="M29.239,50.057c.058.041.113.083.171.126.261-.356.523-.71.786-1.067l-.191-.11c-.254.351-.513.7-.766,1.05" transform="translate(23.351 39.138)" fill="#1a0029"/>
        <path id="Контур_295" data-name="Контур 295" d="M36.319,50.831c.3-.344.6-.687.9-1.032-.056-.045-.108-.092-.162-.137-.3.342-.606.682-.908,1.023.056.049.113.1.171.146" transform="translate(28.869 39.661)" fill="#1a0029"/>
        <path id="Контур_296" data-name="Контур 296" d="M50.39,40.018l-.121,0v1.487c.041,0,.081,0,.121,0Z" transform="translate(40.146 31.959)" fill="#1a0029"/>
        <path id="Контур_297" data-name="Контур 297" d="M34.165,48.782,32.82,48.3a1.02,1.02,0,0,0,1.345.482" transform="translate(26.211 38.573)" fill="#1a0029"/>
        <path id="Контур_298" data-name="Контур 298" d="M39.266,54.77c.478-.435.5-.736.088-1.16-.029.372-.056.741-.088,1.16" transform="translate(31.359 42.814)" fill="#1a0029"/>
        <path id="Контур_299" data-name="Контур 299" d="M52.761,41.876c.113.477.2.851.3,1.27.345-.189.252-.671-.3-1.27" transform="translate(42.137 33.443)" fill="#1a0029"/>
        <path id="Контур_300" data-name="Контур 300" d="M34.474,39.507q-.467.407-.935.815l.156.178c.306-.279.61-.559.915-.84-.047-.05-.092-.1-.137-.153" transform="translate(26.785 31.551)" fill="#1a0029"/>
        <path id="Контур_301" data-name="Контур 301" d="M42.115,53.877c.39-.295.39-.7,0-1.309Z" transform="translate(33.634 41.982)" fill="#1a0029"/>
        <path id="Контур_302" data-name="Контур 302" d="M28.688,44.575l.2.09c.18-.392.358-.784.538-1.176l-.189-.085c-.182.39-.365.781-.545,1.171" transform="translate(22.911 34.663)" fill="#1a0029"/>
        <path id="Контур_303" data-name="Контур 303" d="M35.778,50.24l.306-1.207c-.585.419-.678.691-.306,1.207" transform="translate(28.397 39.159)" fill="#1a0029"/>
        <path id="Контур_304" data-name="Контур 304" d="M38.04,53.5q.132-.634.264-1.27l-.205-.043q-.129.626-.259,1.255c.067.018.133.038.2.058" transform="translate(30.22 41.679)" fill="#1a0029"/>
        <path id="Контур_305" data-name="Контур 305" d="M37.353,50.09l.191.068.4-1.058-.2-.07c-.131.354-.261.707-.392,1.059" transform="translate(29.831 39.157)" fill="#1a0029"/>
        <path id="Контур_306" data-name="Контур 306" d="M40.724,48.549c-.243.261-.435.469-.692.748l.977-.261c-.081-.137-.171-.291-.284-.487" transform="translate(31.971 38.772)" fill="#1a0029"/>
        <path id="Контур_307" data-name="Контур 307" d="M35.515,53.233l-1.059.779c.04.054.079.108.119.164l1.083-.77-.142-.173" transform="translate(27.518 42.513)" fill="#1a0029"/>
        <path id="Контур_308" data-name="Контур 308" d="M37.878,53.892c.045.007.088.014.133.023.049-.279.1-.558.147-.836l-.169-.058c-.4.234-.151.568-.112.871" transform="translate(30.159 42.344)" fill="#1a0029"/>
        <path id="Контур_309" data-name="Контур 309" d="M49.115,49.607l.617.937.182-.138q-.313-.459-.63-.916c-.056.038-.113.077-.169.117" transform="translate(39.225 39.524)" fill="#1a0029"/>
        <path id="Контур_310" data-name="Контур 310" d="M37.361,54.729c-.23.317-.462.631-.692.946l.169.124.692-.946-.169-.124" transform="translate(29.285 43.708)" fill="#1a0029"/>
        <path id="Контур_311" data-name="Контур 311" d="M50.354,53.058c-.827-.067-1.194.468-1.619,1.047,1.763-.417,1.763-.417,1.993-.813l-.853.3.478-.532" transform="translate(38.921 42.369)" fill="#1a0029"/>
        <path id="Контур_312" data-name="Контур 312" d="M52.885,49.569l-.094-.065-.781.874c.155.115.261.192.482.358.146-.435.27-.8.392-1.167" transform="translate(41.538 39.535)" fill="#1a0029"/>
        <path id="Контур_313" data-name="Контур 313" d="M47.359,55.524c.025.067.05.133.076.2l1.577-.572c-.014-.076-.031-.153-.047-.228l-1.606.6" transform="translate(37.822 43.864)" fill="#1a0029"/>
        <path id="Контур_314" data-name="Контур 314" d="M47.695,54.573l.106.183L49.109,54c-.034-.061-.07-.122-.1-.183l-1.309.757" transform="translate(38.091 42.979)" fill="#1a0029"/>
        <path id="Контур_315" data-name="Контур 315" d="M48.779,54.61c.023.072.049.144.072.218l1.23-.673c-.032-.061-.065-.122-.1-.183l-1.2.639" transform="translate(38.956 43.102)" fill="#1a0029"/>
        <path id="Контур_316" data-name="Контур 316" d="M55.337,35.829l-.309-.48-.171.054c.074.424.149.847.246,1.39.615-.7,1.115-.732,1.561-.187a5.176,5.176,0,0,1,1.113,2.811c-.295-.658-.531-1.183-.768-1.71.065.608.252,1.166.354,1.739.138.781-.112,1.331-.64,1.543a15.225,15.225,0,0,0-.259-1.588,12.968,12.968,0,0,0-.556-1.416c.081.718.3,1.39.347,2.077a14.374,14.374,0,0,1-.131,2.014,9.575,9.575,0,0,1,1.261-.439,1.777,1.777,0,0,0,1.214-.914A3.177,3.177,0,0,0,59,38.5a4.962,4.962,0,0,0-1.246-2.331c-.372-.43-.775-.831-1.257-1.342a6.391,6.391,0,0,1,3.146,1.3,4.161,4.161,0,0,0-1.9-1.934l.094-.121,1.862,1.394c-.137-.279-.259-.529-.38-.777a.981.981,0,0,1,.255.272c.07.094.146.183.218.273A3.3,3.3,0,0,0,57.4,32.849l1.775-2.714.174.054c1.676,4.592,1.926,9.081-1.085,13.4.216-.156.378-.273.538-.392.02.016.038.034.056.05-.263.363-.523.727-.786,1.088a1.479,1.479,0,0,0,.682-.41,7.315,7.315,0,0,0,1.737-3.25,28.056,28.056,0,0,0,.628-7.819,8.847,8.847,0,0,0-.556-3.342c-.426-.987-.955-1.07-1.653-.245-.056.067-.106.138-.16.209a22.384,22.384,0,0,0-3.2,5.815c-.063.162-.13.322-.216.538" transform="translate(43.81 22.924)" fill="#1a0029"/>
      </g>
    </g>
  </g>
</svg>
