<svg xmlns="http://www.w3.org/2000/svg" xmlns:xlink="http://www.w3.org/1999/xlink" width="160" height="148.241" viewBox="0 0 160 148.241">
  <defs>
    <clipPath id="clip-path">
      <rect id="Прямоугольник_15" data-name="Прямоугольник 15" width="160" height="148.241" fill="#c0bcb8"/>
    </clipPath>
  </defs>
  <g id="Сгруппировать_22" data-name="Сгруппировать 22" clip-path="url(#clip-path)">
    <path id="Контур_331" data-name="Контур 331" d="M159.571,92.538l-.7.35-.165-.135.791-1.288-1.008-.1a2.261,2.261,0,0,1,.1-.579c.494-.974.071-1.074-.868-1.175-.634-.068-1.27-.118-1.957-.18l.262-.81-1.293-.215L156,85.255l-1.015-.381c1.215-.713.963-1.678.779-2.631a1.054,1.054,0,0,1-.046-.445c.284-1.021-.3-1.414-1.141-1.68-.281-.089-.706-.273-.746-.476-.124-.638-.542-.549-.957-.527-.261.014-.519.068-.778.1l-.028-.133,1.443-.816c-.518-.8-.518-.784-1.478-.787-.176,0-.356-.173-.527-.278-.449-.277-.9-.551-1.338-.847a4.475,4.475,0,0,1-.557-.484c-.272-.259-.49-.629-.811-.773a1.913,1.913,0,0,1-1.044-2.5,1.3,1.3,0,0,0-.057-.891c-.421-.974-.9-1.922-1.354-2.882-.374-.793-.716-1.6-1.119-2.379-.419-.808-.887-1.592-1.349-2.377-.129-.219-.331-.584-.468-.57a1.326,1.326,0,0,0-.688.456c-.506.53-.45,1.213-.574,1.885-.242,1.311-1.532,1.951-2.332,2.914-.094.113-.311.123-.506.193-.112-.231-.182-.56-.3-.577-.713-.1-.677-1.331-1.627-1.064-.069.019-.3-.232-.316-.375-.2-1.6-.681-3.192-.264-4.837.122-.483.026-.712-.651-.677a6.773,6.773,0,0,1-2.211-.484c-.144-.044-.217-.388-.28-.606-.035-.124.083-.322.022-.4-.475-.639-.969-1.265-1.474-1.882s-1.635-.991-2.144-.623a2.28,2.28,0,0,1-2.607.121c-.373-.192-.808-.261-1.18-.453a1.069,1.069,0,0,0-1.6.656,1.818,1.818,0,0,0,.241,1.6.9.9,0,0,1,.205,1.171,3.708,3.708,0,0,0-.431,1.45,14.314,14.314,0,0,0,.658,2.491,1.882,1.882,0,0,1-.831,2.036c-1.078.491-1.175.938-.225,1.641a3.783,3.783,0,0,1,1.522,2.448c.11.561.348,1.1.425,1.664a3.976,3.976,0,0,1-.131,2.792,8.964,8.964,0,0,1-2.979,2.827c-.432.306-.584.548-.32,1.105a11.92,11.92,0,0,1,.761,2.359c.183.776.256,1.579.35,2.188l-.519,1.745a2.278,2.278,0,0,0-.917.235c-.589.45-.853.152-1.119-.33a8.537,8.537,0,0,0-.541-.913c-.413-.569-.854-1.118-1.283-1.675l.16-.173,1.319.273.178-.276c-.32-.281-.648-.807-.959-.8-.912.029-1.145-.418-1.184-1.178-.024-.48-.122-.959-.12-1.439.007-2.108.019-2.237-2.062-2.286-1.959-.047-3.275-1.57-5.079-1.9-.2-.037-.358-.383-.518-.6-1.03-1.4-2.665-1.826-4.128-2.481-.475-.213-1.192.117-1.8.192-.052.006-.11-.035-.165-.055-.3-.971-.652-1.93-.9-2.914a1.551,1.551,0,0,0-1.595-1.391c-.734-.021-1.058-.47-1.01-1.2.107-1.639-.151-3.324.739-4.86.163-.28-.1-.828.075-1.077a5.121,5.121,0,0,1,1.609-1.705c1.051-.52.539-1.751,1.507-2.335a3.421,3.421,0,0,0,.35,0c1.072-.064,1.243-.526,1.447-1.515a7.186,7.186,0,0,1,1.394-2.249c.045-.065.283.005.432.008a2.1,2.1,0,0,0,2.182-1.265c.27-.605.647-1.166.878-1.784a5.224,5.224,0,0,0,.151-1.269l-.29-.081c.314-.437.625-.877.943-1.312.923-1.259.924-1.258.161-2.484.521-.227,1.009-.372,1.436.15.62.759,1.211,1.542,1.855,2.28a3.238,3.238,0,0,0,.8.5l.22-.228-1.6-1.9.975.188-.136-.981c.642.668,1.144.264,1.557-.152a23.551,23.551,0,0,0,1.658-1.907,1.548,1.548,0,0,0,.016-2.2,3.854,3.854,0,0,1-.619-1.07,10.223,10.223,0,0,1-.244-1.537A1.3,1.3,0,0,0,120.34,36c-.122-.385-.182-.79-.314-1.381-.833-.071-1.409-.668-1.446-1.783-.005-.16-.366-.41-.587-.442-.954-.139-1.915-.235-2.877-.293-.21-.013-.617.192-.62.3-.018.724-.307,1.492.334,2.14a1.147,1.147,0,0,1-.276,1.786,2.075,2.075,0,0,0-.574.888c-.22.551-.369,1.129-.548,1.7l-.272-.048-.355-1.013c-.2.249-.43.407-.412.528.076.511.261,1.006.336,1.517a2.6,2.6,0,0,1-.041,1.153c-.047.143-.683.281-.736.2a9.208,9.208,0,0,1-1.205-2.1c-.11-.314.3-.808.468-1.222.044-.107.119-.23.1-.329a5.53,5.53,0,0,0-1.488-3.223.664.664,0,0,0-1.169.237,7.94,7.94,0,0,0-.236,1.22c-.11.447-.265.882-.4,1.32-.38-.964-.719-1.779-1.015-2.609a1.059,1.059,0,0,1,.075-.595c.171-.556-.019-.854-.588-.974-.507-.107-1-.268-1.561-.422l1.141-2.036c-.181-.271-.4-.591-.61-.918-.388-.607-1.11-1.23-1.087-1.824.058-1.534-.876-2.628-1.324-3.912h-.982c.062-.428-.018-.933.19-1.122.95-.867,1.642-1.734.607-3.137.425,0,.684-.009.942,0,1.615.062,1.609.061,2.24-1.388.472-1.083.952-2.163,1.449-3.234.557-1.2.524-1.288-.743-1.653-.551-.159-1.11-.294-1.646-.492a5.2,5.2,0,0,0-3.179-.205c-1.079.273-1.332.694-.9,1.74a.833.833,0,0,1,0,.274h-.73c0,1.288,0,2.547,0,3.806,0,.638-.027,1.271.624,1.687.121.077.14.365.147.558a10.746,10.746,0,0,1-.009,1.5,7.779,7.779,0,0,1-.3,1.445c-.173.568-.408,1.118-.688,1.871a1.874,1.874,0,0,0-.69,2.6.953.953,0,0,1-.04,1.134,1.63,1.63,0,0,0,.376,2.376c.661.572,1.294,1.186,2,1.69a1.008,1.008,0,0,1,.4,1.313c-.156.493-.263,1-.4,1.541.3.046.421.063.537.082l.739.121a2.432,2.432,0,0,1-.2.818c-.564.812-1.08,1.756-2.429,1.234.073.742.13,1.312.184,1.883a3.011,3.011,0,0,1,.031.587c0,.043-.276.12-.3.088a1.25,1.25,0,0,1-.322-.581c-.037-.747-.015-1.5-.015-2.207l-1.547-.88.063-.3c1.291.546,1.893-.31,2.561-1.042C99.628,34.643,99,32.7,97.194,31.69a10.94,10.94,0,0,0-.678,1.431,2,2,0,0,1-.91,1.431,1.062,1.062,0,0,0-.5.839c.033.247.432.512.726.643.616.274,1.27.464,1.908.689l-.014.249a5.8,5.8,0,0,0-.965.282c-.2.1-.466.31-.485.494a14.354,14.354,0,0,0-.023,1.607c-1.489.127-2.826.174-4.138.382a1.359,1.359,0,0,1-1.409-.478,2.466,2.466,0,0,0-1.263-.867,2.686,2.686,0,0,1-2.706-2.183,1.157,1.157,0,0,0-1.727-.8c-.556.233-1.112.467-1.659.721-1.379.64-1.456,1.356-.305,2.278.22.177.463.7.369.831-.459.639-.1,1.14.133,1.684A4.275,4.275,0,0,1,84,42.085c.066.648-.275.781-.892.43.665-.618.418-.929-.134-1.511-.6-.635-.96-1.444-1.992-1.463-.068,0-.168-.178-.193-.287-.177-.77-.6-.532-1.082-.313a8.255,8.255,0,0,1-2.234.879,10.962,10.962,0,0,1-2.971-.14c-.42-.064-1.034-.4-1.127-.735-.18-.645.482-.843.985-.889.851-.077.787-.6.5-1.059a5.674,5.674,0,0,0-1.418-1.6,1.57,1.57,0,0,0-1.429-.129,1.184,1.184,0,0,1-1.333,0,24.2,24.2,0,0,1-5.98-2.941,2.946,2.946,0,0,0-1.985-.222c-.282.038-.512.636-.721,1-.266.469-.575.651-1.11.307l.216-.644-.746-2.264L59.078,32.79l-.36.647c-.242-.14-.592-.222-.706-.431-.413-.76-.71-1.582-1.122-2.342-.326-.6-.758-1.144-1.142-1.713l-.391.145c0,.251-.1.588.018.736.5.6.116.986-.309,1.268a6.621,6.621,0,0,1-1.36.514c-.014-.245-.022-.356-.027-.467-.045-.986-.245-1.1-1.052-.6-.667.413-1.32.846-1.985,1.263-1.059.664-2.122,1.321-3.017,1.878L46.8,32.328l-1.366,1.428.192.9L44.5,34.2l.887,1.954a6.276,6.276,0,0,0-1.87-.784,2.239,2.239,0,0,1-1.832-.947,4.365,4.365,0,0,0-3.546-2.031,3.733,3.733,0,0,1-2.571-1.059,2.273,2.273,0,0,0-2.185-.448,5.168,5.168,0,0,1-3.261-.265c-1.889-.65-3.705-1.641-5.83-1.406a1.706,1.706,0,0,1-2.054-1.114,4.979,4.979,0,0,0-1.358-.648,4.858,4.858,0,0,0-1.352.263.4.4,0,0,1-.247-.091q-.964-.653-1.922-1.316c-1.259-.87-1.353-.859-2.329.286a2.761,2.761,0,0,1-.6.671c-.395.223-.945.578-1.262.453-.9-.354-1.332.207-1.873.658a11.263,11.263,0,0,1-2.047,1.616A3.941,3.941,0,0,0,7.072,32.79a2.814,2.814,0,0,1-2.613,2.528,6.1,6.1,0,0,0-1.33.242,1.279,1.279,0,0,0-.582.641c-.223.477-.366.992-.592,1.634.817.577,1.79,1.281,2.78,1.959a3,3,0,0,1,1.341,1.841,1.635,1.635,0,0,0,.973,1,2.17,2.17,0,0,1,1.492,1.73c.5,1.76.444,1.775-1.445,1.5l-.09-.011c-.594-.065-.949-.268-.8-.989.166-.8-.332-1.034-1.016-.92a2.728,2.728,0,0,0-.9.383c-.739.439-1.463.9-2.189,1.364-.674.428-1.343.865-2.1,1.355.364.4.574.813.9.932.761.282.925.923,1.2,1.544.615,1.369,1.492,1.984,2.778,1.709,1.061-.227,2-.309,2.712.534.858-.481.961-2.029,2.562-1.373l-.87.631a15.479,15.479,0,0,1,.678,1.615c.178.6.1,1.263-.67,1.28a2.906,2.906,0,0,0-1.963,1.052,2.4,2.4,0,0,1-1.877.544c-.762-.2-.9.1-1.068.626a5.858,5.858,0,0,1-.281.9c-.519,1-1.069,1.989-1.567,2.907a11.464,11.464,0,0,1,1.078.912,6.384,6.384,0,0,1,.572.834,3.271,3.271,0,0,0,.026,1.185c.231.523.665.952.949,1.457.685,1.22,1.7,1.321,2.568.233a1.542,1.542,0,0,1,.334-.244,5.211,5.211,0,0,1,.51,3.668,6.053,6.053,0,0,1,2.275-.634c.711.1,1.339.793,2.07,1.27l.191-.772,1.635.075c-.249,3.065-.862,3.785-3.308,5.543A29.268,29.268,0,0,1,8.69,75.146c-1.162.658-2.039,1.784-3.5,1.98-.311.042-.64.537-.8.9-.073.166.249.5.355.7L9.806,76.1l.536.794.216-.116-.347-1,1.584-.258-.07-.066,1.526-.691a13.955,13.955,0,0,1,1.121-1.244c.527-.456,1.115-.843,1.67-1.268.09-.069.135-.193.218-.276.785-.785,1.591-1.549,2.355-2.354.616-.649,1.2-1.333,1.75-2.037.063-.081-.111-.5-.268-.577-.981-.512-.5-.939.033-1.4a4.835,4.835,0,0,0,1.506-1.8,4.32,4.32,0,0,1,2.182-2.656,4.466,4.466,0,0,1,1.037-.15l.035.274a3.255,3.255,0,0,1-.448.252A1.7,1.7,0,0,0,23.094,63.2c-.026.837-.709,1.585-.461,2.516a2.435,2.435,0,0,1-.075.82,2.345,2.345,0,0,0,.933,0,4.85,4.85,0,0,0,2.41-1.859.771.771,0,0,1,.568-.291,1.273,1.273,0,0,0,1.157-1.8,5.1,5.1,0,0,1-.19-.73l1.963-.178-.444.511a7.69,7.69,0,0,1,1.083.336c.368.173.687.447,1.045.645a6.49,6.49,0,0,0,.714.282c.261.106.6.153.762.346a2,2,0,0,0,1.938.673c.714-.079,1.6-.3,2.127.015a2.879,2.879,0,0,0,2.286.584,10.247,10.247,0,0,0,1.038,1.186c.6.491,1.535.489,1.927,1.31.128.268.253.625.482.742a4.8,4.8,0,0,1,2.219,2.742A14.486,14.486,0,0,0,45.36,72.6c.287.53.595,1.048.981,1.725l.393-1.409c.173.622.158,1.147.41,1.365a3.058,3.058,0,0,1,1.231,2.505,2.942,2.942,0,0,0,.382,1l.228-.065v-.954a4.176,4.176,0,0,0,.432.73,4.091,4.091,0,0,0,.6.421,2.115,2.115,0,0,0,.2-.634,14.193,14.193,0,0,0-.171-1.43l1.883,1.846.347-.054L52.5,79.3l-.455.261c.837,2.129.837,2.129,1.915,1.795a2.2,2.2,0,0,0,1.383,2.107c.219.088.372.5.432.786.162.771.257,1.556.373,2.3l-1.152.385c.368.249.734.422.715.494-.282,1.074.754,1.072,1.221,1.5.926.841,1.92,1.607,2.87,2.423a1.5,1.5,0,0,1,.471.638c.261.861.5,1.732.686,2.613a8.453,8.453,0,0,1,.3,2.247c-.137,2.008-.8,4.073-.493,5.993.32,2-.53,4.162.744,6.027.077.113.019.31.083.439.394.791.785,1.585,1.216,2.357.443.792.948,1.549,1.392,2.341.284.506.483,1.059.76,1.569.324.6.676,1.178,1.047,1.745a1.265,1.265,0,0,0,.523.452,11.024,11.024,0,0,1,1.434.527,7.361,7.361,0,0,1,2.35,1.716,29.15,29.15,0,0,1,1.781,3.8,11.238,11.238,0,0,0,1.181,1.949c.414.539,1.03.927,1.416,1.481a1.375,1.375,0,0,1-.087,1.086c-.058.137-.515.1-.79.147l-.114.276a21.06,21.06,0,0,0,2.389,1.464,2.087,2.087,0,0,1,1.508,2.262,1.365,1.365,0,0,0,.4.859c.756.762,1.544,1.494,2.355,2.2a2.979,2.979,0,0,0,.854.357c.079-.366.306-.786.2-1.083a1.511,1.511,0,0,0-.848-.882c-.649-.161-.733-.627-.905-1.1a19.751,19.751,0,0,0-1-2.61,20.07,20.07,0,0,0-1.644-2.314,12.551,12.551,0,0,0-1.587-2.053c-1.038-.916-1-2.1-1.2-3.295a4.169,4.169,0,0,1,3.095,4.213c.877.7,1.706,1.3,2.47,1.981.411.365.663.908,1.075,1.271.439.387.928.657.7,1.391-.05.159.193.518.389.629a4.893,4.893,0,0,1,1.876,1.649,28.636,28.636,0,0,0,2.546,2.643,2.646,2.646,0,0,1,.706,2.729c-.409,1.154-.269,1.617.771,2.232,1.224.725,2.252,1.845,3.8,1.959.187.014.358.205.543.3.839.44,1.667.906,2.526,1.3.815.379,1.651.719,2.5,1.016,1,.352,1.983.988,3.109.521,1.778-.737,2.525-.613,3.861.746,1.066,1.084,2.131,2.155,3.813,2.167a3.247,3.247,0,0,1,.684.223c.9.228,1.8.444,2.743.674.589.641,1.32,1.379,1.976,2.178a2.351,2.351,0,0,1,.5,1.167,1.464,1.464,0,0,0,1.326,1.433,2.467,2.467,0,0,1,1.524.961A1.913,1.913,0,0,0,118.625,157a7.658,7.658,0,0,1,1.121.21l-.28.885c.536-.321.923-.486,1.324.144.091.143.586.1.863.02.115-.031.231-.384.2-.564-.108-.607.481-1.525,1.189-1.461.461.041.925.554,1.293.944a5.577,5.577,0,0,1,.632,1.29c.454-.587.98-.959,1-1.351a1.915,1.915,0,0,0-1.287-1.813,2.548,2.548,0,0,0-2.4-.129,5.244,5.244,0,0,1-2.553.57c-.429-.006-.832-.678-1.275-1.013a3.3,3.3,0,0,1-1.319-3.661,27.376,27.376,0,0,0,.461-3.039,1.226,1.226,0,0,0-.23-.9,3.651,3.651,0,0,0-3.069-1.235c-1.078.115-2.167.127-3.252.167-.834.031-.894-.148-.564-.956a18.509,18.509,0,0,0,1.169-3.355,8.547,8.547,0,0,1,.9-2.885c.364-.607.068-1.04-.579-1.068a17.972,17.972,0,0,0-2.387.125,2.34,2.34,0,0,0-2.411,2.347,3.38,3.38,0,0,1-1.056,1.69c-.166.174-.724-.06-1.1-.039a7.724,7.724,0,0,0-1.06.2,5.076,5.076,0,0,1-1.836.329c-2.066-.446-2.824-2.248-3.64-3.9a8.188,8.188,0,0,1-.663-2.277,15.738,15.738,0,0,1-.167-2.608c0-.4.074-.99.33-1.15.887-.554.623-1.179.419-1.949a1.9,1.9,0,0,1,.5-2.112,4.511,4.511,0,0,1,2.179-1.565c.122-.026.182-.294.3-.428.169-.2.326-.462.548-.554a7.338,7.338,0,0,1,4.3,0c1.027.192,2.039.465,3.187.732a3.364,3.364,0,0,0-.137-.535c-.513-.965-.19-1.513.893-1.56.625-.028,1.249-.11,1.87-.191a1.926,1.926,0,0,1,1.9.538,1.4,1.4,0,0,0,1.854.343,1.232,1.232,0,0,1,1,.028c.824.533,1.551,1.17,1.364,2.336a1.515,1.515,0,0,0,.111.883q.9,1.724,1.891,3.4c.155.26.585.644.7.588.384-.189.931-.525.966-.853a8.264,8.264,0,0,0-.106-2.736,31.693,31.693,0,0,0-1.2-3.5,3.484,3.484,0,0,1,1.677-4.533,8.582,8.582,0,0,0,1.323-1.209,4.485,4.485,0,0,1,.722-.647,14.336,14.336,0,0,0,3.248-2.434,2.286,2.286,0,0,0,.526-2.334c-.049-.32-.235-.712-.116-.949.713-1.421,1.507-2.8,2.251-4.209a2.74,2.74,0,0,0,.433-1.164c0-.579.327-.7.743-.839.484-.158,1.148-.192,1.407-.53a3.679,3.679,0,0,1,2.68-1.24,4.232,4.232,0,0,0,.868-.335c-1.131-.2-1.513-.8-1.117-1.8.374-.943.628-1.981,1.849-2.237.153-.032.255-.255.41-.335a1.83,1.83,0,0,1,.788-.3,2.582,2.582,0,0,0,2.084-1.366.881.881,0,0,1,.519-.38c.7-.211,1.419-.379,2.237-.591.293.66-.352.789-.715.96a1.445,1.445,0,0,0-.937,1.724,1.835,1.835,0,0,0,.808.96c.146.094.625-.112.8-.314a7.45,7.45,0,0,1,3.4-2.172,18.209,18.209,0,0,0,3.411-1.921c.175-.107.217-.431.32-.655l-.824-.378a2.8,2.8,0,0,0,.073-.463c0-.271-.025-.543-.04-.814-.244.156-.566.259-.718.48-.388.564-.7,1.181-.971,1.651a7.644,7.644,0,0,1-1.486.2,6.079,6.079,0,0,1-1.292-.367l.113-.4,1.495.373.612-.752c-.971-.612-2.329.169-2.848-1.232l-.272.141.233,1.2A2.946,2.946,0,0,1,143.036,94c.071-.447.09-.9.132-1.354l-.266-.124a3.734,3.734,0,0,0,.388-.242c.436-.35,1.074-.65.741-1.354a1.49,1.49,0,0,0-1.731-.845,24.92,24.92,0,0,0-3.016.814,16.575,16.575,0,0,0-1.985,1,3.3,3.3,0,0,1,1.77-1.769,5.462,5.462,0,0,0,1.2-.939c.4-.339.764-.975,1.173-1a34.379,34.379,0,0,1,5.331,0c1.711.164,3.229.085,4.407-1.34a6.952,6.952,0,0,1,.7-.709,3.467,3.467,0,0,1,2.263-.641c-.456,1.159-.884,2.185-1.264,3.227a6.809,6.809,0,0,1-1.544,2.748c-.138.54-.2.838-.291,1.125-.078.241-.338.586-.262.682a1.263,1.263,0,0,0,.787.471c.84.06,1.689,0,2.532.033.556.024,1.108.137,1.584.2v1.025a3.113,3.113,0,0,0,.8-.234c.5-.305.956-.673,1.519-1.078V94.9c.243.127.546.188.678.373.513.716.717.267,1-.192a2.412,2.412,0,0,0-.112-2.54M110.646,48.145c-1.183.17-1.553-.627-2.256-1.353a2.355,2.355,0,0,1,2.256,1.353M9.818,44.452a2.007,2.007,0,0,1-.045-.387l1.187-.1.009.5c-.384,0-.769.007-1.151-.017M47.947,71.575c-.032.345-.568.644-.878.964l-.26-.237c.563-.65.976-1.33.364-2.217l.332-.046a4.351,4.351,0,0,1,.442,1.537m1.593,3.517L48.8,74.41l.552-.682h.264L49.821,75l-.281.1M63.159,92.91a13.019,13.019,0,0,0-1.8-2.549,4.671,4.671,0,0,1-1.934-2.65c.222.141.611.259.635.428.089.626.459.813,1,.99a2.7,2.7,0,0,1,.986.754,3,3,0,0,1,1.113,3.027M110.23,94.3c-.562.287-1.115.592-1.677.88-.539.276-1.076.625-1.563-.118-.076-.117-.364-.1-.824-.2.639-.5,1.064-.87,1.528-1.184.909-.614,1.84-1.2,2.762-1.79a.687.687,0,0,0,.079-.043q.464-.4.925-.8l.807.938.588-.631a3.453,3.453,0,0,1,.663.656c.287.5.473,1.037,1.2,1.054.142,0,.326.316.4.52.239.626.435,1.267.74,2.178a3.407,3.407,0,0,0-3.164-.051c-.5.174-1.286-.476-2.007-.78l.717-1.173c-.546.251-.869.388-1.18.547m4.641,3.64c-.1.193-.359.308-.555.447A3.148,3.148,0,0,0,113.179,102a2.785,2.785,0,0,1-.482,2.465c-.433.585-.818.528-1.12-.138a1.869,1.869,0,0,1-.172-.511c-.043-.327-.049-.659-.07-.989l-.151-.044c.312-1.184.633-2.366.932-3.553.09-.358.1-.738.188-1.1.05-.195.16-.461.314-.526a11.745,11.745,0,0,1,1.7-.556,2.351,2.351,0,0,1,.745.061,3.026,3.026,0,0,1-.188.826m2.514,2.639a2.393,2.393,0,0,0-1.629-3.376c.393-.255.662-.553.968-.6.36-.051,1.062.074,1.079.2.116.844.888.653,1.338.933a.56.56,0,0,0,.5-.211c.326-.94.937-.485,1.358-.218a1.454,1.454,0,0,1,.831,1.709,1.527,1.527,0,0,1-.936-.1,5.291,5.291,0,0,1-.961-.943,9.343,9.343,0,0,1-.867,4.225c-.84-.469-.345-1.836-1.677-1.625m.481,4.372a16.908,16.908,0,0,1,2.328-1.29,17.067,17.067,0,0,1,2.669-.547c-.814,1.415-3.873,2.433-5,1.837m9.121-3.394a1.56,1.56,0,0,1-.91.283c-.877.093-1.759.147-2.639.207a3.083,3.083,0,0,1-.557-.115,2.924,2.924,0,0,1,2.269-.944c.472-.062.926-.253,1.4-.352a1.182,1.182,0,0,1,.527.046c.01.3.079.7-.085.875" transform="translate(0 -10.223)" fill="#c0bcb8"/>
    <path id="Контур_332" data-name="Контур 332" d="M596.33,33.936a1.034,1.034,0,0,0,.758,1.3c.584.238,1.132.564,1.7.851l-.076.211H597.25c-.4,1.1.529,1.572.895,2.282a2.064,2.064,0,0,0,2.367,1.031.965.965,0,0,1,.78.315,1.827,1.827,0,0,0,1.756.846,20.671,20.671,0,0,1,3.225.249,28.594,28.594,0,0,1,2.868.775l-.573-1.3,1.706.486c-.935.614-.573,1.125-.1,1.807.552-1.175,2.577-1.361,1.649-3.308.624.349,1.391.617,1.546,1.087.194.588.349.959.887,1.115a3.82,3.82,0,0,0,.675,1.177c.19.225.5.348.7.57a3.092,3.092,0,0,1,.356.67c-.229.1-.453.216-.688.3a3.2,3.2,0,0,1-.5.091c.033.5.062.959.106,1.635.5-.355.839-.58,1.162-.826.607-.464,1.057-.444,1.411.324a7.176,7.176,0,0,0,1.8,1.89c1.018,1,1.031,2.251,1.442,3.405.037.1-.084.28-.157.408a9.123,9.123,0,0,1-2.223,3.111c-.433.321-.354.7-.069,1.1s.523.843.783,1.27a5.72,5.72,0,0,0-1.345.437,2.612,2.612,0,0,1-2.23.292c-.692-.171-1.709-.777-1.87.69-.007.069-.127.122-.188.188a1.49,1.49,0,0,0-.249,2.1,1.886,1.886,0,0,0,2.48.506c.6-.5,1.081-.843,1.831-.388.078.047.29-.041.387-.126.774-.679,1.245-.612,1.6.341A2.909,2.909,0,0,0,621.2,62.8a4.275,4.275,0,0,1,.686.457c-.913.15-.472.5-.265.819A22.016,22.016,0,0,0,622.9,66a.86.86,0,0,0,.839.109c.642-.516,1.048-.288,1.454.275a4.581,4.581,0,0,0,2.7,1.634c.373.1.741.225,1.114.325.194.052.436.16.581.089a.567.567,0,0,0,.21-.513,4.29,4.29,0,0,0-.625-1.421c-.555-.669-1.263-1.208-1.846-1.857-.184-.2-.17-.587-.247-.887.289.13.681.182.849.4a2.268,2.268,0,0,0,1.874,1.068,1.5,1.5,0,0,1,.81.461,6.2,6.2,0,0,1,.657.81l.317-.042c.125-1.3.255-2.6.368-3.907a.55.55,0,0,0-.117-.425,1.53,1.53,0,0,1-.633-1.911c.024-.07-.09-.233-.18-.288-.554-.342-1.128-.651-1.678-1a2.452,2.452,0,0,1-.822-.662c-.39-.643-.684-1.344-1.1-2.189l.775-.519-.948-1.3a4.4,4.4,0,0,1,1.047.277c.748.459,1.938.851,2.1,1.487.408,1.6,1.635,2.222,2.865,3.263l.516-2.3a1.854,1.854,0,0,0,1.19-2.2l.839-.154c.484-1.833.2-2.207-1.972-2.631.023-.312.047-.626.075-1h-.863l-1.971-2.785-1.256.34.148-.3a7.236,7.236,0,0,0-1.771-1.548c-.9-.369-.921-1.025-1.02-1.729a7.626,7.626,0,0,1-.007-1l1.75-.24a2.852,2.852,0,0,0-1.089-.656c-.37-.153-.736-.315-1.149-.492.475-.66,1.791-.343,1.532-1.353-.16-.621-.879-1.1-1.312-1.6l-.889.3c.688-1.394.546-1.828-.817-2.283a13,13,0,0,0-1.5-.331l-.751-1.252c-.223-.412-.242-.988-.531-1.343a4.449,4.449,0,0,0-1.5-1.095c-.17-.083-.542.321-.849.42a4.968,4.968,0,0,1-.982.1l.143-.942-1.043-.152c.2-.734.086-1.257-.724-1.385-.1-.016-.21-.275-.226-.431a2.054,2.054,0,0,0-1.722-1.925c-.449-.109-.887-.259-1.33-.391q.007-.127.013-.255a3.622,3.622,0,0,0,.967-.263c.2-.117.446-.484.392-.645a4.5,4.5,0,0,0-4.475-3.217c-.913,0-2.049-.424-2.311,1.163-.2-.414-.258-.736-.383-1.03-.086-.2-.3-.544-.388-.524-.989.218-2.173.243-2.881.83a11.728,11.728,0,0,1-1.792,1.154l-.588,1.436.447.522-1.091.21.589,2.466.3.083-1.282,1.509a2.05,2.05,0,0,1-.209-1.043c0-.385.007-.77-.007-1.154a5.945,5.945,0,0,1-.05-1.981,30.846,30.846,0,0,1,1.553-3.321c.133-.275.269-.549.446-.911-1.035,0-1.911-.06-2.774.026a2.25,2.25,0,0,0-1.229.557,9.079,9.079,0,0,0-2.715,4.778,29.87,29.87,0,0,0-.558,3.041c-.058.512.246,1.07.166,1.572m12.6-7.772c.33.35.835.646.959,1.058.548,1.82.558,1.866,2.47,1.7a2.074,2.074,0,0,1,.29,0,4.8,4.8,0,0,1-.457,1.494,1.433,1.433,0,0,1-1.1.362c-.231-.014-.438-.418-.7-.691l-.732,1.486-.4-.077c.535-1.813.746-3.581-.6-5.134l.275-.193" transform="translate(-488.232 -19.608)" fill="#c0bcb8"/>
    <path id="Контур_333" data-name="Контур 333" d="M377.1,30.579c.282.872-.194,1.333-.546,1.95a2.023,2.023,0,0,0-.185,1.253c.024.143.592.2.912.29.109.031.219.059.359.1l-.361,1.149,2.882-.485.1.366c-.75.333-1.509.648-2.247,1.007-.245.119-.552.314-.625.54-.127.394.818,1.637,1.258,1.706a6.965,6.965,0,0,0,4-.043,2.684,2.684,0,0,1,2.885,1.17,12.691,12.691,0,0,0-7.065,1.088c.5,1.507,1.051,2.7,2.731,2.914a4.778,4.778,0,0,1,1.748.7,1.6,1.6,0,0,1,.674.913c.292,1.233.8,1.663,2.061,1.536.929-.093,1.852-.242,2.781-.333a2.791,2.791,0,0,0,1.825-.847,2.06,2.06,0,0,1,1.185-.544,1.633,1.633,0,0,0,1.59-1.088,3.423,3.423,0,0,1,.484-.661c.28,1.266,1.86.793,2.153,1.919,1.92.878,3.4.609,4.661-.74l-.534-1.7-1.352.671,1.107-1.74c.182.15.335.383.495.387.437.012,1.233-.008,1.254-.128.1-.583.115-1.691-.048-1.729-1.018-.238-1.36-1.15-2.031-1.71a1.626,1.626,0,0,0-.692-.349,2.784,2.784,0,0,1-1.991-2.343,5.619,5.619,0,0,0-.606-3.225,5.313,5.313,0,0,1-.286-1.312,7.316,7.316,0,0,1,.335-4.572c.888-2.137.707-2.212-1.559-2.5a1.4,1.4,0,0,0-1.49,1.734c.148.619-.152.762-.678.635a9.531,9.531,0,0,1-.907-.331,6.091,6.091,0,0,0-.187,1.533c.212,1.457.491,2.906.8,4.347a1,1,0,0,1-.589,1.305c-.146-.5-.307-.946-.4-1.4-.1-.5-.133-1.013-.19-1.521a3.043,3.043,0,0,0-2.726-2.583c.582,1.869.235,2.462-1.441,2.327.751-.935.085-1.324-.62-1.709-.237-.129-.454-.3-.681-.446-1-.663-1.37-.51-1.706.643-.075.257-.335.461-.568.765a22.727,22.727,0,0,0-.022-2.673c-.1-.8-.625-.982-1.284-.524-1.337.929-2.7,1.833-3.964,2.85-.391.314-.819,1.059-.7,1.435" transform="translate(-308.215 -19.806)" fill="#c0bcb8"/>
    <path id="Контур_334" data-name="Контур 334" d="M324.012,13.048a3.673,3.673,0,0,1,2.6,2.611,9.885,9.885,0,0,0,.513,1.01c1.015-.685,1.641-1.713,3.009-1.681.821.019.845-.966.923-1.72.063-.618.207-1.54.611-1.744a2.607,2.607,0,0,0,1.35-1.653,2.213,2.213,0,0,1,.77-.849c1.215-.939,2.43-1.883,3.691-2.757.65-.45.643-.8.146-1.353a21.2,21.2,0,0,1-1.914-2.4,1.508,1.508,0,0,0-1.9-.776c-1.35.577-2.172-.186-3.06-.924a4.685,4.685,0,0,0-.8-.592,1.488,1.488,0,0,0-.827-.212c-.981.15-1.957.347-2.925.568a7.087,7.087,0,0,0-1.054.409A7.688,7.688,0,0,0,325.6,3a2.077,2.077,0,0,1-.038,1.958c-.45,1.171-1.2,2.382-1.147,3.549a8.318,8.318,0,0,1-.887,3.6c-.223.556.023.821.485.937" transform="translate(-264.89 0)" fill="#c0bcb8"/>
    <path id="Контур_335" data-name="Контур 335" d="M505.077,29.494a.77.77,0,0,1,.524.306c.511.84.951,1.726,1.486,2.549a1.641,1.641,0,0,0,.937.772c.274.03.6-.442.9-.7.234-.2.457-.411.691-.61.447-.381,1.227-.712,1.286-1.143a20.015,20.015,0,0,0-.015-3.627c-.007-.157-.292-.306-.458-.448-.14-.119-.293-.222-.524-.394.719-.463,1.109-.943.388-1.74l-.745.885-.956-.1c.312-.428.563-.732.766-1.065a2.91,2.91,0,0,0,.305-.747,8.863,8.863,0,0,0,.215-1.08c.048-.346.208-.83.046-1.011a1.082,1.082,0,0,0-1-.118,2.662,2.662,0,0,1-2.746-.034.852.852,0,0,0-.774.076,7.1,7.1,0,0,0-.918,1.046l.479.69-.578.233a12.3,12.3,0,0,1,1.2,2.12,1.532,1.532,0,0,1-.424,1.305c-.489.444-.849-.064-1.137-.468-.123-.172-.244-.345-.379-.507-.383-.46-.722-.245-.911.15a1.229,1.229,0,0,0-.105.952c.62,1.062.787,2.563,2.446,2.705" transform="translate(-411.588 -17.303)" fill="#c0bcb8"/>
    <path id="Контур_336" data-name="Контур 336" d="M629.124,208.137c0-.382-.392-.789-.668-1.14a.727.727,0,0,0-.563-.2.67.67,0,0,1-.838-.7,2.131,2.131,0,0,0-1.238-1.639,22.428,22.428,0,0,1-2.134-1.709c-.113-.092-.258-.143-.377-.23-.251-.184-.505-.367-.739-.572s-.43-.6-.648-.6a.961.961,0,0,0-.728.527,16.943,16.943,0,0,0-.5,2.088c-.265,1.245.4,2.759-1.065,3.658a.215.215,0,0,0-.076.16,1.62,1.62,0,0,0,.044.75c.069.119.425.126.64.1a11.821,11.821,0,0,0,1.163-.279,2.821,2.821,0,0,0,.117.7,2.1,2.1,0,0,0,.564.837c.12.082.548-.145.739-.332.729-.711,1.418-1.462,2.22-2.3.153.081.809.222.876.5.2.862.91.889,1.484,1.132.47.2,1.724-.3,1.726-.751" transform="translate(-507.375 -164.897)" fill="#c0bcb8"/>
    <path id="Контур_337" data-name="Контур 337" d="M645.209,691.934c-1.259-1.081-2.768-.981-4.21-.827-1.272.136-2.573.5-3.009,2.178a2.409,2.409,0,0,0,.661-.067c.66-.286,1.292-.642,1.963-.9a1.433,1.433,0,0,1,.865.047c.374.118.7.374,1.078.487a7.194,7.194,0,0,1,1.392.3c1.108.622,2.664.426,3.356,1.824.055.111.331.107.5.173a.865.865,0,0,1,.2.149l-.226.9c1.691-.066,3.317.308,5.028-.709-1.057-.566-1.993-1.05-2.911-1.565-.712-.4-1.381-.881-2.108-1.247a8.79,8.79,0,0,0-1.567-.518c-.333-.094-.776-.028-1.005-.225" transform="translate(-522.493 -565.916)" fill="#c0bcb8"/>
    <path id="Контур_338" data-name="Контур 338" d="M724.635,719.438c-1.347-.865-2.607-1.984-4.42-1.6a6.036,6.036,0,0,1-1.143-.009c-.383,0-.766.032-1.149.05l-.165.427,1.032.37-.182.429-2.271,1.039c.55.177.9.322,1.265.4.979.214,2.123-.388,2.923.666.349-.271.627-.658.957-.709.9-.139,1.817-.122,2.725-.2.21-.017.515-.106.586-.253a.644.644,0,0,0-.157-.611" transform="translate(-586.657 -587.821)" fill="#c0bcb8"/>
    <path id="Контур_339" data-name="Контур 339" d="M695.316,156.548c1.958.342,2.5-.821,2.481-2.257l1.9.437.081-.308c-.675-1.154-.831-1.22-2.02-.824-.282-.891-1.06-1.009-1.806-.979-.593.024-1.567,1.893-1.466,2.706.065.524.12,1.1.83,1.225" transform="translate(-568.755 -124.985)" fill="#c0bcb8"/>
    <path id="Контур_340" data-name="Контур 340" d="M106.606,322.176c-.139-.188-.477-.449-.6-.391-.317.155-.753.433-.794.713-.089.607-.174.934-.914,1.024a1.937,1.937,0,0,0-1.232.945c-.15.277.1.882.344,1.222.152.216.74.4.909.283.755-.53,1.431-1.175,2.176-1.814l-.847-1.115a3.143,3.143,0,0,0,.643-.344c.155-.13.361-.456.311-.523" transform="translate(-84.375 -263.524)" fill="#c0bcb8"/>
    <path id="Контур_341" data-name="Контур 341" d="M268.336,380.73a8.1,8.1,0,0,0,2.137,4.37c-.076-1.319-.16-2.769-.243-4.217l-1.894-.153" transform="translate(-219.757 -311.805)" fill="#c0bcb8"/>
    <path id="Контур_342" data-name="Контур 342" d="M6.611,292.772a15.936,15.936,0,0,0-2,.313c.277,1.009.986,1.174,1.613,1.394.683.24,1.016-.266,1.169-.783.176-.593-.236-.941-.782-.924" transform="translate(-3.776 -239.77)" fill="#c0bcb8"/>
    <path id="Контур_343" data-name="Контур 343" d="M794.031,434.186c1.15.645,2.1,1.816,3.744,1.4-.457-1.164-3.043-2.071-3.744-1.4" transform="translate(-650.285 -355.396)" fill="#c0bcb8"/>
    <path id="Контур_344" data-name="Контур 344" d="M646.535,252.615c-1.128.332-1.316,1.34-1.651,2.4,1.259.033,1.69-.916,2.325-1.533.163-.159.121-.528.173-.8a2.468,2.468,0,0,0-.846-.062" transform="translate(-528.138 -206.862)" fill="#c0bcb8"/>
    <path id="Контур_345" data-name="Контур 345" d="M690.106,730a1.926,1.926,0,0,0-2.889-.491c.8,1.175,1.848.761,2.889.491" transform="translate(-562.808 -597.076)" fill="#c0bcb8"/>
    <path id="Контур_346" data-name="Контур 346" d="M92.01,718.407l.843,1.123,1.171-.9a6.877,6.877,0,0,0-1.181-.907c-.113-.056-.471.379-.832.688" transform="translate(-75.353 -587.784)" fill="#c0bcb8"/>
    <path id="Контур_347" data-name="Контур 347" d="M672.5,264.16a15.177,15.177,0,0,0,.581-1.773.749.749,0,0,0-.4-.612.863.863,0,0,0-.771.155c-.4.461-.1,1.71.588,2.23" transform="translate(-550.125 -214.359)" fill="#c0bcb8"/>
    <path id="Контур_348" data-name="Контур 348" d="M772.769,729.072c-.323.158-.645.32-.967.481l.953.779,1.22-.829c-.373-.144-.745-.288-1.118-.43a.123.123,0,0,0-.088,0" transform="translate(-632.08 -597.08)" fill="#c0bcb8"/>
    <path id="Контур_349" data-name="Контур 349" d="M3.236,384.66c1.3,0,1.723-.341,1.849-1.438-1.359-.323-1.123,1.114-1.849,1.438" transform="translate(-2.65 -313.808)" fill="#c0bcb8"/>
    <path id="Контур_350" data-name="Контур 350" d="M679.863,130.519c.038-.1-.074-.258-.117-.389-.147.054-.36.064-.43.17-.355.533-.672,1.09-1.1,1.8,1.14-.172,1.387-.894,1.649-1.585" transform="translate(-555.435 -106.572)" fill="#c0bcb8"/>
    <path id="Контур_351" data-name="Контур 351" d="M153.3,293.464a1.523,1.523,0,0,0,1.411-1.881l-1.411,1.881" transform="translate(-125.545 -238.797)" fill="#c0bcb8"/>
    <path id="Контур_352" data-name="Контур 352" d="M686.7,244.019c-.2-.615-.669-.512-1.418-.24l1.152.868c.1-.212.32-.465.266-.628" transform="translate(-561.225 -199.471)" fill="#c0bcb8"/>
    <path id="Контур_353" data-name="Контур 353" d="M85.489,708.979l-1.736-.763-.115.324,1.679.831.173-.392" transform="translate(-68.496 -580.005)" fill="#c0bcb8"/>
    <path id="Контур_354" data-name="Контур 354" d="M785.4,273.089l.035.394,1.062.1c-.065-.237-.12-.672-.2-.676a3.381,3.381,0,0,0-.9.179" transform="translate(-643.213 -223.504)" fill="#c0bcb8"/>
    <path id="Контур_355" data-name="Контур 355" d="M687.548,675.413l-.509-1.229c-.623.8-.4,1.133.181,1.352l.328-.123" transform="translate(-562.356 -552.134)" fill="#c0bcb8"/>
  </g>
</svg>
