<svg id="Сгруппировать_21" data-name="Сгруппировать 21" xmlns="http://www.w3.org/2000/svg" xmlns:xlink="http://www.w3.org/1999/xlink" width="160" height="182.669" viewBox="0 0 160 182.669">
  <defs>
    <clipPath id="clip-path">
      <rect id="Прямоугольник_14" data-name="Прямоугольник 14" width="160" height="182.669" fill="#c0bcb8"/>
    </clipPath>
  </defs>
  <g id="Сгруппировать_20" data-name="Сгруппировать 20" clip-path="url(#clip-path)">
    <path id="Контур_317" data-name="Контур 317" d="M160.845,81.2c-.834-.956-1.915-.821-2.976-.93a6.124,6.124,0,0,1-2.451-.463,12.184,12.184,0,0,1-2.522-2.272,4.554,4.554,0,0,0-3.8-1.619,1.591,1.591,0,0,1-1.144-.279,2.613,2.613,0,0,0-3.008-.985.9.9,0,0,1-.474-.008c-1.6-.4-2.571.424-3.372,1.668-.15.233-.525.321-.8.476-.008-.293-.132-.654-.007-.87.575-.986.174-1.712-.439-2.5a4.274,4.274,0,0,0-2.191-1.583,8.17,8.17,0,0,1-1.837-.787c-.644-.385-.949-.152-1.3.4a31.679,31.679,0,0,1-2.038,2.975c-.739.921-1.246.869-2.076,0-.282-.3-.532-.771-.863-.839-1.107-.228-2.242-.321-3.37-.439-.615-.065-1.236-.078-1.854-.113q-.061-.257-.122-.514a18.4,18.4,0,0,1,2.341-1.246,6.508,6.508,0,0,0,3.037-2.653c1.164-1.675.873-2.881-.759-4.133-.373-.287-.9-.572-1.016-.96a10.446,10.446,0,0,0-3.132-4.33,5.712,5.712,0,0,0-4.349-1.767,6.166,6.166,0,0,1-5.352-1.922,6.222,6.222,0,0,0-2.686-2.022,1.45,1.45,0,0,1-.791-.652,3.125,3.125,0,0,0-2.748-1.75,2.21,2.21,0,0,1-1.855-1.416,6.971,6.971,0,0,0-1.6-1.984,3.668,3.668,0,0,0-3.737-.132,1.876,1.876,0,0,1-2.687-.191c-.483-.445-1.013-.837-1.309-1.077-.607.15-1.049.42-1.3.3a10.593,10.593,0,0,0-6.407-.794c-1.327.2-1.684.641-1.389,1.973.137.618.257,1.242.337,1.869s-.254,1.028-.87.961a2.131,2.131,0,0,1-1.372-.518,1.73,1.73,0,0,1-.367-2.017,3.33,3.33,0,0,0,.451-1.6,1.78,1.78,0,0,1,1.112-1.811c.493-.242.962-.531,1.485-.822-1.4-1.211-1.61-1.192-2.5.1a9.171,9.171,0,0,0-.551.777,1.763,1.763,0,0,1-1.872.986,2.761,2.761,0,0,0-1.349.338c-.822.413-1.583.949-2.4,1.371a1.377,1.377,0,0,0-.863,1.5,1.727,1.727,0,0,1-.524,1.192c-.63.607-1.377,1.093-2.067,1.639-.421.334-.924.576-1.17-.059-.668-1.735-2.251-2.114-3.728-2.638a2.358,2.358,0,0,0-2.481.474,2.8,2.8,0,0,1-3.523.035,22.894,22.894,0,0,1-3.484-4.109c-.936-1.483-.312-4.041.946-5.361a2.036,2.036,0,0,0-.458-3.456,3.923,3.923,0,0,0-2.825-.432c-1.723.285-3.487.755-5.166-.325-.653-.42-.829-.928-.212-1.4a1.888,1.888,0,0,0,.656-2.5c-.12-.29-.192-.84-.036-.969,1.591-1.312,1.362-4.024,3.674-4.763.11-.035.191-.164.282-.253a.77.77,0,0,0-.03-1.292,2.594,2.594,0,0,0-3.38-.43c-.727.378-1.371,1.07-2.127,1.2A2.389,2.389,0,0,0,52,27.594a3.078,3.078,0,0,1-2.1,2.261,10.2,10.2,0,0,1-7.7-.439,4.418,4.418,0,0,1-2.77-2.345,8.269,8.269,0,0,1,.168-6.983,5.986,5.986,0,0,0,.479-1.642c.212-1.115.374-2.239.573-3.465-.934-.251-1.869-.5-2.8-.748a2.406,2.406,0,0,1-1.925-2.566c.006-.669.029-1.336.03-2,0-.577.194-1.267-.757-1.317-.087,0-.18-.219-.241-.35-.686-1.5-1.223-1.715-2.643-.907a2.218,2.218,0,0,1-2.651-.017,5.984,5.984,0,0,0-1.528-.553l-.2.238c-.04-.264-.185-.566-.1-.785.448-1.218-.043-2.322-.357-3.445-.171-.615-1.436-1.467-1.831-1.193-.663.46-1.554.645-1.769,1.694s-.683,1.205-1.7.912c-1.222-.352-2.42-.821-3.662-1.06a13.076,13.076,0,0,1-6.006-2.7A1.108,1.108,0,0,0,11.8,0c-.819.037-1.634.139-2.453.177a1.311,1.311,0,0,0-1.4,1.636c.145,1.2.145,2.415.351,3.6s.295,2.6.983,3.482a4.2,4.2,0,0,1,.943,2.438,34.4,34.4,0,0,0,.457,3.962,17.107,17.107,0,0,0,.96,2.623,9.574,9.574,0,0,1,1.272.912c.79.777,1.5,1.636,2.29,2.413a5.53,5.53,0,0,0,1.1.665,2.6,2.6,0,0,0-.658-3.16c-.685-.7-1.623-1.336-1.926-2.186-.719-2.019-1.1-4.156-1.673-6.231A9.287,9.287,0,0,0,11.134,7.9c-1.455-2.35-1.106-4.528,1.056-5.777a3.852,3.852,0,0,1,1.623,3.445A5.69,5.69,0,0,0,14.039,7.8c1.007,1.974,2.2,3.854,3.295,5.784a5.3,5.3,0,0,1,.678,1.559c.291,1.546,1.382,2.259,2.67,2.856a7.682,7.682,0,0,1,1.672,1.042,4.8,4.8,0,0,1,1.562,4.661,4.337,4.337,0,0,1-.978,2.156,1.9,1.9,0,0,0,.509,3.173,6.993,6.993,0,0,1,3.442,2.727,2.619,2.619,0,0,0,1.121,1,54.262,54.262,0,0,0,5.051,2.246,35.731,35.731,0,0,0,4.173,1.01,2.354,2.354,0,0,0,2.527-.822c1.16-1.305,1.572-1.25,2.909-.114,1.185,1.007,2.377,2,3.555,3.019a8.984,8.984,0,0,1,1.716,1.6,3.8,3.8,0,0,0,2.575,1.778,1.887,1.887,0,0,1,.728.216c1.441,1,3.032.751,4.575.476a1.141,1.141,0,0,1,1.475.759c.835,1.746,1.692,3.485,2.631,5.177.246.442.825.7,1.251,1.044.521.42,1.232.741,1.52,1.285a3.517,3.517,0,0,0,2.44,1.786,2.41,2.41,0,0,1,1.189.5A3.766,3.766,0,0,0,68.5,53.769a.9.9,0,0,0,1.2-.57,10.665,10.665,0,0,1,1.058-1.7,1.7,1.7,0,0,1,2.9.03,11.64,11.64,0,0,1,2.36,5.142,4.324,4.324,0,0,1-.137,1.963,7.978,7.978,0,0,0-.522,4c.236,1.556-.316,2.272-1.811,2.781a25.621,25.621,0,0,0-2.632,1.087c-.242.114-.58.468-.546.652.193,1.042-.461,1.562-1.123,2.132a10.068,10.068,0,0,0-1.1,1.188c-.973,1.16-.965,1.186.3,1.938a6.906,6.906,0,0,1,1.055.643c.244.213.6.627.529.819-.434,1.228-.158,2.743-1.592,3.6a1.92,1.92,0,0,0-.785,1.635,18.567,18.567,0,0,0,2.095,4.218,21.344,21.344,0,0,1,2.4,3.62,12.562,12.562,0,0,0,2.494,4.017,44,44,0,0,1,2.853,3.637A2.7,2.7,0,0,1,78.1,96.07a5.038,5.038,0,0,0,2.131,3.676c.729.595,1.616,1.073,1.61,2.215,0,.115.175.255.3.342,1.171.821,2.336,1.652,3.53,2.439.551.363,1.166.629,1.743.955a18.438,18.438,0,0,0,2.55,1.438,4.1,4.1,0,0,1,2.686,4.176,7.531,7.531,0,0,0,.316,3.264,28.689,28.689,0,0,1,.948,4.752,42.339,42.339,0,0,1-.349,4.941,17.6,17.6,0,0,0,.015,2.747c.155,1.593.4,3.239-.3,4.7-.821,1.719-.23,3.142.528,4.575a5.791,5.791,0,0,1,.8,2.886,17.709,17.709,0,0,0,.641,6.6c.324.886-.181,2.083-.337,3.135-.068.458-.27.9-.3,1.36-.107,1.734.718,3.187,1.463,4.665.267.532.724,1.165.622,1.652-.368,1.752.732,2.142,2,2.482.153.041.3.12.447.167a1.551,1.551,0,0,1,1.157,1.661,10.334,10.334,0,0,0,.766,4.453,3.724,3.724,0,0,1-.277,2.362c-.259.678-.958.266-1.508.227-.663-.048-1.5.039-1.609.812-.042.312.751.739,1.169,1.107.042.037.12.034.183.048a3.02,3.02,0,0,1,2.36,2.009c.425,1.247.969,2.328,2.434,2.6a1.634,1.634,0,0,1,.632.415,8.909,8.909,0,0,1,2.906,3.331,1.8,1.8,0,0,0,1.776,1.217,3.228,3.228,0,0,1,3.414,2.255c.113.31.208.626.311.939l.226-.053c-.084-.573-.145-1.15-.258-1.718-.143-.726-.11-1.214.8-1.466.971-.269,1.115-1.058.49-1.837-.259-.322-.541-.625-.814-.936-.769-.876-.611-1.663.2-2.533a6.756,6.756,0,0,0,.944-1.954A5.615,5.615,0,0,1,114.9,171c.471-.621,1.044-1.165,1.668-1.842-1.553-.589-2.947-1.112-4.336-1.646-.91-.35-1.09-.691-.611-1.477.794-1.3,1.691-2.537,2.5-3.83a1.413,1.413,0,0,0,.244-1.063c-.653-1.5-1.4-2.968-2.111-4.448-.1-.214-.171-.445-.256-.668.257-.1.525-.295.765-.263.432.056.84.316,1.272.367.511.06,1.227.2,1.518-.069a6.09,6.09,0,0,0,1.527-2.146c.155-.381-.315-1.013-.495-1.535-.018-.05.015-.118.009-.079a25.641,25.641,0,0,0,4.476-.865,28.362,28.362,0,0,0,3.946-2.288c.722-.419,1.235-1.227.832-1.783-.889-1.228-1.607-2.686-3.217-3.273-1.267-.462-1.787-1.667-2.406-2.81a6.024,6.024,0,0,1,2.118.72,3.821,3.821,0,0,0,3.063.685c.8-.212,1.592-.444,2.383-.683a4.119,4.119,0,0,0,2.957-3.793c-.006-1.88,1.4-3.046,1.949-4.788.651.713.887,1.32.569,2a18.5,18.5,0,0,1-.986,1.663l.232.24c.39-.338.933-.6,1.133-1.032a15.884,15.884,0,0,0,.476-2.012c.208-.669.343-1.594.829-1.9,1.628-1.024,2.331-2.616,3.081-4.224a.959.959,0,0,0-.356-1.392,2.747,2.747,0,0,1-1.224-3.273,1.242,1.242,0,0,1,.843-1.1,3.993,3.993,0,0,0,1.27-1.058,11.494,11.494,0,0,1,1.351-1.573c1.412-1.007,2.9-1.9,4.377-2.824a.964.964,0,0,1,.637-.091c2.273.442,3.411-.086,4.619-2.084a3.849,3.849,0,0,1,1.211-1.447c1.151-.621,1.2-1.587,1.217-2.673a24.951,24.951,0,0,1,.215-3.21c.224-1.541.622-3.058.81-4.6a5.941,5.941,0,0,0-.283-2.1,10.5,10.5,0,0,1-.676-1.97,9.435,9.435,0,0,1,.432-2.85c.054-.19.829-.164,1.268-.257a4.317,4.317,0,0,0,.536-.2c1.2-.426,1.445-1.491,1.743-2.545.123-.439.276-1.025.608-1.227,2.108-1.277,3.208-3.41,4.6-5.283a4.492,4.492,0,0,0-.383-5.2" transform="translate(-1.891 0)" fill="#c0bcb8"/>
    <path id="Контур_318" data-name="Контур 318" d="M50.975,19.7c.016.016.011.007,0,0" transform="translate(-12.161 -4.699)" fill="#c0bcb8"/>
    <path id="Контур_319" data-name="Контур 319" d="M50.957,19.679c-.009-.009-.024-.026-.051-.059l-.007.042.049.013.009,0" transform="translate(-12.143 -4.681)" fill="#c0bcb8"/>
    <path id="Контур_320" data-name="Контур 320" d="M84.721,27.85a1.639,1.639,0,0,1,2.832.05,1.652,1.652,0,0,0,2.08.948,1.967,1.967,0,0,1,.932.1c1.264.422,2.535.833,3.76,1.351a1.522,1.522,0,0,1,.669.987,3.144,3.144,0,0,1-.143,1.214c-.254,1.294.131,1.652,1.4,1.38a6.737,6.737,0,0,1,1.843-.148c1.291.088,2.576.265,3.864.406l.206-.351a5.8,5.8,0,0,0-.573-1.183,6.971,6.971,0,0,0-3.876-2.565,46.343,46.343,0,0,1-4.734-1.7,1.651,1.651,0,0,1-.414-.231c-1.547-1.162-3.42-1.233-5.216-1.556-1.385-.25-2.508.515-3.674,1.048-.4.184-.988.56-1,.868-.016.385.474.79.86,1.353.5-.833.811-1.419,1.179-1.971" transform="translate(-19.725 -6.323)" fill="#c0bcb8"/>
    <path id="Контур_321" data-name="Контур 321" d="M112.348,39.579a2.679,2.679,0,0,1,3.158,0,2.2,2.2,0,0,0,2.728-.177,12.729,12.729,0,0,1,2.282-1.043,2.886,2.886,0,0,0,.528-.413c-.206-.142-.4-.388-.617-.4-.824-.062-1.656-.008-2.478-.085a1.6,1.6,0,0,1-.973-.45,3.948,3.948,0,0,0-3.347-1.485,4.417,4.417,0,0,1-1.048-.023c-1.171-.212-1.98.387-1.869,1.552.108,1.133.046,2.108-1.27,2.595l.184.343a7.509,7.509,0,0,0,2.722-.414" transform="translate(-26.109 -8.46)" fill="#c0bcb8"/>
    <path id="Контур_322" data-name="Контур 322" d="M97.591,39.06a1.623,1.623,0,0,0-1.1.6c-.119.155.144.694.342.985a3.253,3.253,0,0,0,2.759,1.2c.85.059,1.318-.3,1.319-1.125,0-.692-.17-1.287-.968-1.406a14.026,14.026,0,0,0-2.353-.254" transform="translate(-23.013 -9.318)" fill="#c0bcb8"/>
    <path id="Контур_323" data-name="Контур 323" d="M130.728,39.537a5.836,5.836,0,0,0-1.087-.29c-.76-.039-1.524-.016-2.286-.015-1.218,0-1.476.263-1.524,1.53,1.732.3,3.411.353,4.9-1.225" transform="translate(-30.019 -9.358)" fill="#c0bcb8"/>
    <path id="Контур_324" data-name="Контур 324" d="M1.663,37.72A1.824,1.824,0,0,0,0,39.219c-.012.577,1.044,1.433,1.76,1.426.648-.006,1.083-.623,1.06-1.506-.022-.848-.5-1.431-1.157-1.419" transform="translate(0 -8.999)" fill="#c0bcb8"/>
    <path id="Контур_325" data-name="Контур 325" d="M11.67,41.175a1.876,1.876,0,0,0,2.536.918c.844-.244.991-1.02.94-1.9-1.283.008-2.6-.434-3.476.987" transform="translate(-2.784 -9.574)" fill="#c0bcb8"/>
    <path id="Контур_326" data-name="Контур 326" d="M12.812,37.356c.645.114,1.133-.185,1.1-1.009-.035-.95-.557-1.3-2.1-1.269-.1.545-.394,1.121-.228,1.486a1.815,1.815,0,0,0,1.222.792" transform="translate(-2.753 -8.368)" fill="#c0bcb8"/>
    <path id="Контур_327" data-name="Контур 327" d="M1.765,21.272c.085.263.72.632.8.566a5.467,5.467,0,0,0,1.163-1.28c.053-.079-.352-.464-.442-.579-.856.021-1.686.8-1.526,1.294" transform="translate(-0.416 -4.766)" fill="#c0bcb8"/>
    <path id="Контур_328" data-name="Контур 328" d="M8.8,37.011c-.217.33-.56.639-.623,1-.114.639.241,1.007,1.238.922.055-.062.475-.415.426-.5A12.376,12.376,0,0,0,8.8,37.011" transform="translate(-1.947 -8.83)" fill="#c0bcb8"/>
    <path id="Контур_329" data-name="Контур 329" d="M138.462,41.532c-.228-.1-.6-.337-.659-.278a4.485,4.485,0,0,0-.535.9l.432.3.761-.918" transform="translate(-32.748 -9.84)" fill="#c0bcb8"/>
    <path id="Контур_330" data-name="Контур 330" d="M140.324,48.877c-.139-.174-.346-.515-.406-.492a6.5,6.5,0,0,0-.948.554l.29.511,1.064-.573" transform="translate(-33.154 -11.543)" fill="#c0bcb8"/>
  </g>
</svg>
